<?xml version="1.0" encoding="utf-8"?>
<!-- Generator: Adobe Illustrator 19.2.1, SVG Export Plug-In . SVG Version: 6.00 Build 0)  -->
<svg version="1.1" id="Layer_1" xmlns="http://www.w3.org/2000/svg" xmlns:xlink="http://www.w3.org/1999/xlink" x="0px" y="0px"
	 viewBox="0 0 96 96" style="enable-background:new 0 0 96 96;" xml:space="preserve">
<style type="text/css">
	.st0{fill:none;stroke:#C42126;stroke-miterlimit:10;}
	.st1{fill:#C42126;}
	.st2{clip-path:url(#SVGID_2_);fill:#C42126;}
	.st3{fill:#FFFFFF;}
</style>
<title>roofgarden</title>
<circle class="st0" cx="48.3" cy="48.3" r="45.3"/>
<path class="st1" d="M24,22.4"/>
<g>
	<polygon class="st1" points="23.3,33.5 29,74.5 62.1,74.5 68.1,33.5 	"/>
	<g>
		<g>
			<defs>
				<rect id="SVGID_1_" x="23.1" y="21.5" width="45.3" height="52.9"/>
			</defs>
			<clipPath id="SVGID_2_">
				<use xlink:href="#SVGID_1_"  style="overflow:visible;"/>
			</clipPath>
			<path class="st2" d="M50.2,25.9h-8.7v-2c0-0.9,0.9-0.9,0.9-0.9h6.9c0.9,0,0.9,0.9,0.9,0.9L50.2,25.9L50.2,25.9z M65.1,26
				c-1.3,0-6.8,0-13.3,0v-2.9c0,0,0-1.5-1.5-1.5h-9.2c0,0-1.5,0-1.5,1.5v2.9c-7.3,0-13.3,0-13.3,0s-3.3-0.2-3.2,6h45.2
				C68.4,31.9,68.6,26,65.1,26"/>
		</g>
	</g>
</g>
<g transform="matrix( 1, 0, 0, 1, 0,0) ">
	<g>
		<g id="a">
			<path class="st1" d="M71.6,51.1c0-3.2-1.1-6-3.4-8.2c-2.3-2.3-5-3.4-8.2-3.4c-3.2,0-6,1.1-8.2,3.4c-2.3,2.3-3.4,5-3.4,8.2
				c0,3.2,1.1,6,3.4,8.2c2.3,2.3,5,3.4,8.2,3.4c3.2,0,6-1.1,8.2-3.4c1.6-1.6,2.7-3.5,3.1-5.6v0C71.5,52.9,71.6,52,71.6,51.1
				 M66.6,44.4c1.9,1.9,2.8,4.1,2.8,6.7c0,0.7-0.1,1.5-0.2,2.1c-0.4,1.7-1.2,3.3-2.6,4.6c-1.8,1.9-4.1,2.8-6.7,2.8
				c-2.6,0-4.9-0.9-6.7-2.8c-1.8-1.8-2.8-4.1-2.8-6.7c0-2.6,0.9-4.9,2.8-6.7c1.9-1.8,4.1-2.8,6.7-2.8C62.6,41.6,64.8,42.5,66.6,44.4
				 M79.3,68.7c0-0.5-0.2-0.9-0.5-1.3l-7-7c-0.3-0.3-0.7-0.5-1.2-0.5c-0.5,0-0.9,0.2-1.3,0.5c-0.3,0.3-0.5,0.8-0.5,1.3
				c0,0.5,0.2,0.9,0.5,1.2l7,7c0.3,0.4,0.8,0.5,1.3,0.5c0.5,0,0.9-0.2,1.2-0.5C79.1,69.6,79.3,69.2,79.3,68.7z"/>
		</g>
	</g>
</g>
<path class="st3" d="M59.9,41.2c2.6,0,4.9,0.9,6.7,2.8c0.2,0.2,0.4,0.4,0.5,0.6c0-0.8,0.2-1.7,0.6-2.4c-2.2-2-4.8-3.1-7.9-3.1
	c-3.2,0-6,1.1-8.2,3.4c-2.3,2.3-3.4,5-3.4,8.2c0,3.2,1.1,6,3.4,8.2c2.3,2.3,5,3.4,8.2,3.4c1.6,0,3.1-0.3,4.5-0.9
	c0-0.5,0.1-1,0.2-1.6c0.1-0.4,0.3-0.8,0.5-1.2c-1.5,1-3.3,1.6-5.2,1.6c-2.6,0-4.9-0.9-6.7-2.8c-1.8-1.8-2.8-4.1-2.8-6.7
	c0-2.6,0.9-4.9,2.8-6.7C55,42.1,57.3,41.2,59.9,41.2z"/>
</svg>
