<?xml version="1.0" encoding="utf-8"?>
<!-- Generator: Adobe Illustrator 19.2.1, SVG Export Plug-In . SVG Version: 6.00 Build 0)  -->
<svg version="1.1" id="Layer_1" xmlns="http://www.w3.org/2000/svg" xmlns:xlink="http://www.w3.org/1999/xlink" x="0px" y="0px"
	 viewBox="0 0 96 96" style="enable-background:new 0 0 96 96;" xml:space="preserve">
<style type="text/css">
	.st0{fill:none;stroke:#C42126;stroke-miterlimit:10;}
	.st1{fill:#C42126;}
</style>
<title>roofgarden</title>
<circle class="st0" cx="48.3" cy="48.3" r="45.3"/>
<path class="st1" d="M79.1,24.8c0.5,0,0.8-0.4,0.8-0.8v-2.3c0-0.4-0.4-0.8-0.8-0.8h-59c-0.5,0-0.8,0.4-0.8,0.8V24
	c0,0.4,0.4,0.8,0.8,0.8h2v49h-2c-0.5,0-0.8,0.4-0.8,0.8v2.3c0,0.4,0.4,0.8,0.8,0.8h59c0.5,0,0.8-0.4,0.8-0.8v-2.3
	c0-0.4-0.4-0.8-0.8-0.8h-2v-49H79.1z M29.7,73.8h-5.3v-49h5.3V73.8z M37.2,73.8h-5.3v-49h5.3V73.8z M44.8,73.8h-5.3v-49h5.3V73.8z
	 M52.3,73.8H47v-49h5.3V73.8z M59.8,73.8h-5.3v-49h5.3V73.8z M75.7,57.8c0,0.5-0.3,1-0.8,1.3v14.7h-5.3V59.4h-2.2v14.5h-5.3V59.1
	c-0.5-0.3-0.8-0.8-0.8-1.3v-7.9c0-0.5,0.3-1,0.8-1.3V24.8h5.3v17.4c0.3-0.1,0.7-0.1,1.1-0.1c0.4,0,0.7,0.1,1.1,0.1V24.8h5.3v23.9
	c0.5,0.3,0.8,0.8,0.8,1.3L75.7,57.8L75.7,57.8z M68.5,46.3c0.4,0,0.7,0,1.1,0.1v1.4h-2.2v-1.4C67.7,46.3,68.1,46.3,68.5,46.3z
	 M73.1,49h-0.4v-1.5c0-2.2-1.9-3.9-4.2-3.9s-4.2,1.8-4.2,3.9V49h-0.3c-0.7,0-1.4,0.4-1.4,1v6.8c0,0.6,0.6,1,1.4,1h9.2
	c0.7,0,1.4-0.4,1.4-1v-6.8C74.4,49.5,73.8,49,73.1,49z M71.3,49h-5.4v-1.5c0-1.4,1.2-2.5,2.7-2.5c1.5,0,2.7,1.1,2.7,2.5V49z"/>
<path class="st1" d="M61.9,57.5c-1,0-2,0.2-2.9,0.5c-0.7-1.6-1.5-3.4-2.5-5.5l0.6-1.7l2.1,0V49h-7.9c-0.7,0.9,0.3,0.9,3.8,1.7
	l-0.6,1.7H38.9c1.1-3.7,0.5-3.4,5.2-3.4v-1.8c-6.5,0.1-5.4-0.7-8.9,10.6c-0.5-0.1-1.1-0.2-1.6-0.2c-5,0-9,4-9,9c0,5,4,9,9,9
	c5,0,9-4,9-9c0-3.7-2.3-6.9-5.5-8.3c0.2-0.6,0.4-1.3,0.6-2C50.8,70.3,45.9,68,53,68.3c0,0,0.1,0,0.1,0c0.8,4.1,4.5,7.2,8.8,7.2
	c5,0,9-4,9-9C70.9,61.5,66.8,57.5,61.9,57.5z M40.4,66.6c0,3.8-3.1,6.9-6.9,6.9s-6.9-3.1-6.9-6.9c0-3.8,3.1-6.9,6.9-6.9
	c0.3,0,0.7,0,1,0.1c-2.2,6.9-1.9,6.1-1.9,6.7c0,0.5,0.4,0.9,0.9,0.9c0.9-0.1,0.7,0.1,2.9-7.1C38.8,61.5,40.4,63.9,40.4,66.6z
	 M49.3,66.2L38.4,54.3l15.3,0L49.3,66.2z M52.9,66.5l-1.7,0l4.3-11.4l1.7,3.7C54.6,60.4,52.9,63.2,52.9,66.5z M58.1,60.7l2.6,5.8
	l-5.7,0C55,64.1,56.2,61.9,58.1,60.7z M61.9,73.4c-3.2,0-5.9-2.2-6.6-5.1c7.2,0,7.8,0.4,7.9-0.9c0-0.4-0.1-0.6-3.3-7.5
	c0.6-0.2,1.3-0.3,2-0.3c3.8,0,6.9,3.1,6.9,6.9C68.8,70.3,65.7,73.4,61.9,73.4z"/>
</svg>
