<?xml version="1.0" encoding="utf-8"?>
<!-- Generator: Adobe Illustrator 19.2.1, SVG Export Plug-In . SVG Version: 6.00 Build 0)  -->
<svg version="1.1" id="Layer_1" xmlns="http://www.w3.org/2000/svg" xmlns:xlink="http://www.w3.org/1999/xlink" x="0px" y="0px"
	 viewBox="0 0 96 96" style="enable-background:new 0 0 96 96;" xml:space="preserve">
<style type="text/css">
	.st0{fill:none;stroke:#C42126;stroke-width:2;stroke-miterlimit:10;}
	.st1{fill:#C42126;}
</style>
<title>roofgarden</title>
<circle class="st0" cx="48.3" cy="48.3" r="45.3"/>
<path class="st1" d="M79.4,63.2c-3.1-3.1-9.1-3.2-9.8-3.2c-0.8,0-1.9-0.5-2.5-1L54.7,46.5l14.7-14.7c0.4,0.2,0.8,0.3,1.2,0.3
	c0.8,0,1.5-0.3,2.1-0.9l6.1-6.1L74.6,21L68.6,27c-0.6,0.6-0.9,1.3-0.9,2.1c0,0.4,0.1,0.8,0.3,1.2L53.2,45L41.6,33.4
	c-0.5-0.5-1-1.7-1-2.5c0-0.3,0-6.5-3.2-9.8c-3.1-3.1-9.1-3.2-9.8-3.2c-1.3,0-1.8,0.7-1.9,1c-0.1,0.3-0.3,1.1,0.6,2.1l4.2,4.2
	c0.3,0.3,0.3,0.8,0,1.2l-2.7,2.7c-0.3,0.3-0.9,0.3-1.2,0l-4.2-4.2c-0.5-0.5-1-0.7-1.5-0.7c-0.8,0-1.6,0.6-1.6,2c0,0.3,0,6.5,3.2,9.8
	c3.1,3.1,9.1,3.2,9.8,3.2c0.8,0,1.9,0.5,2.5,1l11.6,11.6l-3.7,3.7l-1.9-1.9c-0.6-0.6-1.3-0.9-2.1-0.9c-0.8,0-1.5,0.3-2.1,0.9
	L19.4,70.9c-0.6,0.6-0.9,1.3-0.9,2.1c0,0.8,0.3,1.5,0.9,2.1l5.3,5.3c0.6,0.6,1.3,0.9,2.1,0.9c0.8,0,1.5-0.3,2.1-0.9l17.3-17.3
	c1.1-1.1,1.1-3,0-4.1L44.2,57l3.7-3.7l12.4,12.4c0.5,0.5,1,1.7,1,2.5c0,0.3,0,6.5,3.2,9.8c3.1,3.1,9.1,3.2,9.7,3.2h0
	c1.3,0,1.8-0.7,1.9-1c0.1-0.3,0.3-1.1-0.6-2.1l-4.2-4.2c-0.3-0.3-0.3-0.9,0-1.2L74,70c0.3-0.3,0.9-0.3,1.2,0l4.2,4.2
	c0.5,0.5,1,0.7,1.5,0.7c0.8,0,1.6-0.6,1.6-2C82.6,72.7,82.6,66.4,79.4,63.2z M74.3,80.1L74.3,80.1L74.3,80.1L74.3,80.1z"/>
</svg>
