<?xml version="1.0" encoding="utf-8"?>
<!-- Generator: Adobe Illustrator 19.2.1, SVG Export Plug-In . SVG Version: 6.00 Build 0)  -->
<svg version="1.1" id="Layer_1" xmlns="http://www.w3.org/2000/svg" xmlns:xlink="http://www.w3.org/1999/xlink" x="0px" y="0px"
	 viewBox="0 0 96 96" style="enable-background:new 0 0 96 96;" xml:space="preserve">
<style type="text/css">
	.st0{fill:none;stroke:#C42126;stroke-miterlimit:10;}
	.st1{fill:#C42126;}
</style>
<title>roofgarden</title>
<circle class="st0" cx="48.3" cy="48.3" r="45.3"/>
<g>
	<path class="st1" d="M25.3,14.7v67.1h2.4v-3.1H41v3.1h2.4v-3.1h13.4v3.1h2.4v-3.1h13.4v3.1h2.4V14.7H25.3z M27.7,76.1V17.4H41v58.7
		H27.7z M43.4,76.1V17.4h13.4v58.7H43.4z M59.1,76.1V17.4h13.4v58.7H59.1z"/>
	<rect x="30.4" y="20.4" class="st1" width="7.9" height="2.6"/>
	<rect x="30.4" y="24.8" class="st1" width="7.9" height="2.6"/>
	<rect x="46.2" y="20.4" class="st1" width="7.9" height="2.6"/>
	<rect x="46.2" y="24.8" class="st1" width="7.9" height="2.6"/>
	<rect x="29.3" y="44.5" class="st1" width="2.4" height="6.6"/>
	<rect x="45" y="44.5" class="st1" width="2.4" height="6.6"/>
	<rect x="30.4" y="66" class="st1" width="7.9" height="2.6"/>
	<rect x="30.4" y="70.4" class="st1" width="7.9" height="2.6"/>
	<rect x="46.2" y="66" class="st1" width="7.9" height="2.6"/>
	<rect x="46.2" y="70.4" class="st1" width="7.9" height="2.6"/>
	<ellipse class="st1" cx="30.4" cy="41" rx="1.2" ry="1.3"/>
	<ellipse class="st1" cx="46.2" cy="41" rx="1.2" ry="1.3"/>
</g>
<g>
	<path class="st1" d="M63.9,67.6l-2.2-0.1c-0.1,0-0.2,0.2-0.2,0.4l0,0.7c0,0.2,0,0.4,0.1,0.4l2.2,0.1c0.1,0,0.2-0.2,0.2-0.4l0-0.7
		C64,67.8,63.9,67.6,63.9,67.6z"/>
	<path class="st1" d="M68.1,50.1L68.1,50.1L68.1,50.1c-0.4,0-0.6,0.3-0.7,0.7l-0.7,10.7l-0.1,1.1l0,0.5L66.6,64l-0.7,11
		c0,0.4,0.2,0.8,0.5,0.8l0,0l0,0c0.3,0,0.5-0.3,0.6-0.7l0.7-10.9l0.1-0.9l0-0.5l0-0.2l0.7-11.6C68.6,50.5,68.4,50.1,68.1,50.1z"/>
	<path class="st1" d="M68.5,42.1l-5-0.3c0,0-0.3,0.9-0.5,1.2l5,0.3L67.7,48c-0.9,0.3-1.7,1.5-1.8,3.1l-0.8,12.4l0.9,0.1l0.8-12.7
		c0-0.7,0.4-1.4,0.9-1.5c0.1,0,0.2,0,0.3,0c0.1,0,0.2,0,0.3,0c0.4,0.2,0.7,0.8,0.7,1.6l-0.8,12.7l0.9,0.1l0.8-12.4
		c0.1-1.5-0.5-2.9-1.3-3.3l0,0l0.3-4.7l5,0.3c-0.1-0.3-0.3-1.2-0.3-1.2L68.5,42.1L68.5,42.1z"/>
	<path class="st1" d="M72.6,60.3l-2.2-0.1c-0.1,0-0.2,0.2-0.2,0.4l0,0.7c0,0.2,0,0.4,0.1,0.4l2.2,0.1c0.1,0,0.2-0.2,0.2-0.4l0-0.7
		C72.7,60.5,72.7,60.3,72.6,60.3z"/>
</g>
</svg>
