<?xml version="1.0" encoding="utf-8"?>
<!-- Generator: Adobe Illustrator 19.2.1, SVG Export Plug-In . SVG Version: 6.00 Build 0)  -->
<svg version="1.1" id="Layer_1" xmlns="http://www.w3.org/2000/svg" xmlns:xlink="http://www.w3.org/1999/xlink" x="0px" y="0px"
	 viewBox="0 0 96 96" style="enable-background:new 0 0 96 96;" xml:space="preserve">
<style type="text/css">
	.st0{fill:none;stroke:#C42126;stroke-miterlimit:10;}
	.st1{fill:#C42126;}
	.st2{fill:#FFFFFF;}
</style>
<title>roofgarden</title>
<circle class="st0" cx="48.3" cy="48.3" r="45.3"/>
<path class="st1" d="M72.7,19.1H35.9v58.2h2.8V81h2.5v-3.7h31.5c0.4,0,0.7-0.3,0.7-0.7V19.8C73.4,19.4,73.1,19.1,72.7,19.1
	C72.7,19.1,72.7,19.1,72.7,19.1z M62.6,31.3h-7.9c-0.4,0-0.7-0.3-0.7-0.7c0-0.4,0.3-0.7,0.7-0.7h7.9c0.4,0,0.7,0.3,0.7,0.7
	C63.3,31,63,31.3,62.6,31.3z M66,27.2H54.7c-0.4,0-0.7-0.3-0.7-0.7c0-0.4,0.3-0.7,0.7-0.7H66c0.4,0,0.7,0.3,0.7,0.7
	S66.4,27.2,66,27.2L66,27.2z M28.4,19.1H34v58.2h-5.6c-0.4,0-0.7-0.3-0.7-0.7V19.8C27.8,19.4,28.1,19.1,28.4,19.1
	C28.4,19.1,28.4,19.1,28.4,19.1z"/>
<path class="st2" d="M49.2,61.4l0.9,0.5c0.2,0,0.2-0.1,0.2-0.2c0-0.1,0-0.2-0.1-0.3l-2-3.7l-4.4,0.1c-0.2,0-0.3,0.1-0.3,0.3
	c0,0,0.1,0.1,0.2,0.2l0.9,0.5l-1,1.5c-0.3,0.4-0.4,0.8-0.4,1.1c0,0.2,0.1,0.5,0.3,0.8l3,5.2c-0.1-0.3-0.1-0.6-0.1-0.9
	c0-0.5,0.2-1,0.5-1.5L49.2,61.4L49.2,61.4z"/>
<path class="st2" d="M50.4,58.4l2.5-3.8c-0.9-2.1-1.9-3.1-2.9-3.1c-0.6,0-1,0.2-1.3,0.5l-2.3,3.7L50.4,58.4L50.4,58.4z"/>
<path class="st2" d="M48.4,68.7h4.7v-4.9h-4.6c-0.6,0.8-0.9,1.3-1.1,1.6c-0.2,0.5-0.3,0.9-0.3,1.4C47.1,68,47.5,68.7,48.4,68.7
	L48.4,68.7z"/>
<path class="st2" d="M58.1,57.5l2.1-3.6c0.1-0.1,0.1-0.3,0.1-0.4c0-0.2-0.1-0.2-0.2-0.2c0,0-0.1,0-0.2,0.1l-1,0.4L58.1,52
	c-0.4-0.8-1.2-1.2-2.3-1.2h-5.5c0.7,0.2,1.1,0.4,1.4,0.6c0.6,0.4,1.1,1.3,1.7,2.5l1.1,2.3l-0.8,0.4c-0.1,0-0.1,0.1-0.1,0.2
	c0,0.1,0.1,0.2,0.3,0.2L58.1,57.5L58.1,57.5z"/>
<path class="st2" d="M60.2,67.9l3.1-5.6c-0.5,0.5-0.9,0.9-1.5,1c-0.4,0.1-1,0.2-1.8,0.2h-3.4v-0.7c0-0.3-0.1-0.4-0.2-0.4
	c-0.1,0-0.2,0-0.2,0.1L54,66.3l2.2,3.4c0.2,0.3,0.3,0.4,0.4,0.3c0.1,0,0.2-0.1,0.2-0.2v-1.2h1.9C59.5,68.7,59.9,68.5,60.2,67.9
	L60.2,67.9z"/>
<path class="st2" d="M58.9,62.9h2c0.5,0,1-0.2,1.5-0.6c0.6-0.4,0.8-0.9,0.8-1.4c0-0.2-0.1-0.5-0.2-0.7l-2.4-3.7l-4.2,2.4L58.9,62.9
	L58.9,62.9z"/>
</svg>
