<?xml version="1.0" encoding="utf-8"?>
<!-- Generator: Adobe Illustrator 19.2.1, SVG Export Plug-In . SVG Version: 6.00 Build 0)  -->
<svg version="1.1" id="Layer_1" xmlns="http://www.w3.org/2000/svg" xmlns:xlink="http://www.w3.org/1999/xlink" x="0px" y="0px"
	 viewBox="0 0 96 96" style="enable-background:new 0 0 96 96;" xml:space="preserve">
<style type="text/css">
	.st0{fill:none;stroke:#C42126;stroke-miterlimit:10;}
	.st1{fill:#C42126;}
</style>
<title>roofgarden</title>
<circle class="st0" cx="48.3" cy="48.3" r="45.3"/>
<path class="st1" d="M37.5,27.7"/>
<path class="st1" d="M45,22.6h21.6l3.5,3.5c0.6,0.6,0.6,1.1,0,1.7l-4.2,4.2l-2.5-2.5l-2.5,2.5l-2.4-2.4L56,32l-2.5-2.5l-3.2,3.2H45
	L45,22.6L45,22.6z"/>
<path d="M31.2,63.4"/>
<path class="st1" d="M68.2,56l-4-10.4c-0.8-2-2.4-3.7-5.5-3.7h-5.7h-9.7h-5.8c-3.1,0-4.8,1.7-5.5,3.7l-4,10.4
	c-1.6,0.2-4.4,2.1-4.4,5.7v13.3h3.9v4.2c0,5.2,7.4,5.2,7.4,0v-4.2H48h13.3v4.2c0,5.2,7.4,5.2,7.4,0v-4.2h3.9V61.6
	C72.6,58,69.8,56.2,68.2,56z M31.2,66.9c-1.9,0-3.4-1.6-3.4-3.5c0-1.9,1.5-3.5,3.4-3.5c1.9,0,3.4,1.6,3.4,3.5
	C34.6,65.3,33,66.9,31.2,66.9z M48,55.9L48,55.9h-16l3-8.2c0.4-1.2,0.9-2,2.3-2H48h0h10.6c1.3,0,1.9,0.9,2.3,2l3,8.2
	C64,55.9,48,55.9,48,55.9z M64.9,66.9c-1.9,0-3.4-1.6-3.4-3.5c0-1.9,1.5-3.5,3.4-3.5c1.9,0,3.4,1.6,3.4,3.5
	C68.3,65.3,66.8,66.9,64.9,66.9z"/>
<path d="M64.9,63.4"/>
<path class="st1" d="M37.5,17.5c-5.6,0-10.1,4.6-10.1,10.2c0,5.6,4.5,10.2,10.1,10.2c5.6,0,10.1-4.6,10.1-10.2
	C47.6,22.1,43.1,17.5,37.5,17.5z M33,30.4c-1.5,0-2.7-1.2-2.7-2.7c0-1.5,1.2-2.7,2.7-2.7c1.5,0,2.7,1.2,2.7,2.7
	C35.7,29.1,34.5,30.4,33,30.4z"/>
<path class="st1" d="M33,27.7"/>
</svg>
