<?xml version="1.0" encoding="utf-8"?>
<!-- Generator: Adobe Illustrator 19.2.1, SVG Export Plug-In . SVG Version: 6.00 Build 0)  -->
<svg version="1.1" id="Layer_1" xmlns="http://www.w3.org/2000/svg" xmlns:xlink="http://www.w3.org/1999/xlink" x="0px" y="0px"
	 viewBox="0 0 96 96" style="enable-background:new 0 0 96 96;" xml:space="preserve">
<style type="text/css">
	.st0{fill:none;stroke:#C42126;stroke-miterlimit:10;}
	.st1{fill:#C42126;}
</style>
<title>roofgarden</title>
<circle class="st0" cx="48.3" cy="48.3" r="45.3"/>
<path class="st1" d="M80.9,43.2h-1.6l1.2,3c0.8,2.1,1.5,5.7,1.5,8v16.4c0,2.6-2.2,4.8-4.8,4.8s-4.8-2.2-4.8-4.8V68
	c-6.9,0.9-14.3,1.4-22,1.4s-15.1-0.5-22-1.4v2.6c0,2.6-2.2,4.8-4.8,4.8s-4.8-2.2-4.8-4.8V54.2c0-2.3,0.7-5.9,1.5-8l1.2-3h-1.6
	c-2.1,0-3.8-1.7-3.8-3.8s1.7-3.8,3.8-3.8h4.5l3.3-8.5c0.8-2.1,3.3-4.4,5.4-5c0,0,5.7-1.6,17.3-1.6s17.3,1.6,17.3,1.6
	c2.2,0.6,4.6,2.9,5.4,5l3.3,8.5h4.5c2.1,0,3.8,1.7,3.8,3.8C84.7,41.5,83,43.2,80.9,43.2z M54.7,31.7c0,2.4-1.9,4.3-4.3,4.3
	C48,36,46,34,46,31.7c0-2.4,1.9-4.3,4.3-4.3C52.7,27.3,54.7,29.3,54.7,31.7z M37.1,28.3c-2.4,0-4.3,1.9-4.3,4.3s1.9,4.3,4.3,4.3
	c2.4,0,4.3-1.9,4.3-4.3S39.4,28.3,37.1,28.3z M31.8,52.5c0-2.1-1.7-3.8-3.8-3.8s-3.8,1.7-3.8,3.8s1.7,3.8,3.8,3.8
	S31.8,54.6,31.8,52.5z M63.1,54.5c0,0-6.4,2.9-12.8,2.9s-12.8-2.9-12.8-2.9c-2.2-1-2.7-0.4-1,1.4c0,0,6.5,6.8,13.8,6.8
	s13.8-6.8,13.8-6.8C65.8,54.1,65.4,53.5,63.1,54.5z M69.4,41.7c0.7-0.1,1.5-0.3,2.2-0.4c0.7-0.2,1.1-0.8,0.9-1.5
	c-1.3-3.3-2.6-7-3.8-11.1c-0.3-0.8-1.1-1.6-1.8-1.7c-11-1.7-22.1-1.7-33.1,0c-0.8,0.1-1.6,0.9-1.8,1.7c-1.3,4.1-2.6,7.8-3.8,11.1
	c-0.3,0.7,0.1,1.3,0.9,1.5c0.7,0.1,1.5,0.3,2.2,0.4c0.3-1.7,1.8-3.5,3.3-3.7c1.6-0.3,3.3-0.3,5,0c1.5,0.2,3,2.1,3.3,3.8
	c0.1,0.5,0.2,0.9,0.2,1.4c0.3,0,0.7,0,1,0.1c0.1-0.8,0.3-1.6,0.4-2.4c0.3-1.7,1.8-3.5,3.3-3.8c1.6-0.3,3.3-0.3,5,0
	c1.5,0.2,3,2.1,3.3,3.8c0.1,0.8,0.3,1.6,0.4,2.4c0.3,0,0.7,0,1-0.1c0.1-0.5,0.2-0.9,0.2-1.4c0.3-1.7,1.8-3.5,3.3-3.8
	c1.6-0.3,3.3-0.3,5,0C67.6,38.2,69.1,40,69.4,41.7z M76.5,52.5c0-2.1-1.7-3.8-3.8-3.8s-3.8,1.7-3.8,3.8c0,2.1,1.7,3.8,3.8,3.8
	S76.5,54.6,76.5,52.5z M63.6,28.3c-2.4,0-4.3,1.9-4.3,4.3s1.9,4.3,4.3,4.3s4.3-1.9,4.3-4.3C67.9,30.2,66,28.3,63.6,28.3z"/>
</svg>
