<?xml version="1.0" encoding="utf-8"?>
<!-- Generator: Adobe Illustrator 19.2.1, SVG Export Plug-In . SVG Version: 6.00 Build 0)  -->
<svg version="1.1" id="Layer_1" xmlns="http://www.w3.org/2000/svg" xmlns:xlink="http://www.w3.org/1999/xlink" x="0px" y="0px"
	 viewBox="0 0 96 96" style="enable-background:new 0 0 96 96;" xml:space="preserve">
<style type="text/css">
	.st0{fill:none;stroke:#C42126;stroke-miterlimit:10;}
	.st1{fill:#C42126;}
</style>
<title>roofgarden</title>
<circle class="st0" cx="48.3" cy="48.3" r="45.3"/>
<path class="st1" d="M28.8,23.4"/>
<path class="st1" d="M23,23.4"/>
<path class="st1" d="M74.2,31.4c-0.4-0.4-0.9-0.6-1.4-0.6H23.2c-0.5,0-1,0.2-1.4,0.6c-0.4,0.4-0.5,0.9-0.5,1.5l5.9,46.8
	c0.1,0.9,0.9,1.6,1.9,1.6h37.8c0.9,0,1.7-0.7,1.9-1.6l5.9-46.8C74.7,32.4,74.5,31.8,74.2,31.4z M54.4,51.1c-1.6,0.5-2.7,2-2.7,3.7
	c0,0.9,0.3,1.7,0.8,2.4c-0.5,0.7-0.8,1.5-0.8,2.4c0,1.8,1.2,3.2,2.7,3.7c-0.1,0.3-0.1,0.6-0.1,1c0,1,0.4,1.9,1,2.6
	c-1.5,0.8-3.2,1.2-5,1.2c-0.8,0-1.5-0.1-2.2-0.2c-0.7,0.1-1.5,0.2-2.2,0.2c-1.8,0-3.5-0.4-5-1.2c0.6-0.7,1-1.6,1-2.6
	c0-0.3,0-0.7-0.1-1c1.6-0.5,2.7-2,2.7-3.7c0-0.9-0.3-1.7-0.8-2.4c0.5-0.7,0.8-1.5,0.8-2.4c0-1.8-1.2-3.2-2.7-3.7
	c0.1-0.3,0.1-0.6,0.1-1c0-1-0.4-2-1.1-2.7c1.5-0.8,3.2-1.2,5.1-1.2c0.3,0,0.7,0,1,0c0.1-0.4,0.6-4.5,3.4-6.3
	c0.6-0.4,1.4-0.2,1.7,0.4c0.4,0.6,0.2,1.4-0.4,1.7c-1.4,0.9-2,3-2.2,4.2c0.3,0,0.6,0,0.9,0c1.8,0,3.6,0.5,5.1,1.2
	c-0.7,0.7-1.1,1.6-1.1,2.7C54.2,50.5,54.3,50.8,54.4,51.1z"/>
<path class="st1" d="M73.5,22.2H55.2c0,0,0-0.1,0-0.1c0-1.7-1.4-3.1-3.1-3.1h-8.2c-1.7,0-3.1,1.4-3.1,3.1c0,0,0,0.1,0,0.1H22.5
	c-1.7,0-3.1,1.4-3.1,3.1c0,1.7,1.4,3.1,3.1,3.1h51c1.7,0,3.1-1.4,3.1-3.1C76.6,23.6,75.2,22.2,73.5,22.2z"/>
</svg>
