<?xml version="1.0" encoding="utf-8"?>
<!-- Generator: Adobe Illustrator 19.2.1, SVG Export Plug-In . SVG Version: 6.00 Build 0)  -->
<svg version="1.1" id="Layer_1" xmlns="http://www.w3.org/2000/svg" xmlns:xlink="http://www.w3.org/1999/xlink" x="0px" y="0px"
	 viewBox="0 0 96 96" style="enable-background:new 0 0 96 96;" xml:space="preserve">
<style type="text/css">
	.st0{fill:none;stroke:#C42126;stroke-miterlimit:10;}
	.st1{fill:#C42126;}
	.st2{fill:#FFFFFF;}
</style>
<title>roofgarden</title>
<circle class="st0" cx="48.3" cy="48.3" r="45.3"/>
<path class="st1" d="M75.5,73.8"/>
<g>
	<circle class="st1" cx="36.6" cy="67.6" r="4.5"/>
	<circle class="st1" cx="69.7" cy="67.6" r="4.5"/>
	<path class="st1" d="M80.7,59.3h-1.5c-0.5,0-0.8-0.4-0.8-0.8V48.1c0-0.1,0-0.2-0.1-0.3l-5.8-12.1c-0.1-0.3-0.4-0.5-0.8-0.5h-9.2
		c-0.5,0-0.8,0.4-0.8,0.8v23.3H17.6c-0.5,0-0.8,0.4-0.8,0.8v6.1h12c0.4,0,0.7-0.2,0.8-0.6c0.9-3.1,3.7-5.4,7-5.4
		c3.4,0,6.2,2.3,7,5.4c0.1,0.3,0.4,0.6,0.8,0.6h17.4c0.4,0,0.7-0.2,0.8-0.6c0.9-3.1,3.7-5.4,7-5.4c3.4,0,6.2,2.3,7,5.4
		c0.1,0.3,0.4,0.6,0.8,0.6h3.2c0.5,0,0.8-0.4,0.8-0.8v-5.3C81.5,59.6,81.1,59.3,80.7,59.3z M74.2,48h-9.6c-0.3,0-0.6-0.3-0.6-0.6
		v-9.6c0-0.3,0.3-0.6,0.6-0.6H70c0.2,0,0.4,0.1,0.5,0.3l4.2,9.6C74.9,47.5,74.6,48,74.2,48z"/>
	<path class="st1" d="M55.8,30.2l4.9-5.7c0.3-0.4,0.7-0.6,1.2-0.6h8c0.8,0,1.5,0.5,1.7,1.3c0.2,1-0.6,1.9-1.6,1.9h-6.6
		c-0.5,0-1,0.2-1.3,0.6l-3.2,3.8c-0.3,0.3-0.4,0.7-0.4,1.1v21.7c0,0.9-0.8,1.7-1.7,1.7H18.3c-0.7,0-1.4-0.5-1.6-1.2L10.6,33
		c-0.3-1.1,0.5-2.1,1.6-2.1h42.3C55,30.8,55.4,30.6,55.8,30.2z"/>
</g>
<path class="st2" d="M33.1,46.1l0.8,0.5c0.1,0,0.2-0.1,0.2-0.2c0-0.1,0-0.2-0.1-0.3L32.3,43l-3.7,0.1c-0.2,0-0.2,0.1-0.2,0.3
	c0,0,0.1,0.1,0.2,0.2l0.8,0.5l-0.8,1.3c-0.2,0.4-0.3,0.7-0.3,0.9c0,0.2,0.1,0.4,0.2,0.7l2.5,4.4c-0.1-0.3-0.1-0.5-0.1-0.8
	c0-0.4,0.1-0.9,0.4-1.3L33.1,46.1L33.1,46.1z"/>
<path class="st2" d="M34.1,43.5l2.1-3.2c-0.8-1.8-1.6-2.7-2.5-2.7c-0.5,0-0.9,0.1-1.1,0.4l-2,3.1L34.1,43.5L34.1,43.5z"/>
<path class="st2" d="M32.4,52.3h4v-4.2h-3.9c-0.5,0.7-0.8,1.1-0.9,1.4c-0.2,0.4-0.3,0.8-0.3,1.2C31.4,51.7,31.7,52.3,32.4,52.3
	L32.4,52.3z"/>
<path class="st2" d="M40.7,42.8l1.8-3c0.1-0.1,0.1-0.2,0.1-0.3c0-0.1,0-0.2-0.1-0.2c0,0,0,0-0.2,0.1l-0.8,0.4l-0.7-1.5
	c-0.3-0.7-1-1-2-1H34c0.6,0.2,0.9,0.3,1.2,0.5c0.5,0.4,1,1.1,1.5,2.1l0.9,1.9l-0.7,0.3c-0.1,0-0.1,0.1-0.1,0.2
	c0,0.1,0.1,0.2,0.2,0.2L40.7,42.8L40.7,42.8z"/>
<path class="st2" d="M42.5,51.6l2.6-4.7c-0.4,0.4-0.8,0.7-1.3,0.9c-0.4,0.1-0.9,0.2-1.5,0.2h-2.9v-0.6c0-0.2-0.1-0.4-0.2-0.4
	c-0.1,0-0.1,0-0.2,0.1l-1.8,3.2l1.9,2.9c0.1,0.2,0.3,0.3,0.4,0.3c0.1,0,0.2-0.1,0.2-0.2v-1h1.6C41.8,52.3,42.2,52.1,42.5,51.6
	L42.5,51.6z"/>
<path class="st2" d="M41.3,47.4h1.7c0.4,0,0.8-0.2,1.3-0.5c0.5-0.4,0.7-0.8,0.7-1.2c0-0.2-0.1-0.4-0.2-0.6l-2.1-3.1L39.3,44
	L41.3,47.4L41.3,47.4z"/>
</svg>
