<?xml version="1.0" encoding="utf-8"?>
<!-- Generator: Adobe Illustrator 19.2.1, SVG Export Plug-In . SVG Version: 6.00 Build 0)  -->
<svg version="1.1" id="Layer_1" xmlns="http://www.w3.org/2000/svg" xmlns:xlink="http://www.w3.org/1999/xlink" x="0px" y="0px"
	 viewBox="0 0 96 96" style="enable-background:new 0 0 96 96;" xml:space="preserve">
<style type="text/css">
	.st0{fill:none;stroke:#C42126;stroke-miterlimit:10;}
	.st1{fill:#C42126;}
</style>
<title>roofgarden</title>
<circle class="st0" cx="48.3" cy="48.3" r="45.3"/>
<g sketch:type="MSPage">
	<g transform="translate(-180.000000, -45.000000)" sketch:type="MSArtboardGroup">
		<path sketch:type="MSShapeGroup" class="st1" d="M238.4,118.6l-1.1-10.2l0.6,1.4c1.7,3.8,5.2,4.3,7.8,1l10.8-13.7
			c0.8-1,1-2.7,0.5-3.8l-0.5-1.4l9-10.4c0.4-0.5,0.4-1.2-0.1-1.6c-0.5-0.4-1.2-0.4-1.6,0.1l-8.9,10.3l-1.8-0.3
			c-1.2-0.2-2.8,0.5-3.6,1.5l-6,7.7l-3-7.9c-0.9-2.3-3.6-4.2-6.1-4.2h-19.9c-2.4,0-5.2,1.9-6.1,4.2l-7.6,19.7
			c-0.4,1.2-0.2,2.9,0.6,3.8l0.5,0.6c0.8,1,2.4,1.6,3.6,1.4l0.7-0.1c1.2-0.2,2.6-1.3,3-2.4l2.3-5.9l-1.1,10.2H238.4z M240.4,120.8
			h2.9c0.6,0,1.1,0.5,1.1,1.1v2.3c0,0.6-0.5,1.1-1.1,1.1h-38.1c-0.6,0-1.1-0.5-1.1-1.1v-2.3c0-0.6,0.5-1.1,1.1-1.1h4H240.4z
			 M224.3,83.8c5,0,9-4,9-9c0-5-4-9-9-9c-5,0-9,4-9,9C215.3,79.8,219.3,83.8,224.3,83.8z"/>
	</g>
</g>
</svg>
