<?xml version="1.0" encoding="utf-8"?>
<!-- Generator: Adobe Illustrator 19.2.1, SVG Export Plug-In . SVG Version: 6.00 Build 0)  -->
<svg version="1.1" id="Layer_1" xmlns="http://www.w3.org/2000/svg" xmlns:xlink="http://www.w3.org/1999/xlink" x="0px" y="0px"
	 viewBox="0 0 96 96" style="enable-background:new 0 0 96 96;" xml:space="preserve">
<style type="text/css">
	.st0{fill:none;stroke:#C42126;stroke-width:2;stroke-miterlimit:10;}
	.st1{fill:#C42126;}
</style>
<title>roofgarden</title>
<circle class="st0" cx="48.3" cy="48.3" r="45.3"/>
<g transform="translate(0,-270.54165)">
	<path class="st1" d="M43.8,282.8v30l-11.6,9.4L17,336.7c-0.3,0.3-0.5,0.7-0.5,1.1l0.1,3.7c0,2,3.1,2,3,0l0-3.1l3.1-3
		c0.9,1,1.8,1.9,3,2.8l-2.4,3.4c-0.2,0.3-0.3,0.6-0.3,0.9l0.1,3.7c0,2,3.1,2,3,0l0-3.2l2.1-3.1c2,1.2,4.2,2.1,6.6,2.9l-1.2,3.4
		c-0.1,0.2-0.1,0.3-0.1,0.5l0.1,3.7c0.1,2,3,1.9,3,0l0-3.5l1.1-3.3c2.9,0.7,6,1.1,9.2,1.1l0,3.3l0.1,3.7c0.1,2,3,1.9,3,0l-0.1-3.7
		l0-3.3c3.2-0.1,6.3-0.5,9.1-1.2l1.2,3.4l0,3.5c0,2,3.1,2,3,0l0-3.7c0-0.2,0-0.3-0.1-0.5l-1.3-3.4c2.3-0.8,4.5-1.7,6.4-2.8l2.2,3.1
		l0,3.2c0.1,2,3,1.9,3,0l-0.1-3.7c0-0.3-0.1-0.6-0.3-0.9l-2.5-3.4c1-0.8,2-1.7,2.8-2.6l3.2,3l0,3.1c-0.1,2.2,3.2,2.1,3,0l0-3.7
		c0-0.4-0.2-0.8-0.5-1.1l-14.4-13.3l-12.3-10.7v-30C51.3,280.8,45.3,280.8,43.8,282.8L43.8,282.8z M62,324.7l9.5,8.8
		c-0.7,0.8-1.4,1.5-2.3,2.2l-7.8-10.8C61.6,324.8,61.8,324.7,62,324.7z M33.7,324.8c0.3,0.1,0.6,0.2,0.9,0.3l-7.3,10.5
		c-1-0.7-1.8-1.5-2.5-2.3L33.7,324.8z M58.3,325.8l8.3,11.5c-1.7,0.9-3.6,1.8-5.6,2.5l-4.9-13.4C56.9,326.2,57.6,326,58.3,325.8
		L58.3,325.8z M37.8,326c0.9,0.2,1.7,0.4,2.6,0.5l-4.5,13.3c-2.2-0.7-4.1-1.5-5.9-2.5L37.8,326z M53,326.9l5,13.7
		c-2.5,0.6-5.2,1-8.1,1.1l-0.2-14.5C50.9,327.1,52,327,53,326.9L53,326.9z M43.4,327c1.2,0.1,2.3,0.2,3.3,0.3l0.2,14.5
		c-2.9-0.1-5.6-0.5-8.2-1L43.4,327z"/>
</g>
</svg>
