<?xml version="1.0" encoding="utf-8"?>
<!-- Generator: Adobe Illustrator 19.2.1, SVG Export Plug-In . SVG Version: 6.00 Build 0)  -->
<svg version="1.1" id="Layer_1" xmlns="http://www.w3.org/2000/svg" xmlns:xlink="http://www.w3.org/1999/xlink" x="0px" y="0px"
	 viewBox="0 0 96 96" style="enable-background:new 0 0 96 96;" xml:space="preserve">
<style type="text/css">
	.st0{fill:none;stroke:#C42126;stroke-width:2;stroke-miterlimit:10;}
	.st1{fill:#C42126;}
</style>
<title>roofgarden</title>
<circle class="st0" cx="48.3" cy="48.3" r="45.3"/>
<g transform="translate(0,-952.36218)">
	<path class="st1" d="M35.9,967c-0.5,0-0.9,0.3-1.1,0.7l-11.2,17.9c-0.4,0.7-0.2,1.6,0.5,2.1c0.2,0.1,0.5,0.2,0.8,0.2h1.7l-8.2,12.6
		c-0.5,0.7-0.3,1.6,0.4,2.1c0.2,0.2,0.5,0.2,0.8,0.2h2.5l-6,9.7c-0.4,0.7-0.2,1.6,0.5,2.1c0.2,0.1,0.5,0.2,0.8,0.2h13.9l-3.2,5.2
		c-0.4,0.7-0.2,1.6,0.5,2.1c0.2,0.1,0.5,0.2,0.8,0.2h3v9c0,0.8,0.7,1.5,1.5,1.5h4.5c0.8,0,1.5-0.7,1.5-1.5v-9h4.5v10.5
		c0,0.8,0.7,1.5,1.5,1.5h4.5c0.8,0,1.5-0.7,1.5-1.5v-10.5h4.5v9c0,0.8,0.7,1.5,1.5,1.5h4.5c0.8,0,1.5-0.7,1.5-1.5v-9h3
		c0.8,0,1.5-0.7,1.5-1.5c0-0.3-0.1-0.6-0.2-0.8l-3.2-5.2h13.9c0.8,0,1.5-0.7,1.5-1.5c0-0.3-0.1-0.6-0.2-0.8l-6-9.7h2.5
		c0.8,0,1.5-0.7,1.5-1.5c0-0.3-0.1-0.6-0.2-0.8l-8.2-12.6h1.7c0.8,0,1.5-0.7,1.5-1.5c0-0.3-0.1-0.6-0.2-0.8l-11.2-17.9
		c-0.3-0.5-0.8-0.8-1.4-0.7c-0.5,0-0.9,0.3-1.1,0.7L51.6,979l-2.4-3.8c-0.3-0.5-0.8-0.8-1.4-0.7c-0.5,0-0.9,0.3-1.1,0.7l-2.4,3.8
		l-7.1-11.3C37,967.2,36.5,967,35.9,967z M36,971.3l6.6,10.5l-7.1,11.3c-0.4,0.7-0.2,1.6,0.5,2.1c0.2,0.1,0.5,0.2,0.8,0.2h1.7
		l-8.2,12.6c-0.5,0.7-0.3,1.6,0.4,2.1c0.2,0.2,0.5,0.2,0.8,0.2h2.5l-0.9,1.5H20.1l6-9.7c0.4-0.7,0.2-1.6-0.5-2.1
		c-0.2-0.1-0.5-0.2-0.8-0.2h-2.5l8.2-12.7c0.4-0.7,0.2-1.6-0.5-2.1c-0.2-0.1-0.5-0.2-0.8-0.2h-1.8L36,971.3z M60,971.3l8.5,13.6
		h-1.8c-0.8,0-1.5,0.7-1.5,1.5c0,0.3,0.1,0.6,0.2,0.8l8.2,12.7h-2.5c-0.8,0-1.5,0.7-1.5,1.5c0,0.3,0.1,0.6,0.2,0.8l6,9.7H62.8
		l-0.9-1.5h2.5c0.8,0,1.5-0.7,1.5-1.5c0-0.3-0.1-0.6-0.2-0.8l-8.2-12.6h1.7c0.8,0,1.5-0.7,1.5-1.5c0-0.3-0.1-0.6-0.2-0.8l-7.1-11.3
		L60,971.3z M48,978.8l8.5,13.6h-1.8c-0.8,0-1.5,0.7-1.5,1.5c0,0.3,0.1,0.6,0.2,0.8l8.2,12.7h-2.5c-0.8,0-1.5,0.7-1.5,1.5
		c0,0.3,0.1,0.6,0.2,0.8l6,9.7H32l6-9.7c0.4-0.7,0.2-1.6-0.5-2.1c-0.2-0.1-0.5-0.2-0.8-0.2h-2.5l8.2-12.7c0.4-0.7,0.2-1.6-0.5-2.1
		c-0.2-0.1-0.5-0.2-0.8-0.2h-1.8L48,978.8z M35.3,1022.3h1.5v7.5h-1.5V1022.3z M47.3,1022.3h1.5v9h-1.5V1022.3z M59.2,1022.3h1.5
		v7.5h-1.5V1022.3z"/>
</g>
</svg>
