<?xml version="1.0" encoding="utf-8"?>
<!-- Generator: Adobe Illustrator 19.2.1, SVG Export Plug-In . SVG Version: 6.00 Build 0)  -->
<svg version="1.1" id="Layer_1" xmlns="http://www.w3.org/2000/svg" xmlns:xlink="http://www.w3.org/1999/xlink" x="0px" y="0px"
	 viewBox="0 0 96 96" style="enable-background:new 0 0 96 96;" xml:space="preserve">
<style type="text/css">
	.st0{fill:none;stroke:#C42126;stroke-miterlimit:10;}
	.st1{fill:#C42126;}
	.st2{fill:#FFFFFF;}
</style>
<title>roofgarden</title>
<circle class="st0" cx="48.3" cy="48.3" r="45.3"/>
<path class="st1" d="M24,22.4"/>
<g sketch:type="MSPage">
	<path sketch:type="MSShapeGroup" class="st1" d="M77,62.8c0,0,1.7,0.1,1.7,1.5c0,1.4-1.7,1.4-1.7,1.4H14.3c0,0-1.6,0-1.6-1.4
		c0-1.4,2-1.5,2-1.5V51.3c0,0,1.2-12.7,7.4-12.5c2.6-0.2,10,0,10,0v2.9h-2.2v9H32v12L77,62.8z M17.1,50.7c0.7-3.8,2.1-9,5.1-9H27v9
		H17.1L17.1,50.7z M33.6,59.7h42v-36h-42V59.7z M27.6,73.2c6,0,6-6,6-6l-3.8,0c0,0,0,2.3-2.3,2.3s-2.3-2.3-2.3-2.3h-3.7
		C21.6,67.2,21.6,73.2,27.6,73.2L27.6,73.2z M57.6,73.2c6,0,6-6,6-6l-3.8,0c0,0,0,2.3-2.3,2.3c-2.3,0-2.3-2.3-2.3-2.3h-3.7
		C51.6,67.2,51.6,73.2,57.6,73.2L57.6,73.2z M69.7,73.2c6,0,6-6,6-6l-3.8,0c0,0,0,2.3-2.3,2.3c-2.3,0-2.3-2.3-2.3-2.3h-3.7
		C63.7,67.2,63.7,73.2,69.7,73.2L69.7,73.2z"/>
</g>
<g>
	<path class="st2" d="M49.7,44.2l1.1,0.7c0.2,0,0.3-0.1,0.3-0.2c0-0.1,0-0.2-0.1-0.4l-2.4-4.5l-5.3,0.1c-0.2,0-0.4,0.1-0.4,0.4
		c0,0.1,0.1,0.1,0.2,0.2l1.1,0.7l-1.2,1.8c-0.3,0.5-0.5,0.9-0.5,1.3c0,0.3,0.1,0.6,0.3,1l3.6,6.3c-0.1-0.4-0.1-0.8-0.1-1.1
		c0-0.6,0.2-1.3,0.6-1.9L49.7,44.2L49.7,44.2z"/>
	<path class="st2" d="M51.1,40.5l3-4.6c-1.1-2.5-2.3-3.8-3.5-3.8c-0.8,0-1.3,0.2-1.5,0.6l-2.8,4.5L51.1,40.5L51.1,40.5z"/>
	<path class="st2" d="M48.7,53h5.7v-6h-5.5c-0.7,1-1.1,1.6-1.3,2c-0.3,0.5-0.4,1.1-0.4,1.7C47.2,52.2,47.7,53,48.7,53L48.7,53z"/>
	<path class="st2" d="M60.5,39.4l2.5-4.3c0.1-0.1,0.1-0.3,0.1-0.5c0-0.2-0.1-0.3-0.2-0.3c0,0-0.1,0-0.3,0.1L61.5,35l-1.1-2.1
		c-0.5-0.9-1.4-1.4-2.8-1.4H51c0.8,0.2,1.4,0.5,1.6,0.7c0.7,0.5,1.4,1.5,2.1,3L56,38l-1,0.5c-0.1,0-0.1,0.1-0.1,0.3
		c0,0.2,0.1,0.3,0.3,0.3L60.5,39.4L60.5,39.4z"/>
	<path class="st2" d="M63,52.1l3.7-6.7c-0.5,0.6-1.1,1-1.8,1.3c-0.5,0.2-1.3,0.3-2.2,0.3h-4.1V46c0-0.3-0.1-0.5-0.2-0.5
		c-0.1,0-0.2,0-0.3,0.1l-2.6,4.5l2.7,4.2c0.2,0.3,0.4,0.4,0.5,0.4c0.1,0,0.2-0.1,0.2-0.2V53h2.3C62.1,53,62.7,52.7,63,52.1L63,52.1z
		"/>
	<path class="st2" d="M61.4,46h2.5c0.6,0,1.2-0.3,1.8-0.8c0.7-0.5,1-1.1,1-1.7c0-0.3-0.1-0.6-0.3-0.8l-2.9-4.5l-5,2.9L61.4,46
		L61.4,46z"/>
</g>
</svg>
