<?xml version="1.0" encoding="utf-8"?>
<!-- Generator: Adobe Illustrator 19.2.1, SVG Export Plug-In . SVG Version: 6.00 Build 0)  -->
<svg version="1.1" id="Layer_1" xmlns="http://www.w3.org/2000/svg" xmlns:xlink="http://www.w3.org/1999/xlink" x="0px" y="0px"
	 viewBox="0 0 96 96" style="enable-background:new 0 0 96 96;" xml:space="preserve">
<style type="text/css">
	.st0{fill:none;stroke:#C42126;stroke-miterlimit:10;}
	.st1{fill:#C42126;}
	.st2{fill:#CB3D41;}
</style>
<title>roofgarden</title>
<circle class="st0" cx="48.3" cy="48.3" r="45.3"/>
<path class="st1" d="M51.7,10.6H37.2v32.3h6.6V32.3h7.6c5.8,0,11.3-4.6,11.3-10.8C62.7,16,58.1,10.6,51.7,10.6z M51.3,26.3h-7.4
	v-9.7h7.5c2.4,0,4.9,2.1,4.9,4.9C56.2,24.4,54,26.3,51.3,26.3z"/>
<g>
	<path class="st1" d="M36.1,77.2L36.1,77.2C36.1,77.2,36.1,77.2,36.1,77.2L36.1,77.2c-1.8,0-3.3-1.5-3.3-3.3l0,0c0,0,0,0,0,0l0,0
		c0-1.8,1.5-3.2,3.3-3.2l0,0c1.8,0,3.3,1.5,3.3,3.3l0,0c0,0,0,0,0,0l0,0C39.4,75.8,37.9,77.2,36.1,77.2L36.1,77.2L36.1,77.2z
		 M36.1,75.1C36.1,75.1,36.1,75.1,36.1,75.1L36.1,75.1c0.6,0,1.1-0.5,1.1-1.1l0,0c0,0,0,0,0,0l0,0c0-0.6-0.5-1.1-1.1-1.1l0,0
		c-0.6,0-1.1,0.5-1.1,1.1l0,0v0v0C35,74.6,35.5,75.1,36.1,75.1L36.1,75.1L36.1,75.1L36.1,75.1z"/>
	<path class="st1" d="M65.3,77.2L65.3,77.2C65.3,77.2,65.3,77.2,65.3,77.2L65.3,77.2c-1.8,0-3.3-1.5-3.3-3.3l0,0c0,0,0,0,0,0l0,0
		l0,0c0-1.8,1.5-3.3,3.3-3.3l0,0c1.8,0,3.3,1.5,3.3,3.3l0,0l0,0v0c0,0,0,0,0,0l0,0C68.6,75.8,67.1,77.2,65.3,77.2L65.3,77.2
		L65.3,77.2z M65.3,75.1C65.3,75.1,65.3,75.1,65.3,75.1L65.3,75.1c0.6,0,1.1-0.5,1.1-1.1l0,0c0,0,0,0,0,0l0,0c0-0.6-0.5-1.1-1.1-1.1
		l0,0c-0.6,0-1.1,0.5-1.1,1.1l0,0v0C64.2,74.6,64.7,75.1,65.3,75.1L65.3,75.1L65.3,75.1L65.3,75.1z"/>
	<path class="st1" d="M78.2,57.9l-11.2,0l-7.1,0l-7.1,0l-7.1,0l-7.1,0L25,57.9c-0.5,0-0.8,0.3-0.8,0.8l-0.3,7.7L23.1,67v3.8l0,2.9
		c0,0.8,0.6,1.2,1.1,1.2h8.3c-0.1-0.3-0.1-0.6-0.1-0.9c0,0,0,0,0,0c0-2,1.7-3.7,3.7-3.7c2,0,3.7,1.7,3.7,3.7v0c0,0.3,0,0.6-0.1,0.9
		H52l9.7,0c-0.1-0.3-0.1-0.6-0.1-0.9v0c0-2,1.7-3.7,3.7-3.7c2,0,3.7,1.7,3.7,3.7v0c0,0.3,0,0.7-0.1,1l12.3-2.4l0.1-11.9
		C81.2,59.2,79.5,57.8,78.2,57.9z M30.3,72c0,0.5-0.4,0.8-0.8,0.8h-2.1c-0.5,0-0.8-0.4-0.8-0.8V61.7c0-0.5,0.4-0.8,0.8-0.8h2.1
		c0.5,0,0.8,0.4,0.8,0.8L30.3,72L30.3,72z M42.9,65c0,0.5-0.4,0.8-0.8,0.8h-8.5c-0.5,0-0.8-0.4-0.8-0.8v-3.4c0-0.5,0.4-0.8,0.8-0.8
		h8.5c0.5,0,0.8,0.4,0.8,0.8V65z M55,65c0,0.5-0.4,0.8-0.8,0.8h-8.5c-0.5,0-0.8-0.4-0.8-0.8v-3.4c0-0.5,0.4-0.8,0.8-0.8h8.5
		c0.5,0,0.8,0.4,0.8,0.8V65z M67.1,65c0,0.5-0.4,0.8-0.8,0.8h-8.5c-0.5,0-0.8-0.4-0.8-0.8v-3.4c0-0.5,0.4-0.8,0.8-0.8h8.5
		c0.5,0,0.8,0.4,0.8,0.8C67.1,61.6,67.1,65,67.1,65z M79.2,65c0,0.5-0.4,0.8-0.8,0.8h-8.5c-0.5,0-0.8-0.4-0.8-0.8v-3.4
		c0-0.5,0.4-0.8,0.8-0.8h6.9c1.4,0,2.4,0.9,2.4,1.7L79.2,65L79.2,65z"/>
</g>
<g>
	<g>
		<g>
			<g>
				<polygon class="st2" points="35.1,46 48.3,54.1 61.5,46 				"/>
			</g>
		</g>
	</g>
</g>
</svg>
