<?xml version="1.0" encoding="utf-8"?>
<!-- Generator: Adobe Illustrator 19.2.1, SVG Export Plug-In . SVG Version: 6.00 Build 0)  -->
<svg version="1.1" id="Layer_1" xmlns="http://www.w3.org/2000/svg" xmlns:xlink="http://www.w3.org/1999/xlink" x="0px" y="0px"
	 viewBox="0 0 96 96" style="enable-background:new 0 0 96 96;" xml:space="preserve">
<style type="text/css">
	.st0{fill:none;stroke:#C42126;stroke-miterlimit:10;}
	.st1{fill:#C42126;}
	.st2{fill:#CB3D41;}
</style>
<title>roofgarden</title>
<circle class="st0" cx="48.3" cy="48.3" r="45.3"/>
<path class="st1" d="M52.8,10.6H40.9V37h5.4v-8.7h6.2c4.7,0,9.3-3.8,9.3-8.8C61.9,15,58,10.6,52.8,10.6z M52.5,23.5h-6.1v-8h6.1
	c2,0,4,1.7,4,4C56.6,21.9,54.7,23.5,52.5,23.5z"/>
<g>
	<g>
		<g>
			<g>
				<polygon class="st2" points="35.5,39.9 48.7,48.1 61.8,39.9 				"/>
			</g>
		</g>
	</g>
</g>
<path class="st1" d="M68.8,66.1h-1.1l0.8,2c0.5,1.4,1,3.7,1,5.2v10.8c0,1.7-1.4,3.2-3.2,3.2c-1.7,0-3.2-1.4-3.2-3.2v-1.7
	c-4.6,0.6-9.4,0.9-14.4,0.9s-9.9-0.3-14.4-0.9v1.7c0,1.7-1.4,3.2-3.2,3.2c-1.7,0-3.2-1.4-3.2-3.2V73.3c0-1.5,0.4-3.8,1-5.2l0.8-2
	h-1.1c-1.4,0-2.5-1.1-2.5-2.5c0-1.4,1.1-2.5,2.5-2.5h3l2.2-5.6c0.5-1.4,2.1-2.9,3.6-3.3c0,0,3.7-1.1,11.4-1.1s11.4,1.1,11.4,1.1
	c1.4,0.4,3,1.9,3.6,3.3l2.2,5.6h3c1.4,0,2.5,1.1,2.5,2.5S70.1,66.1,68.8,66.1z M51.5,58.5c0,1.6-1.3,2.8-2.8,2.8s-2.8-1.3-2.8-2.8
	c0-1.6,1.3-2.8,2.8-2.8S51.5,57,51.5,58.5z M40,56.3c-1.6,0-2.8,1.3-2.8,2.8S38.4,62,40,62c1.6,0,2.8-1.3,2.8-2.8S41.5,56.3,40,56.3
	z M36.5,72.2c0-1.4-1.1-2.5-2.5-2.5s-2.5,1.1-2.5,2.5c0,1.4,1.1,2.5,2.5,2.5S36.5,73.6,36.5,72.2z M57.1,73.5c0,0-4.2,1.9-8.4,1.9
	s-8.4-1.9-8.4-1.9c-1.5-0.7-1.8-0.2-0.6,0.9c0,0,4.3,4.5,9,4.5s9-4.5,9-4.5C58.8,73.3,58.5,72.9,57.1,73.5z M61.2,65.1
	c0.5-0.1,1-0.2,1.5-0.3c0.5-0.1,0.8-0.5,0.6-1c-0.8-2.2-1.7-4.6-2.5-7.3c-0.2-0.5-0.7-1.1-1.2-1.1c-7.2-1.1-14.5-1.1-21.7,0
	c-0.5,0.1-1,0.6-1.2,1.1c-0.8,2.7-1.7,5.1-2.5,7.3c-0.2,0.4,0.1,0.9,0.6,1c0.5,0.1,1,0.2,1.5,0.3c0.2-1.1,1.2-2.3,2.2-2.4
	c1.1-0.2,2.2-0.2,3.3,0c1,0.2,2,1.4,2.2,2.5c0.1,0.3,0.1,0.6,0.2,0.9c0.2,0,0.4,0,0.7,0c0.1-0.5,0.2-1,0.3-1.6
	c0.2-1.1,1.2-2.3,2.2-2.5c1.1-0.2,2.2-0.2,3.3,0c1,0.2,2,1.4,2.2,2.5c0.1,0.5,0.2,1.1,0.3,1.6c0.2,0,0.4,0,0.7,0
	c0.1-0.3,0.1-0.6,0.2-0.9c0.2-1.1,1.2-2.3,2.2-2.5c1.1-0.2,2.2-0.2,3.3,0C60,62.8,61,64,61.2,65.1z M65.8,72.2
	c0-1.4-1.1-2.5-2.5-2.5s-2.5,1.1-2.5,2.5c0,1.4,1.1,2.5,2.5,2.5S65.8,73.6,65.8,72.2z M57.4,56.3c-1.6,0-2.8,1.3-2.8,2.8
	s1.3,2.8,2.8,2.8s2.8-1.3,2.8-2.8C60.2,57.6,59,56.3,57.4,56.3z"/>
</svg>
