<?xml version="1.0" encoding="utf-8"?>
<!-- Generator: Adobe Illustrator 19.2.1, SVG Export Plug-In . SVG Version: 6.00 Build 0)  -->
<svg version="1.1" id="Layer_1" xmlns="http://www.w3.org/2000/svg" xmlns:xlink="http://www.w3.org/1999/xlink" x="0px" y="0px"
	 viewBox="0 0 96 96" style="enable-background:new 0 0 96 96;" xml:space="preserve">
<style type="text/css">
	.st0{fill:none;stroke:#C42126;stroke-miterlimit:10;}
	.st1{fill:#C42126;}
	.st2{fill:#CB3D41;}
</style>
<title>roofgarden</title>
<circle class="st0" cx="48.3" cy="48.3" r="45.3"/>
<path class="st1" d="M52.8,10.6H40.9V37h5.4v-8.7h6.2c4.7,0,9.3-3.8,9.3-8.8C61.9,15,58,10.6,52.8,10.6z M52.5,23.5h-6.1v-8h6.1
	c2,0,4,1.7,4,4C56.6,21.9,54.7,23.5,52.5,23.5z"/>
<g>
	<g>
		<g>
			<g>
				<polygon class="st2" points="35.5,41.9 48.7,50.1 61.8,41.9 				"/>
			</g>
		</g>
	</g>
</g>
<g>
	<g>
		<path class="st1" d="M29.7,84c0.3,0.3,0.7,0.4,1.2,0.4c0.5,0,1.1-0.2,1.4-0.7l5.3-6.5c0.3-0.3,0.4-0.8,0.4-1.2l-4.8-4.3l1,3.9
			l-4.7,5.7C28.8,82.3,28.9,83.4,29.7,84z"/>
		<path class="st1" d="M39.9,64.7c0.2,0.4,0.6,0.6,1,0.7l4.9,0.6c0.1,0,0.1,0,0.2,0c0.7,0,1.3-0.5,1.4-1.2c0.1-0.7-0.4-1.4-1.2-1.5
			l-4.2-0.6l-2.8-5c0,0,0,0,0,0c-0.2-0.4-0.5-0.7-0.9-0.9c-0.3-0.1-0.7-0.2-1.1-0.2c-0.1,0-0.2,0-0.2,0l-6,0.5c-0.6,0-1,0.4-1.2,1
			l-1.9,6.1c-0.2,0.7,0.2,1.5,0.9,1.7c0.1,0,0.3,0.1,0.4,0.1c0.6,0,1.1-0.4,1.3-1l1.6-5.2l1.5-0.1c-1.3,2.7-1.7,4.7-1.8,7.9
			c0.1,1.2,0.5,1.9,1,2.4c0.1,0.1,0.1,0.2,0.2,0.2l6.4,5.8l0.5,7c0.1,1,0.9,1.7,1.8,1.7c0,0,0.1,0,0.1,0c1-0.1,1.8-0.9,1.7-1.9
			l-0.5-7.8c0-0.5-0.2-0.9-0.6-1.2l-5.1-4.6c0-2.2,0.8-4.8,1.4-6.9L39.9,64.7z"/>
		<path class="st1" d="M37.9,52.3c-0.6,1.7,0.2,3.5,1.9,4.2c1.7,0.6,3.5-0.2,4.2-1.9c0.6-1.7-0.2-3.5-1.9-4.2
			C40.4,49.8,38.5,50.7,37.9,52.3z"/>
	</g>
	<g>
		<path class="st1" d="M55.3,82.2h-2.5c-0.1,0-0.2,0.1-0.2,0.3V83c0,0.2,0.1,0.3,0.2,0.3h2.5c0.1,0,0.2-0.1,0.2-0.3v-0.5
			C55.5,82.3,55.4,82.2,55.3,82.2z"/>
		<circle class="st1" cx="58.7" cy="52.3" r="2.4"/>
		<path class="st1" d="M63.4,76.3c1.2,0,1.3-1.1,1.3-1.1s0-4.9-0.2-5.3c-0.1-0.3-2.5-4.3-2.5-4.3h-2.2v1.3c0,0,2.3,3.4,2.4,3.7
			c0.1,0.2,0.1,4.6,0.1,4.6S62.3,76.3,63.4,76.3z"/>
		<path class="st1" d="M52.8,80.6c0.1,0.6,0.5,1.1,1.1,1.1c0.7,0,1.3-0.5,1.3-1.3v-0.4v-7.8l2.6-5.5v-1.3h-2.1c0,0-2.9,5.7-2.9,6.1
			c-0.1,0.3,0,6,0,8.7c0,0,0,0.1,0,0.1C52.7,80.5,52.8,80.6,52.8,80.6z"/>
		<path class="st1" d="M67.2,64.3c0,0-3.9-7.2-4.5-8.5c-0.3-0.6-0.8-0.6-2.1-0.6c0,0,0,0,0,0H59h0h-0.2h0h-0.2h0H57c0,0,0,0,0,0
			c-1.3,0-1.8,0-2.1,0.6c-0.6,1.3-4.5,8.4-4.5,8.5c-0.2,0.4,0,0.9,0.4,1.1c0.2,0.1,0.3,0.1,0.5,0.1c0.3,0,0.7-0.2,0.8-0.5l3.7-6.9
			v5.8h2.7h0h0.2h0h0.2h0h2.7v-5.8l3.7,6.9c0.2,0.3,0.5,0.5,0.8,0.5c0.2,0,0.4,0,0.5-0.1C67.1,65.3,67.3,64.7,67.2,64.3z"/>
		<path class="st1" d="M58.8,69.8L58.8,69.8h-0.1c-0.3,0-0.6,0.2-0.6,0.5v7.5v0.8V79v0.6v7.7c0,0.3,0.3,0.5,0.6,0.5h0.1h0.1
			c0.3,0,0.6-0.2,0.6-0.5v-7.6V79v-0.4v-0.1v-8.1C59.4,70.1,59.2,69.8,58.8,69.8z"/>
		<path class="st1" d="M58.8,64.2H53c0,0-0.3,0.6-0.5,0.8l5.7,0v3.3c-1,0.2-1.8,1.1-1.8,2.2v8.6h1v-8.9c0-0.5,0.4-1,0.9-1.1
			c0.1,0,0.2,0,0.4,0c0.1,0,0.2,0,0.3,0c0.5,0.1,0.9,0.6,0.9,1.1v8.9h1v-8.6c0-1.1-0.7-2-1.7-2.2v0v-3.3l5.7,0
			c-0.1-0.2-0.5-0.8-0.5-0.8L58.8,64.2L58.8,64.2z"/>
		<path class="st1" d="M64.7,76.7h-2.5C62,76.7,62,76.9,62,77v0.5c0,0.2,0.1,0.3,0.2,0.3h2.5c0.1,0,0.2-0.1,0.2-0.3V77
			C64.9,76.9,64.8,76.7,64.7,76.7z"/>
	</g>
</g>
</svg>
