<svg id="Layer_1" data-name="Layer 1" xmlns="http://www.w3.org/2000/svg" viewBox="0 0 91.6 91.6"><defs><style>.cls-1{fill:none;stroke:#c42126;stroke-miterlimit:10;}.cls-2{fill:#c42126;}</style></defs><title>partnership</title><circle class="cls-1" cx="45.8" cy="45.8" r="45.3"/><path class="cls-2" d="M88.24,40.6L72.77,50.49l-0.16.72A17.79,17.79,0,0,1,72.29,53c-0.08.64-.16,1.28-0.32,2l-5.18-4.15L54.42,41.08c-1.75-1.2-3.91-1.2-6.38-.32a15,15,0,0,0-3.27,1.67l-9.17,6a3.41,3.41,0,0,1-4.71-.88c-0.88-1.52-.72-2.87-0.48-3L51.63,30.71c2.23-1.52,8.05,2.23,10.93,4l1,0.64L78.43,25.6l-1.91-3L63.44,31.11c-4-2.47-8.05-4.71-11.4-4.23L48.6,24.17c-3.35-2.71-8.69-.56-14,2.07l-7.1-5.74-1.2,3.35,7.82,6.54,1-.48c3-1.52,9.09-4.63,11.25-3l2.07,1.67-19.94,13C26.43,43,26.19,46.34,28,49.37l0.24,0.4a3.47,3.47,0,0,0,.48.56c1.83,1.83,4.47,3.59,6.7,2.55l11.48-7.66s3.83-2.39,5.66-1.2L71.41,59a2,2,0,0,1,.32,2.79,2.4,2.4,0,0,1-3.35.4L50.12,47.7,48,50.41,68.3,66.6a1.9,1.9,0,1,1-2.39,3l-1.28-1h0L64.15,68l-18-14.2L44,56.55,61.92,70.82a2,2,0,0,1,.32,2.79,2,2,0,0,1-2.87.32l-8-6.38-8.21-6.38L41,63.89l8.13,6.46a2,2,0,0,1,.32,2.87,2.13,2.13,0,0,1-3,.32l-6.38-5-13.8-11C24,55.67,23.8,50.65,23.56,47.3c0-.72-0.08-1.36-0.08-1.91l-0.08-.8-9.65-7.5L12.08,40.2l8,6.22a4.91,4.91,0,0,0,.08,1c0.16,3.27.4,7.9,2.47,11a5.47,5.47,0,0,0,1,9.33,5.78,5.78,0,0,0-.08,5.58h0c0,0.08.08,0.08,0.08,0.16s0.08,0.08.08,0.16h0a5.67,5.67,0,0,0,5,2.23,5.44,5.44,0,0,0,.88,2.63,5.61,5.61,0,0,0,7.74,1.6l4.23-2.79v0.08l2.23-1.6,0.56,0.48a5.67,5.67,0,0,0,7.9-.88,5.78,5.78,0,0,0,1-1.83l4,3.19A5.57,5.57,0,0,0,65,75.93a4.94,4.94,0,0,0,1.12-2.55,5.63,5.63,0,0,0,5.18-1.75h0c0-.08.08-0.08,0.08-0.16s0.08-.08.08-0.16h0A5.48,5.48,0,0,0,72,65.8,5.61,5.61,0,0,0,74.44,64a5.67,5.67,0,0,0,.64-5.9,36.5,36.5,0,0,0,.8-4.55c0.08-.32.08-0.72,0.16-1l14-8.93Zm-64,23.29a2,2,0,0,1,.56-2.79l0.24-.16,3.59,2.87-1.12.72A2.27,2.27,0,0,1,24.28,63.89Zm5.1,8.21A1.87,1.87,0,1,1,27.31,69l4.39-2.79,3,2.39Zm6,5.1a2.08,2.08,0,0,1-2.87-.64A2,2,0,0,1,33,73.77l4.39-3,0.48,0.4,3,2.31Z" transform="translate(-2.5 -2.5)"/></svg>