<?xml version="1.0" encoding="utf-8"?>
<!-- Generator: Adobe Illustrator 19.2.1, SVG Export Plug-In . SVG Version: 6.00 Build 0)  -->
<svg version="1.1" id="Layer_1" xmlns="http://www.w3.org/2000/svg" xmlns:xlink="http://www.w3.org/1999/xlink" x="0px" y="0px"
	 viewBox="0 0 96 96" style="enable-background:new 0 0 96 96;" xml:space="preserve">
<style type="text/css">
	.st0{fill:none;stroke:#C42126;stroke-miterlimit:10;}
	.st1{fill:#C42126;}
	.st2{fill:none;stroke:#C42126;stroke-width:2;stroke-miterlimit:10;}
</style>
<title>roofgarden</title>
<circle class="st0" cx="48.3" cy="48.3" r="45.3"/>
<g>
	<g>
		<g transform="translate(11.000000, 1.000000)">
			<path class="st1" d="M50.3,38.7v-2.1h15.2v30.3c0,6.6-2.7,10.4-9.1,10.4c-6.1,0-9.1-3.6-9.1-10.4V21.6H18.6l0,45.2
				c0,5.9,2.3,8.3,8.1,8.3c3.8,0,15.9,0,23.5,0c0.2,0,1,1.1,2.6,1.6s3.6,0.6,3.6,0.6c-0.3,0-24.1,0-29.7,0c-7,0-10.2-3.5-10.2-10.5
				V19.5h32.8v47.4c0,5.7,2.2,8.3,7,8.3c5.1,0,7-2.8,7-8.3l0-28.2"/>
			<polygon class="st1" points="21.6,61.7 44.5,61.7 44.5,59.6 21.6,59.6 			"/>
			<polygon class="st1" points="61.7,46.9 61.7,44.8 50.4,44.8 50.4,46.9 			"/>
			<polygon class="st1" points="61.7,53.3 61.7,51.1 50.4,51.1 50.4,53.3 			"/>
			<polygon class="st1" points="61.7,59.6 61.7,57.5 50.4,57.5 50.4,59.6 			"/>
			<polygon class="st1" points="61.7,65.9 61.7,63.8 50.4,63.8 50.4,65.9 			"/>
			<polygon class="st1" points="44.5,68 44.5,65.9 21.6,65.9 21.6,68 			"/>
			<path class="st1" d="M34.3,31.7c1.2,0.2,2.7,0.7,4.1,1.6l1.3-2.8c-1.5-1-3.4-1.7-5.4-1.9V25H32v3.6c-3.4,0.4-5.5,2.3-5.5,5.3
				c0,3.6,2.9,4.7,5.5,5.5v5.5c-1.8-0.3-3.7-1.2-5.3-2.7l-1.4,2.8c1.7,1.6,4.1,2.8,6.6,3v3.8h2.3v-3.9c3.4-0.4,5.7-2.4,5.7-5.5
				c0-3.8-3-4.8-5.7-5.6V31.7L34.3,31.7L34.3,31.7z M30,33.6c0-1,0.8-1.7,2-1.9V36C30.8,35.5,30,34.8,30,33.6L30,33.6L30,33.6z
				 M34.3,40.1c1.3,0.5,2.2,1.2,2.2,2.5c0,1.2-0.8,1.9-2.2,2.2V40.1L34.3,40.1L34.3,40.1z"/>
		</g>
	</g>
</g>
<line class="st2" x1="13.5" y1="20" x2="81" y2="78.3"/>
</svg>
