<?xml version="1.0" encoding="utf-8"?>
<!-- Generator: Adobe Illustrator 19.2.1, SVG Export Plug-In . SVG Version: 6.00 Build 0)  -->
<svg version="1.1" id="Layer_1" xmlns="http://www.w3.org/2000/svg" xmlns:xlink="http://www.w3.org/1999/xlink" x="0px" y="0px"
	 viewBox="0 0 96 96" style="enable-background:new 0 0 96 96;" xml:space="preserve">
<style type="text/css">
	.st0{fill:none;stroke:#C42126;stroke-miterlimit:10;}
	.st1{fill:#C42126;}
</style>
<title>roofgarden</title>
<circle class="st0" cx="48.3" cy="48.3" r="45.3"/>
<path class="st1" d="M24,22.4"/>
<g>
	<path class="st1" d="M43.1,36.5L43.1,36.5C43.1,36.4,43.1,36.4,43.1,36.5z"/>
	<path class="st1" d="M43.1,36.5L43.1,36.5C43.1,36.5,43,36.7,43.1,36.5z"/>
	<path class="st1" d="M80.9,34.3l-11-10.7l-0.3-0.2l-0.4-0.2L58,18.5l-1.1-0.5L56,18.8c-2.1,1.7-4.9,2.7-7.7,2.7
		c-2.8,0-5.5-1-7.7-2.8L39.6,18l-1.1,0.5l-11.2,4.5L27,23.1l-0.3,0.3l-11,10.9l-1.6,1.5l1.7,1.4l11.8,9.3l1.3,1.1l1.1-1.1l0.1-0.2
		v30.7v1.8h2.3h32.2h2v-1.8V46.3l0.1,0.1l1.2,1.2l1.4-1.1l11.5-9.3l1.7-1.4L80.9,34.3z M43.1,36.5L43.1,36.5
		c0.3-0.5,0.5-1.1,1.1-1.3c0.5-0.2,1.1-0.2,1.6-0.1c1.3,0.1,2.6,0.1,3.9,0.1c-1,0.9-1.7,2.1-2.4,3.3c-0.8,1.2-1.4,2.5-2.2,3.6
		c-1.4-0.8-2.8-1.6-4.1-2.3C41.6,38.7,42.4,37.6,43.1,36.5z M38,46.3c-0.2-1.1,0.5-2.4,1.1-3.2l0.2-0.2L39,42.8
		c-0.2-0.2-0.6-0.4-0.9-0.6c1.1,0,2.3,0,3.4,0.1h0.5c0.7,1.1,1.4,2.3,2.1,3.3c-0.2-0.1-0.4-0.2-0.5-0.3l-0.2-0.1l-0.2,0.2
		c-0.7,0.9-1.2,2-1.8,3c-0.9-0.1-1.7,0-2.6-0.5C38.4,47.5,38,46.9,38,46.3z M43.7,53.7L43.7,53.7L43.7,53.7L43.7,53.7z M43.7,53.6
		C43.9,53.6,44,53.6,43.7,53.6L43.7,53.6c-0.6,0-1.2,0.2-1.7-0.3c-0.4-0.4-0.6-0.8-0.9-1.3c-0.6-1.1-1.2-2.2-1.9-3.3
		c1.3,0.4,2.7,0.4,4.1,0.4c1.4,0,2.9,0,4.3,0.1c0,1.6,0,3.2,0,4.6C46.5,53.8,45.1,53.7,43.7,53.6z M50.7,35.2
		c0.6-0.2,1.2-0.3,1.8-0.1c1.1,0.4,1.8,1.6,2.3,2.6l0.1,0.2l0.2-0.1c0.3-0.2,0.7-0.3,1-0.5c-0.5,1-1.1,2-1.7,2.9l-0.3,0.5
		c-1.3,0.1-2.7,0-4,0c0.2-0.1,0.4-0.2,0.5-0.3l0.2-0.2l-0.1-0.2c-0.5-1.1-1.1-2.1-1.7-3C49.4,36.4,49.8,35.7,50.7,35.2z M55.8,51.4
		C55.7,52,55.5,52.6,55,53c-0.9,0.8-2.3,0.8-3.4,0.6h-0.3l-0.1,0.3c-0.1,0.3-0.1,0.7-0.1,1.1c-0.6-1-1.1-2-1.7-3l-0.2-0.5
		c0.6-1.1,1.3-2.3,2-3.4c0,0.2,0,0.4,0,0.6V49h0.2c1.1,0.2,2.4,0,3.5,0.1C55.4,49.7,55.9,50.4,55.8,51.4z M59.2,45.9
		c-0.2,0.5-0.5,1-0.7,1.4c-0.7,1.1-1.4,2.1-2,3.3c-0.3-1.4-1.1-2.5-1.7-3.6c-0.7-1.2-1.4-2.4-2.1-3.7c1.4-0.8,2.8-1.6,4-2.4
		c0.7,1.1,1.2,2.4,1.9,3.5C58.9,44.9,59.3,45.3,59.2,45.9z"/>
</g>
</svg>
