<?xml version="1.0" encoding="utf-8"?>
<!-- Generator: Adobe Illustrator 19.2.1, SVG Export Plug-In . SVG Version: 6.00 Build 0)  -->
<svg version="1.1" id="Layer_1" xmlns="http://www.w3.org/2000/svg" xmlns:xlink="http://www.w3.org/1999/xlink" x="0px" y="0px"
	 viewBox="0 0 96 96" style="enable-background:new 0 0 96 96;" xml:space="preserve">
<style type="text/css">
	.st0{fill:none;stroke:#C42126;stroke-miterlimit:10;}
	.st1{fill:#C42126;}
</style>
<title>roofgarden</title>
<circle class="st0" cx="48.3" cy="48.3" r="45.3"/>
<path class="st1" d="M24,22.4"/>
<g>
	<polygon class="st1" points="63.3,64.9 65.6,64.9 65.6,61.9 68.6,61.9 68.6,59.6 65.6,59.6 65.6,56.7 63.3,56.7 63.3,59.6 
		60.4,59.6 60.4,61.9 63.3,61.9 	"/>
	<rect x="30.7" y="58.8" class="st1" width="8.2" height="2.3"/>
	<path class="st1" d="M21.9,48.3v23.4h54.6v-5.6H82V53.8h-5.5v-5.6H21.9z M74.3,69.4H24.2V50.5h50.1V69.4z M79.8,56.1v7.7h-3.2v-7.7
		H79.8z"/>
</g>
<g>
	<path class="st1" d="M41,32.6l1.3,0.8c0.2,0,0.3-0.1,0.3-0.3c0-0.1-0.1-0.3-0.2-0.5l-2.8-5.3l-6.2,0.2c-0.3,0-0.4,0.2-0.4,0.4
		c0,0.1,0.1,0.2,0.3,0.3l1.3,0.8l-1.4,2.1c-0.4,0.6-0.6,1.1-0.6,1.5c0,0.4,0.1,0.8,0.4,1.2l4.2,7.4c-0.1-0.5-0.2-0.9-0.2-1.3
		c0-0.7,0.2-1.5,0.7-2.2L41,32.6L41,32.6z"/>
	<path class="st1" d="M42.7,28.3l3.5-5.4c-1.3-3-2.7-4.5-4.2-4.5c-0.9,0-1.5,0.2-1.8,0.7l-3.3,5.3L42.7,28.3L42.7,28.3z"/>
	<path class="st1" d="M39.8,43h6.8v-7h-6.5c-0.8,1.1-1.3,1.9-1.5,2.3c-0.3,0.6-0.5,1.3-0.5,2C38.1,42.1,38.7,43,39.8,43L39.8,43z"/>
	<path class="st1" d="M53.8,27l3-5.1c0.1-0.2,0.2-0.4,0.2-0.6c0-0.2-0.1-0.3-0.2-0.3c0,0-0.1,0-0.3,0.1L55,21.8l-1.3-2.5
		c-0.6-1.1-1.7-1.7-3.4-1.7h-7.8c1,0.3,1.6,0.6,1.9,0.9c0.8,0.6,1.6,1.8,2.5,3.6l1.6,3.3l-1.2,0.6c-0.1,0.1-0.2,0.2-0.2,0.3
		c0,0.2,0.1,0.3,0.4,0.3L53.8,27L53.8,27z"/>
	<path class="st1" d="M56.8,42l4.4-8c-0.6,0.7-1.4,1.2-2.1,1.5c-0.6,0.2-1.5,0.3-2.6,0.3h-4.9v-1c0-0.4-0.1-0.6-0.3-0.6
		c-0.1,0-0.2,0.1-0.3,0.2l-3.1,5.4l3.2,4.9c0.2,0.4,0.5,0.5,0.6,0.4c0.2-0.1,0.3-0.1,0.3-0.3v-1.7h2.7C55.7,43.1,56.4,42.7,56.8,42
		L56.8,42z"/>
	<path class="st1" d="M54.9,34.8h2.9c0.7,0,1.4-0.3,2.2-0.9c0.8-0.6,1.2-1.3,1.2-2c0-0.3-0.1-0.7-0.3-1l-3.5-5.3l-6,3.5L54.9,34.8
		L54.9,34.8z"/>
</g>
</svg>
