<?xml version="1.0" encoding="utf-8"?>
<!-- Generator: Adobe Illustrator 19.2.1, SVG Export Plug-In . SVG Version: 6.00 Build 0)  -->
<svg version="1.1" id="Layer_1" xmlns="http://www.w3.org/2000/svg" xmlns:xlink="http://www.w3.org/1999/xlink" x="0px" y="0px"
	 viewBox="0 0 96 96" style="enable-background:new 0 0 96 96;" xml:space="preserve">
<style type="text/css">
	.st0{fill:none;stroke:#C42126;stroke-miterlimit:10;}
	.st1{fill:#C42126;}
</style>
<title>roofgarden</title>
<circle class="st0" cx="48.3" cy="48.3" r="45.3"/>
<g>
	<path class="st1" d="M44.1,18.9c-9.7,0-17.5,7.8-17.5,17.5c0,3.2,0.9,6.1,2.3,8.7c4.3,7.8,5.4,12.1,6.1,16.3
		c0.6,3.5,1.4,4.4,4.1,4.4c1.1,0,3,0,5,0c2,0,3.8,0,5,0c2.7,0,3.5-0.8,4.1-4.4c0.7-4.2,1.8-8.6,6.1-16.3c1.4-2.6,2.3-5.6,2.3-8.7
		C61.7,26.8,53.8,18.9,44.1,18.9z"/>
	<path class="st1" d="M50.7,69.4H38.2c-0.5,0-0.9,0.4-0.9,0.9v0.6c0,0.5,0.4,0.9,0.9,0.9h12.5c0.5,0,0.9-0.4,0.9-0.9v-0.6
		C51.6,69.8,51.2,69.4,50.7,69.4z"/>
	<path class="st1" d="M50.7,73.1H38.2c-0.5,0-0.9,0.4-0.9,0.9v0.6c0,0.5,0.4,0.9,0.9,0.9h12.5c0.5,0,0.9-0.4,0.9-0.9V74
		C51.6,73.5,51.2,73.1,50.7,73.1z"/>
	<path class="st1" d="M50.7,76.9H38.2c-0.5,0-0.9,0.4-0.9,0.9v0.6c0,0.5,0.4,0.9,0.9,0.9h12.5c0.5,0,0.9-0.4,0.9-0.9v-0.6
		C51.6,77.3,51.2,76.9,50.7,76.9z"/>
	<path class="st1" d="M39.7,80.6h9.4c0,1.9-2.5,3.1-4.7,3.1C42.3,83.8,39.7,82.5,39.7,80.6z"/>
</g>
<path class="st1" d="M79.1,36.3c2.8,0.5,2.1,4.9-0.7,4.4c-1.5-0.3-12.3-2.1-12.3-2.1l0.8-4.4C66.8,34.2,76.4,35.8,79.1,36.3
	C79.1,36.3,79.1,36.3,79.1,36.3L79.1,36.3L79.1,36.3z"/>
<path class="st1" d="M73.1,18.5L73.1,18.5L73.1,18.5C73.1,18.5,73.1,18.5,73.1,18.5c-1.3,2-7,10.7-7,10.7l-4.4-2.4
	c0,0,5.7-8.7,7.1-10.8C70.4,13.5,74.8,15.9,73.1,18.5z"/>
</svg>
