<?xml version="1.0" encoding="utf-8"?>
<!-- Generator: Adobe Illustrator 19.2.1, SVG Export Plug-In . SVG Version: 6.00 Build 0)  -->
<svg version="1.1" id="Layer_1" xmlns="http://www.w3.org/2000/svg" xmlns:xlink="http://www.w3.org/1999/xlink" x="0px" y="0px"
	 viewBox="0 0 96 96" style="enable-background:new 0 0 96 96;" xml:space="preserve">
<style type="text/css">
	.st0{fill:none;stroke:#C42126;stroke-width:2;stroke-miterlimit:10;}
	.st1{fill:#C42126;stroke:#C42126;stroke-width:2;stroke-miterlimit:10;}
</style>
<ellipse class="st0" cx="48.3" cy="48" rx="44.7" ry="45.3"/>
<title>roofgarden</title>
<circle class="st0" cx="48.3" cy="48.3" r="45.3"/>
<polygon class="st1" points="46.9,34.5 10.7,60.5 16,67.8 46.9,45.6 77.7,67.8 83,60.5 "/>
<path class="st0" d="M46.6,18.9c0,0-1.7-2.3,1.2-2.9c0,0,0.3-2.7,3.2-2.1c0,0,0.8-2.3,3.6-1.4l0,0l0,0l0,0c2.8-0.9,3.6,1.4,3.6,1.4
	c2.9-0.6,3.2,2.1,3.2,2.1c2.9,0.7,1.2,2.9,1.2,2.9c2.2,1.8,0.3,3.3,0.3,3.3c2,2.5-1,3.8-1,3.8c0.1,1.8-2.4,1.9-2.4,1.9
	c-0.5,1.8-2.5,1.3-2.5,1.3c-0.3,0.4-0.6,0.6-1,0.8l0.3,9.5h-3.2l0.3-9.5c0,0-0.1,0-0.1,0l0,0L53,30l-0.1,0l-0.1,0l-0.1,0l-0.1,0
	l-0.1-0.1l-0.1-0.1c0,0-0.1,0-0.1-0.1l-0.1-0.1c0,0-0.1-0.1-0.1-0.1l0,0c0-0.1-0.1-0.1-0.1-0.2c0,0-2.1,0.5-2.5-1.3
	c0,0-2.5-0.2-2.4-1.9c0,0-3-1.3-1-3.8C46.3,22.2,44.4,20.6,46.6,18.9z"/>
<path class="st0" d="M61.2,36.1c0,0-0.9-1.2,0.7-1.6c0,0,0.1-1.5,1.7-1.1c0,0,0.4-1.2,1.9-0.8l0,0l0,0l0,0c1.5-0.5,1.9,0.8,1.9,0.8
	c1.6-0.3,1.7,1.1,1.7,1.1c1.6,0.4,0.7,1.6,0.7,1.6c1.2,1,0.1,1.8,0.1,1.8c1.1,1.4-0.6,2.1-0.6,2.1c0.1,1-1.3,1.1-1.3,1.1
	c-0.3,1-1.4,0.7-1.4,0.7c-0.1,0.2-0.3,0.3-0.6,0.4l0.2,5.2h-1.7l0.2-5.2l-0.1,0l0,0l0,0l0,0l0,0l0,0l0,0l0,0l0,0l0,0l0,0l0,0l0,0
	c0,0,0-0.1-0.1-0.1c0,0-1.1,0.3-1.4-0.7c0,0-1.4-0.1-1.3-1.1c0,0-1.6-0.7-0.6-2.1C61.1,37.9,60,37.1,61.2,36.1z"/>
<path class="st0" d="M71.5,45.3c0,0-0.7-0.9,0.5-1.2c0,0,0.1-1.1,1.3-0.8c0,0,0.3-0.9,1.4-0.6h0l0,0h0c1.1-0.3,1.4,0.6,1.4,0.6
	c1.2-0.2,1.3,0.8,1.3,0.8c1.2,0.3,0.5,1.2,0.5,1.2c0.9,0.7,0.1,1.3,0.1,1.3c0.8,1-0.4,1.5-0.4,1.5c0,0.7-1,0.8-1,0.8
	c-0.2,0.7-1,0.5-1,0.5c-0.1,0.1-0.2,0.3-0.4,0.3l0.1,3.8h-1.3l0.1-3.8l0,0h0l0,0l0,0l0,0l0,0l0,0l0,0l0,0l0,0l0,0l0,0l0,0
	c0,0,0,0-0.1-0.1c0,0-0.8,0.2-1-0.5c0,0-1-0.1-1-0.8c0,0-1.2-0.5-0.4-1.5C71.4,46.6,70.6,46,71.5,45.3z"/>
<path class="st0" d="M20.4,41.8c0,0-0.7-0.9,0.5-1.2c0,0,0.1-1.1,1.3-0.8c0,0,0.3-0.9,1.4-0.6h0l0,0h0c1.1-0.3,1.4,0.6,1.4,0.6
	c1.2-0.2,1.3,0.8,1.3,0.8c1.2,0.3,0.5,1.2,0.5,1.2c0.9,0.7,0.1,1.3,0.1,1.3c0.8,1-0.4,1.5-0.4,1.5c0,0.7-1,0.8-1,0.8
	c-0.2,0.7-1,0.5-1,0.5c-0.1,0.1-0.2,0.3-0.4,0.3l0.1,3.8h-1.3l0.1-3.8l0,0h0l0,0l0,0l0,0l0,0l0,0l0,0l0,0l0,0l0,0l0,0l0,0
	c0,0,0,0-0.1-0.1c0,0-0.8,0.2-1-0.5c0,0-1-0.1-1-0.8c0,0-1.2-0.5-0.4-1.5C20.2,43.2,19.5,42.5,20.4,41.8z"/>
<path class="st0" d="M31.8,30.5c0,0-0.9-1.2,0.7-1.6c0,0,0.1-1.5,1.7-1.1c0,0,0.4-1.2,1.9-0.8l0,0l0,0l0,0c1.5-0.5,1.9,0.8,1.9,0.8
	c1.6-0.3,1.7,1.1,1.7,1.1c1.6,0.4,0.7,1.6,0.7,1.6c1.2,1,0.1,1.8,0.1,1.8c1.1,1.4-0.6,2.1-0.6,2.1c0.1,1-1.3,1.1-1.3,1.1
	c-0.3,1-1.4,0.7-1.4,0.7c-0.1,0.2-0.3,0.3-0.6,0.4l0.2,5.2h-1.7l0.2-5.2l-0.1,0l0,0l0,0l0,0l0,0l0,0l0,0l0,0l0,0l0,0l0,0l0,0l0,0
	c0,0,0-0.1-0.1-0.1c0,0-1.1,0.3-1.4-0.7c0,0-1.4-0.1-1.3-1.1c0,0-1.6-0.7-0.6-2.1C31.6,32.3,30.6,31.4,31.8,30.5z"/>
</svg>
