<?xml version="1.0" encoding="utf-8"?>
<!-- Generator: Adobe Illustrator 19.2.1, SVG Export Plug-In . SVG Version: 6.00 Build 0)  -->
<svg version="1.1" id="Layer_1" xmlns="http://www.w3.org/2000/svg" xmlns:xlink="http://www.w3.org/1999/xlink" x="0px" y="0px"
	 viewBox="0 0 96 96" style="enable-background:new 0 0 96 96;" xml:space="preserve">
<style type="text/css">
	.st0{fill:none;stroke:#C42126;stroke-width:2;stroke-miterlimit:10;}
	.st1{fill:#C42126;}
</style>
<title>roofgarden</title>
<circle class="st0" cx="48.3" cy="48.3" r="45.3"/>
<g>
	<path class="st1" d="M56.3,10.3l-0.9,0.6c-0.6,0.5-15.3,10.6-18.1,19.9c-2,6.5,1.7,13.3,8.2,15.3c6.5,2,13.3-1.7,15.3-8.2
		c2.8-9.3-3.8-25.9-4-26.6L56.3,10.3z"/>
</g>
<path class="st1" d="M74.9,57.4c-3.6,0-5.5-1.3-7.2-2.5c-1.5-1.1-2.9-2-5.7-2c-2.8,0-4.1,0.9-5.7,2c-1.7,1.2-3.6,2.5-7.2,2.5
	s-5.5-1.3-7.2-2.5c-1.5-1.1-2.9-2-5.7-2c-2.8,0-4.1,0.9-5.7,2c-1.7,1.2-3.6,2.5-7.2,2.5c-3.6,0-5.5-1.3-7.2-2.5
	c-1.5-1.1-2.9-2-5.7-2v-2.7c3.6,0,5.5,1.3,7.2,2.5c1.5,1.1,2.9,2,5.7,2c2.8,0,4.1-0.9,5.7-2c1.7-1.2,3.6-2.5,7.2-2.5
	c3.6,0,5.5,1.3,7.2,2.5c1.5,1.1,2.9,2,5.7,2s4.1-0.9,5.7-2c1.7-1.2,3.6-2.5,7.2-2.5c3.6,0,5.5,1.3,7.2,2.5c1.5,1.1,2.9,2,5.7,2
	c2.8,0,4.1-0.9,5.7-2c1.7-1.2,3.6-2.5,7.2-2.5v2.7c-2.8,0-4.1,0.9-5.7,2C80.4,56,78.5,57.4,74.9,57.4z"/>
<path class="st1" d="M74.3,64.9c-3.6,0-5.5-1.3-7.2-2.5c-1.5-1.1-2.9-2-5.7-2c-2.8,0-4.1,0.9-5.7,2c-1.7,1.2-3.6,2.5-7.2,2.5
	c-3.6,0-5.5-1.3-7.2-2.5c-1.5-1.1-2.9-2-5.7-2c-2.8,0-4.1,0.9-5.7,2c-1.7,1.2-3.6,2.5-7.2,2.5c-3.6,0-5.5-1.3-7.2-2.5
	c-1.5-1.1-2.9-2-5.7-2v-2.7c3.6,0,5.5,1.3,7.2,2.5c1.5,1.1,2.9,2,5.7,2c2.8,0,4.1-0.9,5.7-2c1.7-1.2,3.6-2.5,7.2-2.5
	c3.6,0,5.5,1.3,7.2,2.5c1.5,1.1,2.9,2,5.7,2s4.1-0.9,5.7-2c1.7-1.2,3.6-2.5,7.2-2.5c3.6,0,5.5,1.3,7.2,2.5c1.5,1.1,2.9,2,5.7,2
	s4.1-0.9,5.7-2c1.7-1.2,3.6-2.5,7.2-2.5v2.7c-2.8,0-4.1,0.9-5.7,2C79.8,63.5,77.9,64.9,74.3,64.9z"/>
<path class="st1" d="M73.9,72.1c-3.6,0-5.5-1.3-7.2-2.5c-1.5-1.1-2.9-2-5.7-2c-2.8,0-4.1,0.9-5.7,2c-1.7,1.2-3.6,2.5-7.2,2.5
	s-5.5-1.3-7.2-2.5c-1.5-1.1-2.9-2-5.7-2c-2.8,0-4.1,0.9-5.7,2c-1.7,1.2-3.6,2.5-7.2,2.5c-3.6,0-5.5-1.3-7.2-2.5
	c-1.5-1.1-2.9-2-5.7-2v-2.7c3.6,0,5.5,1.3,7.2,2.5c1.5,1.1,2.9,2,5.7,2c2.8,0,4.1-0.9,5.7-2c1.7-1.2,3.6-2.5,7.2-2.5
	c3.6,0,5.5,1.3,7.2,2.5c1.5,1.1,2.9,2,5.7,2s4.1-0.9,5.7-2c1.7-1.2,3.6-2.5,7.2-2.5c3.6,0,5.5,1.3,7.2,2.5c1.5,1.1,2.9,2,5.7,2
	c2.8,0,4.1-0.9,5.7-2c1.7-1.2,3.6-2.5,7.2-2.5v2.7c-2.8,0-4.1,0.9-5.7,2C79.4,70.8,77.5,72.1,73.9,72.1z"/>
</svg>
