<?xml version="1.0" encoding="utf-8"?>
<!-- Generator: Adobe Illustrator 19.2.1, SVG Export Plug-In . SVG Version: 6.00 Build 0)  -->
<svg version="1.1" id="Layer_1" xmlns="http://www.w3.org/2000/svg" xmlns:xlink="http://www.w3.org/1999/xlink" x="0px" y="0px"
	 viewBox="0 0 96 96" style="enable-background:new 0 0 96 96;" xml:space="preserve">
<style type="text/css">
	.st0{fill:none;stroke:#C42126;stroke-miterlimit:10;}
	.st1{fill:#C42126;}
</style>
<title>roofgarden</title>
<circle class="st0" cx="48.3" cy="48.3" r="45.3"/>
<path class="st1" d="M24,22.4"/>
<g>
	<path class="st1" d="M35.8,59.5l1.3,0.8c0.2,0,0.3-0.1,0.3-0.3c0-0.1-0.1-0.3-0.2-0.5l-2.8-5.3l-6.2,0.2c-0.3,0-0.4,0.2-0.4,0.4
		c0,0.1,0.1,0.2,0.3,0.3l1.3,0.8L28,58c-0.4,0.6-0.6,1.1-0.6,1.5c0,0.4,0.1,0.8,0.4,1.2l4.2,7.4c-0.1-0.5-0.2-0.9-0.2-1.3
		c0-0.7,0.2-1.5,0.7-2.2L35.8,59.5L35.8,59.5z"/>
	<path class="st1" d="M37.4,55.1l3.5-5.4c-1.3-3-2.7-4.5-4.2-4.5c-0.9,0-1.5,0.2-1.8,0.7l-3.3,5.3L37.4,55.1L37.4,55.1z"/>
	<path class="st1" d="M34.6,69.9h6.8v-7h-6.5c-0.8,1.1-1.3,1.9-1.5,2.3c-0.3,0.6-0.5,1.3-0.5,2C32.8,68.9,33.4,69.9,34.6,69.9
		L34.6,69.9z"/>
	<path class="st1" d="M48.5,53.9l3-5.1c0.1-0.2,0.2-0.4,0.2-0.6c0-0.2-0.1-0.3-0.2-0.3c0,0-0.1,0-0.3,0.1l-1.4,0.6l-1.3-2.5
		c-0.6-1.1-1.7-1.7-3.4-1.7h-7.8c1,0.3,1.6,0.6,1.9,0.9c0.8,0.6,1.6,1.8,2.5,3.6l1.6,3.3l-1.2,0.6C42,52.8,42,52.9,42,53
		c0,0.2,0.1,0.3,0.4,0.3L48.5,53.9L48.5,53.9z"/>
	<path class="st1" d="M51.5,68.8l4.4-8c-0.6,0.7-1.4,1.2-2.1,1.5c-0.6,0.2-1.5,0.3-2.6,0.3h-4.9v-1c0-0.4-0.1-0.6-0.3-0.6
		c-0.1,0-0.2,0.1-0.3,0.2l-3.1,5.4l3.2,4.9c0.2,0.4,0.5,0.5,0.6,0.4c0.2-0.1,0.3-0.1,0.3-0.3v-1.7h2.7
		C50.4,69.9,51.1,69.6,51.5,68.8L51.5,68.8z"/>
	<path class="st1" d="M49.6,61.6h2.9c0.7,0,1.4-0.3,2.2-0.9c0.8-0.6,1.2-1.3,1.2-2c0-0.3-0.1-0.7-0.3-1l-3.5-5.3l-6,3.5L49.6,61.6
		L49.6,61.6z"/>
</g>
<g>
	<path class="st1" d="M63.3,77.8H18.9c-0.4,0-0.7-0.3-0.7-0.7V32.8c0-0.4,0.3-0.7,0.7-0.7h44.4c0.4,0,0.7,0.3,0.7,0.7v44.4
		C63.9,77.5,63.6,77.8,63.3,77.8C63.3,77.8,63.3,77.8,63.3,77.8z M19.6,76.5h43V33.4h-43V76.5z"/>
	<path class="st1" d="M77.6,65.7c-0.4,0-0.7-0.3-0.7-0.7V21.3H33.3c-0.4,0-0.7-0.3-0.7-0.7c0-0.4,0.3-0.7,0.7-0.7h44.4
		c0.4,0,0.7,0.3,0.7,0.7V65C78.3,65.4,78,65.7,77.6,65.7z"/>
	<path class="st1" d="M18.9,33.4c-0.4,0-0.7-0.3-0.6-0.7c0-0.2,0.1-0.3,0.2-0.5l14.4-12.1c0.3-0.2,0.7-0.1,0.9,0.3
		c0.1,0.2,0.1,0.5-0.1,0.7L19.3,33.3C19.2,33.4,19.1,33.4,18.9,33.4z"/>
	<path class="st1" d="M63.3,33.4c-0.4,0-0.7-0.3-0.6-0.7c0-0.2,0.1-0.3,0.2-0.5l14.4-12.1c0.3-0.2,0.7-0.1,0.9,0.3
		c0.1,0.2,0.1,0.5-0.1,0.7L63.7,33.3C63.6,33.4,63.4,33.4,63.3,33.4z"/>
	<path class="st1" d="M42.3,33.4c-0.4,0-0.7-0.3-0.6-0.7c0-0.2,0.1-0.3,0.2-0.5l14.4-12.1c0.2-0.3,0.6-0.3,0.9-0.1
		c0.3,0.2,0.3,0.6,0.1,0.9c-0.1,0.1-0.1,0.1-0.2,0.2L42.8,33.3C42.6,33.4,42.5,33.4,42.3,33.4z"/>
	<path class="st1" d="M63.3,77.8c-0.4,0-0.7-0.3-0.6-0.7c0-0.2,0.1-0.3,0.2-0.5l14.4-12.1c0.2-0.3,0.6-0.3,0.9-0.1
		c0.3,0.2,0.3,0.6,0.1,0.9c-0.1,0.1-0.1,0.1-0.2,0.2L63.7,77.7C63.6,77.8,63.4,77.8,63.3,77.8z"/>
	<path class="st1" d="M49.6,39.3H32.5c-0.4,0-0.7-0.3-0.7-0.7s0.3-0.7,0.7-0.7h17.1c0.4,0,0.7,0.3,0.7,0.7S50,39.3,49.6,39.3z"/>
</g>
</svg>
