<?xml version="1.0" encoding="utf-8"?>
<!-- Generator: Adobe Illustrator 19.2.1, SVG Export Plug-In . SVG Version: 6.00 Build 0)  -->
<svg version="1.1" id="Layer_1" xmlns="http://www.w3.org/2000/svg" xmlns:xlink="http://www.w3.org/1999/xlink" x="0px" y="0px"
	 viewBox="0 0 96 96" style="enable-background:new 0 0 96 96;" xml:space="preserve">
<style type="text/css">
	.st0{fill:none;stroke:#C42126;stroke-miterlimit:10;}
	.st1{fill:#C42126;}
</style>
<title>roofgarden</title>
<circle class="st0" cx="48.3" cy="48.3" r="45.3"/>
<g>
	<g>
		<g>
			<path class="st1" d="M79.6,61.8c0-0.3,0.1-0.6,0.1-0.8V31c0-3.1-2.4-5.7-5.3-5.7H72h-0.6H23.6c-2.9,0-5.3,2.5-5.3,5.7v30
				c0,0.3,0,0.6,0,0.8h-7.5v0.9c0,3.1,2.4,5.7,5.3,5.7h65.6c2.9,0,5.3-2.5,5.3-5.7v-0.9H79.6z M74.7,61.8H55.6
				c-0.1,1.6-1.4,2.9-3.1,2.9h-6.9c-1.7,0-3-1.3-3.1-2.9H23.3V30.2h48.1H72h2.7V61.8z"/>
		</g>
	</g>
	<path class="st1" d="M43.5,47.9l1.1,0.6c0.2,0,0.3-0.1,0.3-0.2c0-0.1,0-0.2-0.1-0.4l-2.3-4.4l-5.2,0.1c-0.2,0-0.3,0.1-0.3,0.4
		c0,0.1,0.1,0.1,0.2,0.2l1.1,0.6L37,46.7c-0.3,0.5-0.5,0.9-0.5,1.2c0,0.3,0.1,0.6,0.3,1l3.5,6.1c-0.1-0.4-0.1-0.8-0.1-1.1
		c0-0.6,0.2-1.2,0.6-1.8L43.5,47.9L43.5,47.9z"/>
	<path class="st1" d="M44.8,44.3l2.9-4.5c-1.1-2.5-2.2-3.7-3.5-3.7c-0.7,0-1.2,0.2-1.5,0.6L40,41.1L44.8,44.3L44.8,44.3z"/>
	<path class="st1" d="M42.5,56.5h5.6v-5.8h-5.4c-0.7,0.9-1.1,1.6-1.2,1.9c-0.3,0.5-0.4,1.1-0.4,1.6C41,55.8,41.5,56.5,42.5,56.5
		L42.5,56.5z"/>
	<path class="st1" d="M54,43.3l2.5-4.2c0.1-0.1,0.1-0.3,0.1-0.5c0-0.2-0.1-0.3-0.2-0.3c0,0-0.1,0-0.3,0.1L55,39l-1-2.1
		c-0.5-0.9-1.4-1.4-2.8-1.4h-6.5c0.8,0.2,1.3,0.5,1.6,0.7c0.7,0.5,1.3,1.5,2,3l1.3,2.7l-1,0.5c-0.1,0-0.1,0.1-0.1,0.3
		c0,0.2,0.1,0.2,0.3,0.3L54,43.3L54,43.3z"/>
	<path class="st1" d="M56.5,55.6l3.6-6.6c-0.5,0.6-1.1,1-1.7,1.2c-0.5,0.2-1.2,0.3-2.2,0.3h-4v-0.8c0-0.3-0.1-0.5-0.2-0.5
		c-0.1,0-0.2,0-0.3,0.1l-2.6,4.4l2.6,4.1c0.2,0.3,0.4,0.4,0.5,0.4c0.1,0,0.2-0.1,0.2-0.2v-1.4h2.2C55.6,56.6,56.1,56.3,56.5,55.6
		L56.5,55.6z"/>
	<path class="st1" d="M54.9,49.7h2.4c0.6,0,1.2-0.3,1.8-0.8c0.7-0.5,1-1.1,1-1.7c0-0.3-0.1-0.5-0.3-0.8L57,42.1L52,45L54.9,49.7
		L54.9,49.7z"/>
</g>
</svg>
