<?xml version="1.0" encoding="utf-8"?>
<!-- Generator: Adobe Illustrator 19.2.1, SVG Export Plug-In . SVG Version: 6.00 Build 0)  -->
<svg version="1.1" id="Layer_1" xmlns="http://www.w3.org/2000/svg" xmlns:xlink="http://www.w3.org/1999/xlink" x="0px" y="0px"
	 viewBox="0 0 96 96" style="enable-background:new 0 0 96 96;" xml:space="preserve">
<style type="text/css">
	.st0{fill:#C42227;}
	.st1{fill:#C42126;}
	.st2{fill:#FFFFFF;}
	.st3{clip-path:url(#SVGID_2_);fill:#F7F2F2;}
</style>
<title>roofgarden</title>
<circle class="st0" cx="48.3" cy="48.3" r="45.3"/>
<path class="st1" d="M24,22.4"/>
<polygon class="st2" points="27.7,44.6 32.2,76.6 58,76.6 62.7,44.6 "/>
<g>
	<g>
		<g>
			<defs>
				
					<rect id="SVGID_1_" x="13.7" y="37.9" transform="matrix(0.9097 -0.4154 0.4154 0.9097 -19.6804 18.7232)" width="38.9" height="33.3"/>
			</defs>
			<clipPath id="SVGID_2_">
				<use xlink:href="#SVGID_1_"  style="overflow:visible;"/>
			</clipPath>
			<path class="st3" d="M17.1,58.4l2.7,5.8l-1.3,0.6c-0.6,0.3-0.9-0.3-0.9-0.3l-2.1-4.6c-0.3-0.6,0.3-0.9,0.3-0.9L17.1,58.4
				L17.1,58.4z M12.6,48.4c0.4,0.9,2.1,4.6,4.1,8.9l-1.9,0.9c0,0-1,0.5-0.5,1.5l2.8,6.2c0,0,0.5,1,1.5,0.5l1.9-0.9
				c2.2,4.9,4.1,8.9,4.1,8.9s0.9,2.3,5,0.3L15.6,44.4C15.5,44.4,11.5,46,12.6,48.4"/>
		</g>
	</g>
</g>
<g>
	<path class="st2" d="M38.5,47.2c2.4,0,4.3-2,4.3-4.4c0-2.4-1.9-4.4-4.3-4.4c-2.4,0-4.3,1.9-4.3,4.4C34.2,45.3,36.1,47.2,38.5,47.2"
		/>
	<path class="st2" d="M44.1,50.9c-0.5,0.9-1.7,1.2-2.6,0.7c-0.9-0.5-1.2-1.7-0.7-2.6l7.8-13.5c0.3-0.5,0.7-0.9,1.2-1.2l10-6.1
		l6.8-11.7c0.6-1.1,2.1-1.5,3.2-0.9c1.1,0.7,1.5,2.1,0.9,3.2l-8.1,14c-0.3,0.5-0.7,0.9-1.2,1.2l-11.8,7.4L44.1,50.9z"/>
</g>
<g>
	<path class="st0" d="M36.4,44.8c-0.3,0-0.6,0-0.9,0c0.6,1.1,1.7,1.8,3,1.8c1.4,0,2.6-0.8,3.1-2.1C39.9,44.6,38.1,44.6,36.4,44.8z"
		/>
	<path class="st0" d="M43.4,44.5L40.8,49c-0.5,0.9-0.2,2.1,0.7,2.6c0.9,0.5,2.1,0.2,2.6-0.7l3.9-6.8C46.5,44.4,44.9,44.5,43.4,44.5z
		"/>
</g>
<g>
	<path class="st2" d="M79.8,25.6c-0.6-1.1-2.1-1.5-3.2-0.9l-11.8,6.6l-10.6,0.2c1.2,1.7,1.4,4-0.4,5.9l9.3-0.2
		c0.6,0,1.2-0.1,1.7-0.4l14.1-7.9C80,28.2,80.4,26.8,79.8,25.6z"/>
</g>
<g>
	<path class="st0" d="M48.8,44.6L46.2,49c-0.5,0.9-0.2,2.1,0.7,2.6c0.9,0.5,2.1,0.2,2.6-0.7l3.9-6.8C51.9,44.4,50.3,44.5,48.8,44.6z
		"/>
</g>
<g>
	<path class="st2" d="M62.1,31.8c-1.6,0-3.2-0.7-4.3-1.9l-6.4,6.6c-0.4,0.4-0.7,0.9-0.9,1.5l-1.3,4.8l-0.7,2.7
		c1.4,0,2.7,0.7,3.7,1.7l1-3.7l10.1-10.6c0.4-0.4,0.7-0.9,0.9-1.4C63.5,31.6,62.8,31.8,62.1,31.8z"/>
</g>
<polygon class="st0" points="33.2,58.2 36.3,75.2 54.5,75.2 57.8,58.2 "/>
</svg>
