<?xml version="1.0" encoding="utf-8"?>
<!-- Generator: Adobe Illustrator 19.2.1, SVG Export Plug-In . SVG Version: 6.00 Build 0)  -->
<svg version="1.1" id="Layer_1" xmlns="http://www.w3.org/2000/svg" xmlns:xlink="http://www.w3.org/1999/xlink" x="0px" y="0px"
	 viewBox="0 0 96 96" style="enable-background:new 0 0 96 96;" xml:space="preserve">
<style type="text/css">
	.st0{fill:#C42227;stroke:#C42126;stroke-miterlimit:10;}
	.st1{fill:#FFFFFF;}
	.st2{fill:none;}
	.st3{font-family:'MyriadPro-Regular';}
	.st4{font-size:36px;}
</style>
<title>roofgarden</title>
<circle class="st0" cx="48.3" cy="48.3" r="45.3"/>
<path class="st1" d="M36.8,21.1H22.3v32.3h6.6V42.8h7.6c5.8,0,11.3-4.6,11.3-10.8C47.8,26.5,43.2,21.1,36.8,21.1z M36.3,36.8h-7.4
	v-9.7h7.5c2.4,0,4.9,2.1,4.9,4.9C41.3,34.9,39.1,36.8,36.3,36.8z"/>
<g>
	<path class="st1" d="M33.9,79.1L33.9,79.1L33.9,79.1L33.9,79.1c-2,0-3.6-1.6-3.6-3.6l0,0l0,0l0,0c0-2,1.6-3.5,3.6-3.5l0,0
		c2,0,3.6,1.6,3.6,3.6l0,0l0,0l0,0C37.5,77.6,35.8,79.1,33.9,79.1L33.9,79.1L33.9,79.1z M33.9,76.8L33.9,76.8L33.9,76.8
		c0.7,0,1.2-0.5,1.2-1.2l0,0l0,0l0,0c0-0.7-0.5-1.2-1.2-1.2l0,0c-0.7,0-1.2,0.5-1.2,1.2l0,0l0,0l0,0C32.7,76.2,33.2,76.8,33.9,76.8
		L33.9,76.8L33.9,76.8L33.9,76.8z"/>
	<path class="st1" d="M65.9,79.1L65.9,79.1L65.9,79.1L65.9,79.1c-2,0-3.6-1.6-3.6-3.6l0,0l0,0l0,0l0,0c0-2,1.6-3.6,3.6-3.6l0,0
		c2,0,3.6,1.6,3.6,3.6l0,0l0,0l0,0l0,0l0,0C69.6,77.6,67.9,79.1,65.9,79.1L65.9,79.1L65.9,79.1z M65.9,76.8L65.9,76.8L65.9,76.8
		c0.7,0,1.2-0.5,1.2-1.2l0,0l0,0l0,0c0-0.7-0.5-1.2-1.2-1.2l0,0c-0.7,0-1.2,0.5-1.2,1.2l0,0l0,0C64.7,76.2,65.3,76.8,65.9,76.8
		L65.9,76.8L65.9,76.8L65.9,76.8z"/>
	<path class="st1" d="M80.1,57.9H67.8H60h-7.8h-7.8h-7.8H21.7c-0.5,0-0.9,0.3-0.9,0.9l-0.3,8.5l-0.9,0.7v4.2v3.2
		c0,0.9,0.7,1.3,1.2,1.3h9.1c-0.1-0.3-0.1-0.7-0.1-1l0,0c0-2.2,1.9-4.1,4.1-4.1c2.2,0,4.1,1.9,4.1,4.1l0,0c0,0.3,0,0.7-0.1,1h13.5
		H62c-0.1-0.3-0.1-0.7-0.1-1l0,0c0-2.2,1.9-4.1,4.1-4.1s4.1,1.9,4.1,4.1l0,0c0,0.3,0,0.8-0.1,1.1L83.4,74L83.5,61
		C83.4,59.3,81.5,57.8,80.1,57.9z M27.5,73.4c0,0.5-0.4,0.9-0.9,0.9h-2.3c-0.5,0-0.9-0.4-0.9-0.9V62.1c0-0.5,0.4-0.9,0.9-0.9h2.3
		c0.5,0,0.9,0.4,0.9,0.9V73.4L27.5,73.4z M41.3,65.7c0,0.5-0.4,0.9-0.9,0.9h-9.3c-0.5,0-0.9-0.4-0.9-0.9V62c0-0.5,0.4-0.9,0.9-0.9
		h9.3c0.5,0,0.9,0.4,0.9,0.9V65.7z M54.6,65.7c0,0.5-0.4,0.9-0.9,0.9h-9.3c-0.5,0-0.9-0.4-0.9-0.9V62c0-0.5,0.4-0.9,0.9-0.9h9.3
		c0.5,0,0.9,0.4,0.9,0.9V65.7z M67.9,65.7c0,0.5-0.4,0.9-0.9,0.9h-9.3c-0.5,0-0.9-0.4-0.9-0.9V62c0-0.5,0.4-0.9,0.9-0.9H67
		c0.5,0,0.9,0.4,0.9,0.9V65.7z M81.2,65.7c0,0.5-0.4,0.9-0.9,0.9H71c-0.5,0-0.9-0.4-0.9-0.9V62c0-0.5,0.4-0.9,0.9-0.9h7.6
		c1.5,0,2.6,1,2.6,1.9V65.7L81.2,65.7z"/>
</g>
<rect x="55.6" y="24.7" class="st2" width="26" height="27.7"/>
<text transform="matrix(1 0 0 1 55.6085 50.2269)" class="st1 st3 st4">&amp;</text>
</svg>
