<?xml version="1.0" encoding="utf-8"?>
<!-- Generator: Adobe Illustrator 19.2.1, SVG Export Plug-In . SVG Version: 6.00 Build 0)  -->
<svg version="1.1" id="Layer_1" xmlns="http://www.w3.org/2000/svg" xmlns:xlink="http://www.w3.org/1999/xlink" x="0px" y="0px"
	 viewBox="0 0 96 96" style="enable-background:new 0 0 96 96;" xml:space="preserve">
<style type="text/css">
	.st0{fill:#C42227;stroke:#C42126;stroke-miterlimit:10;}
	.st1{fill:#FFFFFF;}
	.st2{fill:#C42227;}
</style>
<title>roofgarden</title>
<circle class="st0" cx="48.3" cy="48.3" r="45.3"/>
<path class="st1" d="M84.1,62.6c0,0.7-0.7,1.3-1.6,1.3H11.9c-0.9,0-1.6-0.6-1.6-1.3l0,0c0-0.7,0.7-1.3,1.6-1.3h70.6
	C83.4,61.4,84.1,61.9,84.1,62.6L84.1,62.6z"/>
<path class="st1" d="M81.6,34.2L80.9,33l-1.2,0.5c0,0-3.8,1.4-8.4,1.4c-4.6,0-8.3-1.3-11.2-3.9c0,0-0.1,0-0.1-0.1
	c-2.9-2.1-5.6-0.8-5.6-0.8l0,0C50.1,33.2,38.5,40.6,30,40.6c-10.1,0-19.5,2.1-19.6,17.4c0.3,0.9,1.1,2.2,3.3,2.2h70.2l0.4-1.1
	C84.5,58.7,88.7,47.3,81.6,34.2z M38.7,44c-1,0-1.8-0.8-1.8-1.8c0-1,0.8-1.8,1.8-1.8c1,0,1.8,0.8,1.8,1.8C40.4,43.2,39.6,44,38.7,44
	z M44,42.2c-1,0-1.8-0.8-1.8-1.8c0-1,0.8-1.8,1.8-1.8c1,0,1.8,0.8,1.8,1.8C45.8,41.4,45,42.2,44,42.2z M48.9,39.6
	c-1,0-1.8-0.8-1.8-1.8c0-1,0.8-1.8,1.8-1.8c1,0,1.8,0.8,1.8,1.8C50.7,38.8,49.9,39.6,48.9,39.6z"/>
<g>
	<path class="st2" d="M63.6,39.4L63.6,39.4c0.3-0.6,0.6-1.2,1.2-1.4c0.6-0.2,1.2-0.2,1.7-0.1c1.4,0.1,2.8,0.1,4.1,0.1
		c-1,1-1.8,2.2-2.5,3.5c-0.9,1.3-1.5,2.6-2.3,3.8c-1.5-0.9-2.9-1.7-4.4-2.5C61.9,41.7,62.8,40.5,63.6,39.4z"/>
	<path class="st2" d="M58.1,49.8c-0.2-1.2,0.6-2.5,1.2-3.4l0.2-0.2l-0.3-0.1c-0.2-0.2-0.6-0.4-1-0.6c1.2,0,2.5,0,3.7,0.1h0.6
		c0.7,1.2,1.5,2.5,2.2,3.5c-0.2-0.1-0.4-0.2-0.6-0.3l-0.2-0.1l-0.2,0.2c-0.7,1-1.3,2.1-1.9,3.2c-1-0.1-1.8,0-2.8-0.6
		C58.5,51.1,58.1,50.4,58.1,49.8z"/>
	<path class="st2" d="M64.2,57.6C64.4,57.6,64.5,57.6,64.2,57.6L64.2,57.6c-0.6,0-1.3,0.2-1.8-0.3c-0.4-0.4-0.6-0.9-1-1.4
		c-0.6-1.2-1.3-2.3-2-3.5c1.4,0.4,2.9,0.4,4.4,0.4s3.1,0,4.6,0.1c0,1.7,0,3.4,0,4.9C67.1,57.8,65.6,57.7,64.2,57.6z"/>
	<path class="st2" d="M71.6,37.9c0.6-0.2,1.3-0.3,1.9-0.1c1.2,0.4,1.9,1.7,2.5,2.8l0.1,0.2l0.2-0.1c0.3-0.2,0.7-0.3,1-0.6
		c-0.6,1-1.2,2.1-1.8,3.1l-0.3,0.6c-1.4,0.1-2.9,0-4.3,0c0.2-0.1,0.4-0.2,0.6-0.3l0.2-0.2l-0.1-0.2c-0.6-1.2-1.2-2.2-1.8-3.2
		C70.2,39.2,70.6,38.5,71.6,37.9z"/>
	<path class="st2" d="M77.1,55.2c-0.1,0.6-0.3,1.3-0.9,1.7c-1,0.9-2.5,0.9-3.7,0.6h-0.3l-0.1,0.3c-0.1,0.3-0.1,0.7-0.1,1.2
		c-0.6-1-1.2-2.1-1.8-3.2L70,55.3c0.6-1.2,1.4-2.5,2.1-3.7c0,0.2,0,0.4,0,0.6v0.4h0.2c1.2,0.2,2.5,0,3.7,0.1
		C76.6,53.4,77.2,54.2,77.1,55.2z"/>
	<path class="st2" d="M80.7,49.4c-0.2,0.6-0.6,1-0.7,1.5c-0.7,1.2-1.5,2.2-2.1,3.5c-0.3-1.5-1.2-2.6-1.8-3.8c-0.7-1.3-1.5-2.5-2.2-4
		c1.5-0.9,2.9-1.7,4.3-2.5c0.7,1.2,1.3,2.5,2,3.7C80.4,48.3,80.8,48.8,80.7,49.4z"/>
</g>
</svg>
