<?xml version="1.0" encoding="utf-8"?>
<!-- Generator: Adobe Illustrator 19.2.1, SVG Export Plug-In . SVG Version: 6.00 Build 0)  -->
<svg version="1.1" id="Layer_1" xmlns="http://www.w3.org/2000/svg" xmlns:xlink="http://www.w3.org/1999/xlink" x="0px" y="0px"
	 viewBox="0 0 96 96" style="enable-background:new 0 0 96 96;" xml:space="preserve">
<style type="text/css">
	.st0{fill:#C42227;stroke:#C42126;stroke-width:2;stroke-miterlimit:10;}
	.st1{fill:#FFFFFF;}
</style>
<title>roofgarden</title>
<circle class="st0" cx="48.3" cy="48.3" r="45.3"/>
<path class="st1" d="M69.7,63.2c-3.4,0-6.7,3.2-7,3.6c-0.4,0.4-1.3,0.8-1.9,0.8l-13.5-0.1h-1.6l-12.6,0c-0.5,0-1.5-0.4-1.9-0.8
	c-0.2-0.2-3.5-3.5-7-3.6c-3.4,0-6.7,3.2-7,3.6c-0.7,0.7-0.6,1.4-0.5,1.6c0.1,0.2,0.4,0.8,1.5,0.8h4.5c0.3,0,0.6,0.3,0.6,0.6l0,2.9
	c0,0.3-0.3,0.6-0.6,0.6h-4.5c-0.5,0-0.9,0.2-1.2,0.4c-0.4,0.4-0.5,1.2,0.2,1.9c0.2,0.2,3.5,3.5,7,3.6c3.4,0,6.7-3.2,7-3.6
	c0.4-0.4,1.3-0.8,1.9-0.8l12.6,0h1.6l13.4,0c0.5,0,1.5,0.4,1.9,0.8c0.2,0.2,3.5,3.5,7,3.6c3.4,0,6.7-3.2,7-3.5
	c0.7-0.7,0.6-1.4,0.5-1.6c-0.1-0.2-0.4-0.8-1.5-0.8l-4.5,0c-0.3,0-0.6-0.3-0.6-0.6v-2.9c0-0.3,0.3-0.6,0.6-0.6h4.5
	c0.5,0,0.9-0.2,1.2-0.4c0.4-0.4,0.5-1.2-0.2-1.9C76.5,66.6,73.1,63.2,69.7,63.2z"/>
<polygon class="st1" points="74.3,80.1 74.3,80.1 74.3,80.1 "/>
<g>
	<path class="st1" d="M27.9,31.9c1.4,0,2.7,0.2,4,0.6l4.6-12.2h-8.9c-1.6,0-2.9,1.3-2.9,2.9s1.3,2.9,2.9,2.9c0.5,0,0.9,0.4,0.9,0.9
		c0,0.5-0.4,0.9-0.9,0.9c-2.5,0-4.6-2.1-4.6-4.7s2.1-4.7,4.6-4.7h10.2c0.1,0,0.1,0,0.2,0c0.1,0,0.1,0,0.2,0c0,0,0,0,0,0
		c0.1,0,0.1,0.1,0.2,0.1c0,0,0.1,0,0.1,0.1c0,0,0.1,0.1,0.1,0.1c0,0,0.1,0.1,0.1,0.1c0,0,0,0.1,0,0.1c0,0.1,0,0.1,0,0.2c0,0,0,0,0,0
		c0,0.1,0,0.1,0,0.2c0,0.1,0,0.1,0,0.2l-2.2,6l22.3,0.4l2.4-7.9h-5c-0.5,0-0.9-0.4-0.9-0.9c0-0.5,0.4-0.9,0.9-0.9h10.1
		c0.5,0,0.9,0.4,0.9,0.9c0,0.5-0.4,0.9-0.9,0.9h-3.2l-2.6,8.4l5.1,7.2c2.1-1.3,4.5-2.1,7.2-2.1C80,31.7,86,37.9,86,45.4
		c0,7.6-6,13.7-13.4,13.7c-7.1,0-12.9-5.7-13.4-12.8h-2c-0.2,1-0.8,1.8-1.6,2.3l0.9,2.9c0.1,0.5-0.1,1-0.6,1.1c-0.1,0-0.2,0-0.2,0
		c-0.4,0-0.7-0.3-0.8-0.6l-0.9-2.9c0,0-0.1,0-0.1,0c-1.9,0-3.4-1.6-3.4-3.5c0-0.6,0.2-1.2,0.4-1.6L35.5,27.9l-2,5.3
		c4.6,2.2,7.8,6.9,7.8,12.5c0,7.6-6,13.7-13.4,13.7s-13.4-6.2-13.4-13.7S20.5,31.9,27.9,31.9z M59.6,28.8l-4.3,13.8
		c0.8,0.4,1.4,1.1,1.6,2h2.2c0.2-3.9,2-7.3,4.8-9.6L59.6,28.8z M60.9,44.5h9.9L65,36.4C62.7,38.4,61.2,41.3,60.9,44.5z M72.6,57.4
		c6.4,0,11.7-5.4,11.7-11.9c0-6.6-5.2-11.9-11.7-11.9c-2.3,0-4.4,0.7-6.1,1.8l6.8,9.6c0.2,0.3,0.2,0.6,0.1,0.9
		c-0.1,0.3-0.4,0.5-0.8,0.5H60.9C61.4,52.5,66.4,57.4,72.6,57.4z M53.8,47.3c0.9,0,1.7-0.8,1.7-1.7s-0.7-1.7-1.7-1.7
		c-0.9,0-1.7,0.8-1.7,1.7C52.2,46.6,52.9,47.3,53.8,47.3z M52,42.7C52,42.7,52,42.7,52,42.7l-0.8-2.9c-0.1-0.5,0.1-1,0.6-1.1
		c0.5-0.1,0.9,0.1,1.1,0.6l0.8,2.9L58.1,28l-20.4-0.4L52,42.7z M27.9,57.6c6.4,0,11.7-5.4,11.7-11.9c0-4.8-2.7-8.9-6.7-10.8L28.7,46
		c-0.1,0.4-0.5,0.6-0.8,0.6c-0.1,0-0.2,0-0.3-0.1c-0.5-0.2-0.7-0.7-0.5-1.2l4.2-11.1c-1.1-0.3-2.2-0.5-3.4-0.5
		c-6.4,0-11.7,5.4-11.7,11.9S21.4,57.6,27.9,57.6z"/>
</g>
</svg>
