<?xml version="1.0" encoding="utf-8"?>
<!-- Generator: Adobe Illustrator 19.2.1, SVG Export Plug-In . SVG Version: 6.00 Build 0)  -->
<svg version="1.1" id="Layer_1" xmlns="http://www.w3.org/2000/svg" xmlns:xlink="http://www.w3.org/1999/xlink" x="0px" y="0px"
	 viewBox="0 0 96 96" style="enable-background:new 0 0 96 96;" xml:space="preserve">
<style type="text/css">
	.st0{fill:#C42227;stroke:#C42126;stroke-miterlimit:10;}
	.st1{fill:#FFFFFF;}
</style>
<title>roofgarden</title>
<circle class="st0" cx="48.3" cy="48.3" r="45.3"/>
<path class="st1" d="M79.1,24.8c0.5,0,0.8-0.4,0.8-0.8v-2.3c0-0.4-0.4-0.8-0.8-0.8h-59c-0.5,0-0.8,0.4-0.8,0.8V24
	c0,0.4,0.4,0.8,0.8,0.8h2v49h-2c-0.5,0-0.8,0.4-0.8,0.8v2.3c0,0.4,0.4,0.8,0.8,0.8h59c0.5,0,0.8-0.4,0.8-0.8v-2.3
	c0-0.4-0.4-0.8-0.8-0.8h-2v-49H79.1z M37.2,73.8h-5.3h-2.2h-5.3v-49h5.3h2.2h5.3V73.8z M52.3,73.8c0,0-5.9,0-6.2,0
	c-0.5,0-1.3,0-1.3,0h-5.3v-49h5.3H47h5.3V73.8z M75.7,57.8c0,0.5-0.3,1-0.8,1.3v14.7h-5.3V59.4h-2.2v14.5h-5.3l-2.3-0.1h-5.3v-49
	h5.3h2.3h5.3v17.4c0.3-0.1,0.7-0.1,1.1-0.1s0.7,0.1,1.1,0.1V24.8h5.3v23.9c0.5,0.3,0.8,0.8,0.8,1.3V57.8z"/>
<path class="st1" d="M73.1,49h-0.4v-1.5c0-2.2-1.9-3.9-4.2-3.9s-4.2,1.8-4.2,3.9V49H64c-0.7,0-1.4,0.4-1.4,1v6.8c0,0.6,0.6,1,1.4,1
	h9.2c0.7,0,1.4-0.4,1.4-1V50C74.4,49.5,73.8,49,73.1,49z M71.3,49h-5.4v-1.5c0-1.4,1.2-2.5,2.7-2.5s2.7,1.1,2.7,2.5V49z"/>
<path class="st1" d="M63.8,55.4c-1.1,0-2.2,0.2-3.2,0.6c-0.8-1.8-1.7-3.8-2.8-6.1l0.7-1.9h2.3v-2H52c-0.8,1,0.3,1,4.2,1.9l-0.7,1.9
	H38.1c1.2-4.1,0.6-3.8,5.8-3.8v-2c-7.2,0.1-6-0.8-9.9,11.8c-0.6-0.1-1.2-0.2-1.8-0.2c-5.6,0-10,4.5-10,10s4.5,10,10,10s10-4.5,10-10
	c0-4.1-2.6-7.7-6.1-9.3c0.2-0.7,0.4-1.4,0.7-2.2c14.6,15.6,9.1,13,17.1,13.4H54c0.9,4.6,5,8,9.8,8c5.6,0,10-4.5,10-10
	S69.2,55.4,63.8,55.4z M39.8,65.6c0,4.2-3.5,7.7-7.7,7.7s-7.7-3.5-7.7-7.7c0-4.2,3.5-7.7,7.7-7.7c0.3,0,0.8,0,1.1,0.1
	c-2.5,7.7-2.1,6.8-2.1,7.5c0,0.6,0.4,1,1,1c1-0.1,0.8,0.1,3.2-7.9C38,59.9,39.8,62.6,39.8,65.6z M49.7,65.1L37.6,51.9h17.1
	L49.7,65.1z M53.7,65.5h-1.9l4.8-12.7l1.9,4.1C55.6,58.7,53.7,61.8,53.7,65.5z M59.5,59l2.9,6.5h-6.4C56.1,62.8,57.4,60.3,59.5,59z
	 M63.8,73.1c-3.6,0-6.6-2.5-7.4-5.7c8,0,8.7,0.4,8.8-1c0-0.4-0.1-0.7-3.7-8.4c0.7-0.2,1.4-0.3,2.2-0.3c4.2,0,7.7,3.5,7.7,7.7
	S68,73.1,63.8,73.1z"/>
</svg>
