<?xml version="1.0" encoding="utf-8"?>
<!-- Generator: Adobe Illustrator 19.2.1, SVG Export Plug-In . SVG Version: 6.00 Build 0)  -->
<svg version="1.1" id="Layer_1" xmlns="http://www.w3.org/2000/svg" xmlns:xlink="http://www.w3.org/1999/xlink" x="0px" y="0px"
	 viewBox="0 0 96 96" style="enable-background:new 0 0 96 96;" xml:space="preserve">
<style type="text/css">
	.st0{fill:#C42126;stroke:#C42126;stroke-miterlimit:10;}
	.st1{fill:#C42126;}
	.st2{fill:#FFFFFF;}
</style>
<title>roofgarden</title>
<circle class="st0" cx="48.3" cy="48" r="45.3"/>
<g>
	<path class="st1" d="M337.5,66.7l1.2,0.7c0.3,0,0.3-0.1,0.3-0.3c0-0.1,0-0.3-0.1-0.4l-2.7-5.2l-5.9,0.2c-0.3,0-0.4,0.1-0.4,0.4
		c0,0,0.1,0.1,0.3,0.3l1.2,0.7l-1.3,2.1c-0.4,0.6-0.5,1.1-0.5,1.5c0,0.3,0.1,0.7,0.4,1.1l4,7.3c-0.1-0.4-0.1-0.8-0.1-1.3
		c0-0.7,0.3-1.4,0.7-2.1L337.5,66.7L337.5,66.7z"/>
	<path class="st1" d="M339.1,62.5l3.3-5.3c-1.2-2.9-2.5-4.3-3.9-4.3c-0.8,0-1.3,0.3-1.7,0.7l-3.1,5.2L339.1,62.5L339.1,62.5z"/>
	<path class="st1" d="M336.5,77h6.3v-6.9h-6.2c-0.8,1.1-1.2,1.8-1.5,2.2c-0.3,0.7-0.4,1.3-0.4,2C334.7,76,335.3,77,336.5,77
		L336.5,77z"/>
	<path class="st1" d="M349.4,61.3l2.8-5c0.1-0.1,0.1-0.4,0.1-0.6c0-0.3-0.1-0.3-0.3-0.3c0,0-0.1,0-0.3,0.1l-1.3,0.6l-1.1-2.5
		c-0.5-1.1-1.6-1.7-3.1-1.7h-7.4c0.9,0.3,1.5,0.6,1.9,0.8c0.8,0.6,1.5,1.8,2.3,3.5l1.5,3.2l-1.1,0.6c-0.1,0-0.1,0.1-0.1,0.3
		c0,0.1,0.1,0.3,0.4,0.3L349.4,61.3L349.4,61.3z"/>
	<path class="st1" d="M352.3,75.8l4.1-7.8c-0.7,0.7-1.2,1.3-2,1.4c-0.5,0.1-1.3,0.3-2.4,0.3h-4.6v-1c0-0.4-0.1-0.6-0.3-0.6
		c-0.2,0-0.3,0-0.3,0.1l-2.9,5.3l2.9,4.8c0.3,0.4,0.4,0.6,0.5,0.4c0.1,0,0.3-0.1,0.3-0.3v-1.6h2.5C351.3,77,351.8,76.7,352.3,75.8
		L352.3,75.8z"/>
	<path class="st1" d="M350.5,68.8h2.7c0.7,0,1.3-0.3,2-0.8c0.8-0.6,1.1-1.3,1.1-2c0-0.3-0.1-0.7-0.3-1l-3.2-5.2l-5.6,3.4L350.5,68.8
		L350.5,68.8z"/>
</g>
<path class="st2" d="M49.4,45.9L49.4,45.9c0.1,0,0.1,0.1,0.1,0.1c0,0,0,0,0.1,0c0.1,0,0.1,0,0.2,0l0,0c0.1,0,0.1,0,0.2,0l0,0
	c0,0,0.1,0,0.2,0l0,0l0,0c0,0,0.1-0.1,0.1-0.1l0,0c0,0,0-0.1,0.1-0.1l0,0c0-0.1,0-0.1,0-0.2c0,0,0,0,0-0.1c0-0.1,0-0.1,0-0.1l0,0
	l-1-6.2c-0.1-0.3-0.4-0.5-0.6-0.5c-0.3,0.1-0.5,0.4-0.5,0.6l0.4,3.2l-3.6-6c-0.2-0.3-0.5-0.4-0.8-0.2c-0.3,0.2-0.4,0.5-0.2,0.8
	l3.5,5.9l-2.5-1.9c-0.3-0.2-0.6-0.2-0.8,0.1c-0.2,0.3-0.2,0.6,0.1,0.8L49.4,45.9z"/>
<path class="st2" d="M75.9,44.4H61.4c-0.9,0-1.6,0.5-1.6,1.1v4.3H41.3v-4.3c0-0.6-0.8-1.1-1.6-1.1H25.4c-0.9,0-1.6,0.5-1.6,1.1v34
	c0,0.6,0.8,1.1,1.6,1.1h50.4c0.9,0,1.6-0.5,1.6-1.1v-34C77.5,44.9,76.7,44.4,75.9,44.4z M74.3,78.4H27.1V46.5h11.1v4.3
	c0,0.6,0.8,1.1,1.6,1.1h21.7c0.9,0,1.6-0.5,1.6-1.1v-4.3h11.3V78.4z"/>
<g transform="translate(0,-952.36218)">
	<path class="st2" d="M36.5,963.1c-1.5-1.2-3.7-1-4.8,0.4L19.5,979c-1.1,1.4-0.8,3.6,0.7,4.8l13.9,11c0.3,0.2,0.7,0.2,0.9-0.1
		l12.2-15.5c0.2-0.2,0.2-0.5,0-0.7c-0.5-0.8-0.7-1.4-0.8-1.8c0-0.4,0.1-0.8,0.4-1.2c0.3-0.4,0.6-0.6,1.1-0.7c0.4-0.1,1,0,1.7,0.3
		c0,0,0.2,0.1,0.3,0.1c0.2,0,0.4,0,0.6-0.2c0.2-0.3,0.1-0.6-0.1-0.9L36.5,963.1z M35.8,964l12.1,9.5c-0.1,0-0.1,0-0.2,0
		c-0.7,0.1-1.3,0.6-1.8,1.1c-0.4,0.6-0.7,1.2-0.7,2c0,0.1,0,0.1,0.1,0.2l-12.1-9.5c-0.9-0.7-1.1-2.2-0.5-3
		C33.4,963.4,34.9,963.3,35.8,964z M31.2,966.2c0.2,0.8,0.6,1.5,1.3,2l13.4,10.6l-11.5,14.6L21,982.8c-0.9-0.7-1.1-2.2-0.5-3
		L31.2,966.2z"/>
</g>
</svg>
