<?xml version="1.0" encoding="utf-8"?>
<!-- Generator: Adobe Illustrator 19.2.1, SVG Export Plug-In . SVG Version: 6.00 Build 0)  -->
<svg version="1.1" id="Layer_1" xmlns="http://www.w3.org/2000/svg" xmlns:xlink="http://www.w3.org/1999/xlink" x="0px" y="0px"
	 viewBox="0 0 96 96" style="enable-background:new 0 0 96 96;" xml:space="preserve">
<style type="text/css">
	.st0{fill:#C42227;stroke:#C42126;stroke-miterlimit:10;}
	.st1{fill:#C42126;}
	.st2{fill:#FFFFFF;}
</style>
<title>roofgarden</title>
<circle class="st0" cx="48.3" cy="48.3" r="45.3"/>
<path class="st1" d="M37.5,27.7"/>
<path class="st1" d="M33,27.7"/>
<path class="st2" d="M67.5,16.2H31.1c-3.5,0-6.4,2.9-6.4,6.4v45.6c0,3.2,2.4,5.9,5.5,6.3v3.3c0,1.1,0.9,1.9,1.9,1.9h5.2
	c1.1,0,1.9-0.9,1.9-1.9v-3.2h20.1v3.2c0,1.1,0.9,1.9,1.9,1.9h5.2c1.1,0,1.9-0.9,1.9-1.9v-3.3c3.1-0.5,5.5-3.1,5.5-6.3V22.6
	C74,19.1,71.1,16.2,67.5,16.2z M31.1,21.5h36.4c0.6,0,1.1,0.5,1.1,1.1V42H30V22.6C30,22,30.5,21.5,31.1,21.5z M37.4,58.3
	c-2.2,0-4.1-1.8-4.1-4.1c0-2.2,1.8-4.1,4.1-4.1c2.2,0,4.1,1.8,4.1,4.1C41.4,56.5,39.6,58.3,37.4,58.3z M61.3,58.3
	c-2.2,0-4.1-1.8-4.1-4.1c0-2.2,1.8-4.1,4.1-4.1c2.2,0,4.1,1.8,4.1,4.1S63.5,58.3,61.3,58.3z"/>
</svg>
