<?xml version="1.0" encoding="utf-8"?>
<!-- Generator: Adobe Illustrator 19.2.1, SVG Export Plug-In . SVG Version: 6.00 Build 0)  -->
<svg version="1.1" id="Layer_1" xmlns="http://www.w3.org/2000/svg" xmlns:xlink="http://www.w3.org/1999/xlink" x="0px" y="0px"
	 viewBox="0 0 96 96" style="enable-background:new 0 0 96 96;" xml:space="preserve">
<style type="text/css">
	.st0{fill:#C42227;stroke:#C42126;stroke-miterlimit:10;}
	.st1{fill:#C42126;}
	.st2{fill:#FFFFFF;}
</style>
<title>roofgarden</title>
<circle class="st0" cx="48.3" cy="48.3" r="45.3"/>
<path class="st1" d="M37.5,27.7"/>
<path d="M31.2,63.4"/>
<path d="M64.9,63.4"/>
<path class="st2" d="M69.7,53.8l-4.3-11.1c-0.9-2.1-2.6-3.9-5.9-3.9h-6.1H43.2H37c-3.3,0-5.1,1.8-5.9,3.9l-4.3,11.1
	c-1.7,0.2-4.7,2.2-4.7,6.1v14.2h4.2v4.5c0,5.5,7.9,5.5,7.9,0v-4.5h13.9h14.2v4.5c0,5.5,7.9,5.5,7.9,0v-4.5h4.2V59.8
	C74.4,56,71.4,54,69.7,53.8z M30.3,65.4c-2,0-3.6-1.7-3.6-3.7c0-2,1.6-3.7,3.6-3.7s3.6,1.7,3.6,3.7C33.9,63.7,32.2,65.4,30.3,65.4z
	 M48.2,53.7L48.2,53.7h-17l3.2-8.7c0.4-1.3,1-2.1,2.4-2.1h11.4l0,0h11.3c1.4,0,2,1,2.4,2.1l3.2,8.7C65.2,53.7,48.2,53.7,48.2,53.7z
	 M66.2,65.4c-2,0-3.6-1.7-3.6-3.7c0-2,1.6-3.7,3.6-3.7s3.6,1.7,3.6,3.7C69.8,63.7,68.2,65.4,66.2,65.4z"/>
<path class="st1" d="M33,27.7"/>
<g>
	<path class="st2" d="M47.4,36.3V35l-0.2,0c-4.2-0.4-7.3-3-7.3-6.2h4.4c0.1,0.6,1.1,1.5,2.9,1.8l0.3,0.1v-4l-0.2,0
		c-4.3-0.4-7.3-3.1-7.3-6.3s3.1-5.9,7.3-6.3l0.2,0v-1.3h1.7v1.3l0.2,0c4.2,0.4,7.3,3,7.3,6.2l-4.4,0c-0.1-0.6-1.1-1.5-2.9-1.8
		l-0.3-0.1v4l0.2,0c4.3,0.4,7.3,3.1,7.3,6.3c0,3.3-3.1,5.9-7.3,6.3l-0.2,0v1.3H47.4z M49.2,30.6l0.3-0.1c1.8-0.3,2.9-1.3,2.9-1.9
		s-1-1.6-2.9-1.9l-0.3-0.1V30.6z M47.1,18.3c-1.9,0.3-2.9,1.3-2.9,1.9c0,0.6,1,1.6,2.9,1.9l0.3,0.1v-3.9L47.1,18.3z"/>
</g>
</svg>
