<?xml version="1.0" encoding="utf-8"?>
<!-- Generator: Adobe Illustrator 19.2.1, SVG Export Plug-In . SVG Version: 6.00 Build 0)  -->
<svg version="1.1" id="Layer_1" xmlns="http://www.w3.org/2000/svg" xmlns:xlink="http://www.w3.org/1999/xlink" x="0px" y="0px"
	 viewBox="0 0 96 96" style="enable-background:new 0 0 96 96;" xml:space="preserve">
<style type="text/css">
	.st0{fill:#C42227;stroke:#C42126;stroke-miterlimit:10;}
	.st1{fill:#FFFFFF;}
</style>
<title>roofgarden</title>
<circle class="st0" cx="48.3" cy="48.3" r="45.3"/>
<path class="st1" d="M76.7,42.8h-1.5l1.1,2.8c0.7,1.9,1.4,5.2,1.4,7.4V68c0,2.4-2,4.4-4.4,4.4s-4.4-2-4.4-4.4v-2.4
	c-6.3,0.8-13.2,1.3-20.2,1.3s-13.9-0.5-20.2-1.3V68c0,2.4-2,4.4-4.4,4.4s-4.4-2-4.4-4.4V52.9c0-2.1,0.6-5.4,1.4-7.4l1.1-2.8h-1.5
	c-1.9,0-3.5-1.6-3.5-3.5s1.6-3.5,3.5-3.5h4.1l3-7.8c0.7-1.9,3-4,5-4.6c0,0,5.2-1.5,15.9-1.5s15.9,1.5,15.9,1.5c2,0.6,4.2,2.7,5,4.6
	l3,7.8h4.1c1.9,0,3.5,1.6,3.5,3.5C80.2,41.2,78.7,42.8,76.7,42.8z M52.6,32.2c0,2.2-1.7,4-4,4s-4-1.8-4-4c0-2.2,1.7-4,4-4
	C50.8,28.1,52.6,30,52.6,32.2z M36.4,29.1c-2.2,0-4,1.7-4,4s1.7,4,4,4s4-1.7,4-4C40.4,30.8,38.5,29.1,36.4,29.1z M31.5,51.3
	c0-1.9-1.6-3.5-3.5-3.5s-3.5,1.6-3.5,3.5s1.6,3.5,3.5,3.5S31.5,53.3,31.5,51.3z M60.3,53.2c0,0-5.9,2.7-11.8,2.7s-11.8-2.7-11.8-2.7
	c-2-0.9-2.5-0.4-0.9,1.3c0,0,6,6.3,12.7,6.3s12.7-6.3,12.7-6.3C62.8,52.8,62.5,52.3,60.3,53.2z M66.1,41.4c0.6-0.1,1.4-0.3,2-0.4
	c0.6-0.2,1-0.7,0.8-1.4c-1.2-3-2.4-6.4-3.5-10.2c-0.3-0.7-1-1.5-1.7-1.6c-10.1-1.6-20.3-1.6-30.5,0c-0.7,0.1-1.5,0.8-1.7,1.6
	c-1.2,3.8-2.4,7.2-3.5,10.2c-0.3,0.6,0.1,1.2,0.8,1.4c0.6,0.1,1.4,0.3,2,0.4c0.3-1.6,1.7-3.2,3-3.4c1.5-0.3,3-0.3,4.6,0
	c1.4,0.2,2.8,1.9,3,3.5c0.1,0.5,0.2,0.8,0.2,1.3c0.3,0,0.6,0,0.9,0.1c0.1-0.7,0.3-1.5,0.4-2.2c0.3-1.6,1.7-3.2,3-3.5
	c1.5-0.3,3-0.3,4.6,0c1.4,0.2,2.8,1.9,3,3.5c0.1,0.7,0.3,1.5,0.4,2.2c0.3,0,0.6,0,0.9-0.1c0.1-0.5,0.2-0.8,0.2-1.3
	c0.3-1.6,1.7-3.2,3-3.5c1.5-0.3,3-0.3,4.6,0C64.5,38.2,65.9,39.8,66.1,41.4z M72.7,51.3c0-1.9-1.6-3.5-3.5-3.5s-3.5,1.6-3.5,3.5
	s1.6,3.5,3.5,3.5S72.7,53.3,72.7,51.3z M60.8,29.1c-2.2,0-4,1.7-4,4s1.7,4,4,4s4-1.7,4-4C64.8,30.8,63,29.1,60.8,29.1z"/>
</svg>
