<?xml version="1.0" encoding="utf-8"?>
<!-- Generator: Adobe Illustrator 19.2.1, SVG Export Plug-In . SVG Version: 6.00 Build 0)  -->
<svg version="1.1" id="Layer_1" xmlns="http://www.w3.org/2000/svg" xmlns:xlink="http://www.w3.org/1999/xlink" x="0px" y="0px"
	 viewBox="0 0 91.6 91.6" style="enable-background:new 0 0 91.6 91.6;" xml:space="preserve">
<style type="text/css">
	.st0{fill:#C42227;stroke:#C42126;stroke-miterlimit:10;}
	.st1{fill:#FFFFFF;}
	.st2{clip-path:url(#SVGID_2_);}
	.st3{fill:#C42126;}
</style>
<title>chemical</title>
<circle class="st0" cx="45.8" cy="45.8" r="44.2"/>
<polygon class="st1" points="20.2,30.5 27.1,79.7 66.8,79.7 74.1,30.5 "/>
<g>
	<g>
		<defs>
			<rect id="SVGID_1_" x="20" y="16.1" width="54.4" height="63.6"/>
		</defs>
		<clipPath id="SVGID_2_">
			<use xlink:href="#SVGID_1_"  style="overflow:visible;"/>
		</clipPath>
		<g class="st2">
			<path class="st1" d="M52.5,21.4H42V19c0-0.6,0.5-1.1,1-1.1l0,0h8.3c0.6,0,1.1,0.4,1.1,1V19v2.4H52.5z M70.5,21.4
				c-1.5,0-8.1,0-15.9,0V18c0-1-0.8-1.8-1.8-1.8h-0.1h-11c-1,0-1.8,0.8-1.8,1.8v0.1v3.5H24c0,0-4-0.2-3.9,7.2h54.3
				C74.4,28.6,74.7,21.5,70.5,21.4"/>
		</g>
	</g>
</g>
<g>
	<path class="st3" d="M47,39c3.6,0.3,6.2,3.5,5.9,7.1c-0.3,3.2-2.9,5.7-6.1,5.9v1.3c1.1,0.2,1.8,1.2,1.6,2.3c0,0.1,0,0.2-0.1,0.3
		l1.2,0.7c2-3,6-3.9,9-1.9c2.8,1.8,3.8,5.5,2.3,8.4c2.2-4.2,0.5-9.4-3.7-11.5c-0.9-0.4-1.8-0.7-2.8-0.9c1.8-4.4-0.3-9.4-4.7-11.2
		C48.8,39.2,47.9,39,47,39L47,39L47,39z"/>
	<path class="st3" d="M45.9,39c-4.7,0.3-8.3,4.4-8,9.1c0.1,0.9,0.3,1.7,0.6,2.6c-4.7,0.7-7.9,5-7.2,9.7c0.1,0.9,0.4,1.8,0.8,2.6
		c-1.6-3.2-0.2-7.1,3.1-8.7c3-1.4,6.5-0.4,8.3,2.3l1.2-0.7c-0.4-1,0.2-2.2,1.2-2.5c0.1,0,0.1,0,0.2-0.1V52c-3.6-0.2-6.3-3.3-6.1-6.9
		C40.2,41.8,42.7,39.2,45.9,39L45.9,39L45.9,39z"/>
	<path class="st3" d="M46.3,47.2c-1.7,0-3.3,0.6-4.6,1.6c0.1,0.2,0.2,0.3,0.3,0.5s0.2,0.3,0.4,0.4s0.3,0.3,0.4,0.4l0.3,0.2
		c2-1.3,4.7-1.3,6.7,0l0.3-0.2c0.1-0.1,0.3-0.2,0.4-0.4c0.1-0.1,0.3-0.3,0.4-0.4c0.1-0.1,0.2-0.3,0.3-0.5c-1.4-1-3.1-1.6-4.8-1.6
		H46.3z"/>
	<path class="st3" d="M38.4,54.3c-0.4,3.5,1.5,6.9,4.8,8.3c0.1-0.2,0.2-0.3,0.2-0.5c0.1-0.2,0.1-0.3,0.2-0.5s0.1-0.4,0.1-0.5
		s0-0.3,0-0.4c-2.2-1.1-3.5-3.4-3.3-5.8L40,54.7l-0.5-0.2L39,54.4L38.4,54.3L38.4,54.3L38.4,54.3z"/>
	<path class="st3" d="M54.5,54.4L54,54.5l-0.5,0.1L53,54.8L52.5,55c0.1,2.4-1.2,4.7-3.4,5.8c0,0.1,0,0.3,0,0.4s0.1,0.4,0.1,0.5
		s0.1,0.4,0.2,0.5c0.1,0.2,0.1,0.3,0.2,0.5C52.9,61.3,54.9,58,54.5,54.4L54.5,54.4z"/>
	<path class="st3" d="M45,56.5l-1.2,0.7c1.6,3.2,0.3,7.1-2.9,8.8c-3,1.5-6.6,0.5-8.4-2.2c2.6,4,7.9,5.1,11.8,2.5
		c0.8-0.5,1.5-1.1,2-1.9c2.9,3.8,8.2,4.5,12,1.6c0.8-0.6,1.5-1.3,2-2.2c-2,3-6.1,3.8-9.1,1.7c-2.7-1.8-3.6-5.4-2.2-8.3l-1-0.7
		c-0.7,0.8-2,0.9-2.8,0.1C45.1,56.6,45.1,56.6,45,56.5L45,56.5L45,56.5z"/>
</g>
</svg>
