<?xml version="1.0" encoding="utf-8"?>
<!-- Generator: Adobe Illustrator 19.2.1, SVG Export Plug-In . SVG Version: 6.00 Build 0)  -->
<svg version="1.1" id="Layer_1" xmlns="http://www.w3.org/2000/svg" xmlns:xlink="http://www.w3.org/1999/xlink" x="0px" y="0px"
	 viewBox="0 0 96 96" style="enable-background:new 0 0 96 96;" xml:space="preserve">
<style type="text/css">
	.st0{fill:#C42227;}
	.st1{fill:#C42126;}
	.st2{fill:#FFFFFF;}
</style>
<title>roofgarden</title>
<circle class="st0" cx="48.3" cy="48.3" r="45.3"/>
<path class="st1" d="M24,22.4"/>
<polygon class="st0" points="33.2,58.2 36.3,75.2 54.5,75.2 57.8,58.2 "/>
<path class="st2" d="M76.5,30.1c-0.4-0.4-0.9-0.7-1.5-0.7H22.7c-0.6,0-1.1,0.2-1.5,0.7c-0.4,0.4-0.5,1-0.5,1.6L27,81.1
	c0.1,1,1,1.7,2,1.7h39.9c1,0,1.8-0.7,2-1.7L77,31.7C77.1,31.1,76.9,30.6,76.5,30.1z M55.6,50.9c-1.7,0.5-2.9,2.1-2.9,3.9
	c0,0.9,0.3,1.8,0.8,2.5c-0.5,0.7-0.8,1.6-0.8,2.5c0,1.9,1.2,3.4,2.9,3.9c-0.1,0.3-0.1,0.7-0.1,1c0,1.1,0.4,2,1.1,2.8
	c-1.6,0.8-3.4,1.3-5.3,1.3c-0.8,0-1.6-0.1-2.3-0.2c-0.8,0.2-1.5,0.2-2.3,0.2c-1.9,0-3.7-0.5-5.3-1.3c0.7-0.7,1.1-1.7,1.1-2.8
	c0-0.4,0-0.7-0.1-1c1.7-0.5,2.9-2.1,2.9-3.9c0-0.9-0.3-1.8-0.8-2.5c0.5-0.7,0.8-1.6,0.8-2.5c0-1.9-1.2-3.4-2.9-3.9
	c0.1-0.3,0.1-0.7,0.1-1c0-1.1-0.4-2.1-1.1-2.8c1.6-0.8,3.4-1.3,5.4-1.3c0.4,0,0.7,0,1,0c0.1-0.4,0.7-4.8,3.6-6.6
	c0.6-0.4,1.4-0.2,1.8,0.4c0.4,0.6,0.2,1.4-0.4,1.8c-1.4,0.9-2.1,3.2-2.3,4.4c0.3,0,0.7,0,1,0c1.9,0,3.8,0.5,5.4,1.3
	c-0.7,0.7-1.1,1.7-1.1,2.8C55.5,50.3,55.5,50.6,55.6,50.9z"/>
<path class="st2" d="M75.8,20.4H56.5c0,0,0-0.1,0-0.1c0-1.8-1.5-3.3-3.3-3.3h-8.6c-1.8,0-3.3,1.5-3.3,3.3c0,0,0,0.1,0,0.1H22
	c-1.8,0-3.3,1.5-3.3,3.3S20.2,27,22,27h53.8c1.8,0,3.3-1.5,3.3-3.3C79.1,21.8,77.7,20.4,75.8,20.4z"/>
</svg>
