<?xml version="1.0" encoding="utf-8"?>
<!-- Generator: Adobe Illustrator 19.2.1, SVG Export Plug-In . SVG Version: 6.00 Build 0)  -->
<svg version="1.1" id="Layer_1" xmlns="http://www.w3.org/2000/svg" xmlns:xlink="http://www.w3.org/1999/xlink" x="0px" y="0px"
	 viewBox="0 0 96 96" style="enable-background:new 0 0 96 96;" xml:space="preserve">
<style type="text/css">
	.st0{fill:#C42227;stroke:#C42126;stroke-miterlimit:10;}
	.st1{fill:#C42126;}
	.st2{fill:#FFFFFF;}
	.st3{fill:#C42227;}
</style>
<title>roofgarden</title>
<circle class="st0" cx="48.3" cy="48.3" r="45.3"/>
<path class="st1" d="M75.5,73.8"/>
<g>
	<ellipse class="st2" cx="38.9" cy="67.7" rx="4.9" ry="4.7"/>
	<ellipse class="st2" cx="75" cy="67.7" rx="4.9" ry="4.7"/>
	<path class="st2" d="M87,59h-1.6c-0.5,0-0.9-0.4-0.9-0.8V47.2c0-0.1,0-0.2-0.1-0.3L78,34.2c-0.1-0.3-0.4-0.5-0.9-0.5h-10
		c-0.5,0-0.9,0.4-0.9,0.8V59h-48c-0.5,0-0.9,0.4-0.9,0.8v6.4h13.1c0.4,0,0.8-0.2,0.9-0.6c1-3.3,4-5.7,7.6-5.7c3.7,0,6.8,2.4,7.6,5.7
		c0.1,0.3,0.4,0.6,0.9,0.6h18.9c0.4,0,0.8-0.2,0.9-0.6c1-3.3,4-5.7,7.6-5.7c3.7,0,6.8,2.4,7.6,5.7c0.1,0.3,0.4,0.6,0.9,0.6h3.5
		c0.5,0,0.9-0.4,0.9-0.8v-5.6C87.8,59.3,87.4,59,87,59z M79.9,47.1H69.4c-0.3,0-0.7-0.3-0.7-0.6V36.4c0-0.3,0.3-0.6,0.7-0.6h5.9
		c0.2,0,0.4,0.1,0.5,0.3l4.6,10.1C80.7,46.6,80.3,47.1,79.9,47.1z"/>
	<path class="st2" d="M59.9,28.4l5.3-6c0.3-0.4,0.8-0.6,1.3-0.6h8.7c0.9,0,1.6,0.5,1.9,1.4c0.2,1-0.7,2-1.7,2h-7.2
		c-0.5,0-1.1,0.2-1.4,0.6l-3.5,4c-0.3,0.3-0.4,0.7-0.4,1.2v22.8c0,0.9-0.9,1.8-1.9,1.8H19c-0.8,0-1.5-0.5-1.7-1.3l-6.6-22.9
		c-0.3-1.2,0.5-2.2,1.7-2.2h46.1C59,29,59.4,28.8,59.9,28.4z"/>
</g>
<g>
	<path class="st3" d="M34.8,43.5l1.2,0.7c0.1,0,0.3-0.1,0.3-0.3c0-0.1,0-0.3-0.1-0.4l-2.4-4.4l-5.3,0.1c-0.3,0-0.3,0.1-0.3,0.4
		c0,0,0.1,0.1,0.3,0.3l1.2,0.7l-1.2,1.8c-0.3,0.6-0.4,1-0.4,1.3c0,0.3,0.1,0.6,0.3,1l3.6,6.2c-0.1-0.4-0.1-0.7-0.1-1.1
		c0-0.6,0.1-1.3,0.6-1.8L34.8,43.5L34.8,43.5z"/>
	<path class="st3" d="M36.2,39.8l3-4.5c-1.2-2.6-2.3-3.8-3.6-3.8c-0.7,0-1.3,0.1-1.6,0.6l-2.9,4.4L36.2,39.8L36.2,39.8z"/>
	<path class="st3" d="M33.8,52.3h5.8v-6h-5.6c-0.7,1-1.2,1.6-1.3,2c-0.3,0.6-0.4,1.1-0.4,1.7C32.3,51.4,32.8,52.3,33.8,52.3
		L33.8,52.3z"/>
	<path class="st3" d="M45.7,38.8l2.6-4.3c0.1-0.1,0.1-0.3,0.1-0.4s0-0.3-0.1-0.3c0,0,0,0-0.3,0.1l-1.2,0.6l-1-2.1
		c-0.4-1-1.4-1.4-2.9-1.4h-6.9c0.9,0.3,1.3,0.4,1.7,0.7c0.7,0.6,1.4,1.6,2.2,3l1.3,2.7l-1,0.4c-0.1,0-0.1,0.1-0.1,0.3
		c0,0.1,0.1,0.3,0.3,0.3L45.7,38.8L45.7,38.8z"/>
	<path class="st3" d="M48.3,51.3l3.7-6.7c-0.6,0.6-1.2,1-1.9,1.3c-0.6,0.1-1.3,0.3-2.2,0.3h-4.2v-0.9c0-0.3-0.1-0.6-0.3-0.6
		c-0.1,0-0.1,0-0.3,0.1l-2.6,4.5l2.7,4.1c0.1,0.3,0.4,0.4,0.6,0.4c0.1,0,0.3-0.1,0.3-0.3v-1.4h2.3C47.3,52.3,47.9,52,48.3,51.3
		L48.3,51.3z"/>
	<path class="st3" d="M46.6,45.3H49c0.6,0,1.2-0.3,1.9-0.7c0.7-0.6,1-1.1,1-1.7c0-0.3-0.1-0.6-0.3-0.9l-3-4.4l-4.9,2.8L46.6,45.3
		L46.6,45.3z"/>
</g>
</svg>
