<?xml version="1.0" encoding="utf-8"?>
<!-- Generator: Adobe Illustrator 19.2.1, SVG Export Plug-In . SVG Version: 6.00 Build 0)  -->
<svg version="1.1" id="Layer_1" xmlns="http://www.w3.org/2000/svg" xmlns:xlink="http://www.w3.org/1999/xlink" x="0px" y="0px"
	 viewBox="0 0 96 96" style="enable-background:new 0 0 96 96;" xml:space="preserve">
<style type="text/css">
	.st0{fill:#C42227;stroke:#C42126;stroke-miterlimit:10;}
	.st1{fill:#FFFFFF;}
	.st2{fill:none;}
	.st3{font-family:'MyriadPro-Regular';}
	.st4{font-size:16px;}
</style>
<title>roofgarden</title>
<circle class="st0" cx="48.3" cy="48.3" r="45.3"/>
<g transform="translate(0,-952.36218)">
	<path class="st1" d="M29.7,966.9c-4.8,0-8.8,4-8.8,8.6v51.7c0,4.6,4.1,8.6,8.8,8.6h44.1c0.8,0,1.6-0.7,1.6-1.6v-51.7
		c0-0.7-0.5-1.3-1.1-1.5c-2.2-0.7-3.6-1.6-4.3-2.5c-0.7-0.9-1-1.8-1-3.1s0.3-2.2,1-3.1c0.7-0.8,1.9-1.6,3.8-2.3c0,0,0.6-0.2,0.8-0.3
		c0.5-0.3,0.8-0.8,0.8-1.3c0-0.9-0.7-1.6-1.6-1.6H29.7z M29.7,970H68c-0.1,0.1-0.3,0.2-0.4,0.3c-1.3,1.5-1.8,3.3-1.8,5.1
		c0,1.9,0.5,3.7,1.8,5.1c0.1,0.1,0.3,0.2,0.5,0.4H29.7c-2.8,0-5.6-2.7-5.6-5.5S26.9,970,29.7,970z M24.1,982
		c1.5,1.3,3.5,2.1,5.6,2.1h42.5v48.6H29.7c-2.8,0-5.6-2.7-5.6-5.5V982z"/>
</g>
<rect x="27.8" y="34.3" class="st2" width="42.9" height="16.6"/>
<text transform="matrix(1 0 0 1 27.7913 45.61)" class="st1 st3 st4">A to Z</text>
<g>
	<path class="st1" d="M40.9,52.2L40.9,52.2c0.4-0.7,0.7-1.5,1.5-1.7c0.7-0.3,1.5-0.3,2.1-0.1c1.7,0.1,3.5,0.1,5.2,0.1
		c-1.3,1.2-2.3,2.8-3.2,4.4c-1.1,1.6-1.9,3.4-3,4.8c-1.9-1.1-3.8-2.1-5.5-3.1C38.9,55.2,40,53.7,40.9,52.2z"/>
	<path class="st1" d="M34.1,65.4c-0.3-1.5,0.7-3.2,1.5-4.3l0.3-0.3l-0.4-0.1c-0.3-0.3-0.8-0.5-1.2-0.8c1.5,0,3.1,0,4.6,0.1h0.7
		c0.9,1.5,1.9,3.1,2.8,4.4c-0.3-0.1-0.5-0.3-0.7-0.4l-0.3-0.1l-0.3,0.3c-0.9,1.2-1.6,2.7-2.4,4c-1.2-0.1-2.3,0-3.5-0.7
		C34.6,67,34.1,66.2,34.1,65.4z"/>
	<path class="st1" d="M41.7,75.2C42,75.2,42.1,75.2,41.7,75.2L41.7,75.2c-0.8,0-1.6,0.3-2.3-0.4c-0.5-0.5-0.8-1.1-1.2-1.7
		c-0.8-1.5-1.6-3-2.6-4.4c1.7,0.5,3.6,0.5,5.5,0.5c1.9,0,3.9,0,5.8,0.1c0,2.1,0,4.3,0,6.2C45.5,75.5,43.6,75.4,41.7,75.2z"/>
	<path class="st1" d="M51.1,50.5c0.8-0.3,1.6-0.4,2.4-0.1c1.5,0.5,2.4,2.1,3.1,3.5l0.1,0.3L57,54c0.4-0.3,0.9-0.4,1.3-0.7
		c-0.7,1.3-1.5,2.7-2.3,3.9l-0.4,0.7c-1.7,0.1-3.6,0-5.4,0c0.3-0.1,0.5-0.3,0.7-0.4l0.3-0.3l-0.1-0.3c-0.7-1.5-1.5-2.8-2.3-4
		C49.4,52.1,49.9,51.2,51.1,50.5z"/>
	<path class="st1" d="M58,72.3c-0.1,0.8-0.4,1.6-1.1,2.1c-1.2,1.1-3.1,1.1-4.6,0.8h-0.4l-0.1,0.4c-0.1,0.4-0.1,0.9-0.1,1.5
		c-0.8-1.3-1.5-2.7-2.3-4l-0.3-0.7c0.8-1.5,1.7-3.1,2.7-4.6c0,0.3,0,0.5,0,0.8V69h0.3c1.5,0.3,3.2,0,4.7,0.1
		C57.4,70,58.1,70.9,58,72.3z"/>
	<path class="st1" d="M62.6,64.9c-0.3,0.7-0.7,1.3-0.9,1.9c-0.9,1.5-1.9,2.8-2.7,4.4c-0.4-1.9-1.5-3.4-2.3-4.8
		c-0.9-1.6-1.9-3.2-2.8-5c1.9-1.1,3.8-2.1,5.4-3.2c0.9,1.5,1.6,3.2,2.6,4.7C62.1,63.5,62.7,64.1,62.6,64.9z"/>
</g>
</svg>
