<?xml version="1.0" encoding="utf-8"?>
<!-- Generator: Adobe Illustrator 19.2.1, SVG Export Plug-In . SVG Version: 6.00 Build 0)  -->
<svg version="1.1" id="Layer_1" xmlns="http://www.w3.org/2000/svg" xmlns:xlink="http://www.w3.org/1999/xlink" x="0px" y="0px"
	 viewBox="0 0 96 96" style="enable-background:new 0 0 96 96;" xml:space="preserve">
<style type="text/css">
	.st0{fill:#C42227;stroke:#C42126;stroke-miterlimit:10;}
	.st1{fill:#FFFFFF;}
	.st2{fill:#C42227;}
</style>
<title>roofgarden</title>
<circle class="st0" cx="48.3" cy="48.3" r="45.3"/>
<g>
	<g>
		<path class="st1" d="M77.6,29.4H22c-0.8,0-1.4,0.6-1.4,1.4v33.3c0,0.8,0.6,1.4,1.4,1.4h26.4v11.4c-1.6,0.6-2.8,2.1-2.8,3.9
			c0,2.3,1.9,4.2,4.2,4.2s4.2-1.9,4.2-4.2c0-1.8-1.2-3.3-2.8-3.9V65.6h26.4c0.8,0,1.4-0.6,1.4-1.4V30.8
			C78.9,30.1,78.3,29.4,77.6,29.4z M77.6,18.3H22c-2.3,0-4.2,1.9-4.2,4.2s1.9,4.2,4.2,4.2h55.6c2.3,0,4.2-1.9,4.2-4.2
			S79.9,18.3,77.6,18.3z"/>
	</g>
</g>
<g>
	<path class="st2" d="M42.8,35.7L42.8,35.7c0.4-0.7,0.7-1.6,1.6-1.8c0.7-0.3,1.6-0.3,2.3-0.1c1.8,0.1,3.7,0.1,5.5,0.1
		c-1.4,1.3-2.4,3-3.4,4.7c-1.1,1.7-2,3.5-3.1,5.1c-2-1.1-4-2.3-5.8-3.3C40.6,38.8,41.8,37.3,42.8,35.7z"/>
	<path class="st2" d="M35.5,49.6c-0.3-1.6,0.7-3.4,1.6-4.5l0.3-0.3L37,44.6c-0.3-0.3-0.8-0.6-1.3-0.8c1.6,0,3.3,0,4.8,0.1h0.7
		c1,1.6,2,3.3,3,4.7c-0.3-0.1-0.6-0.3-0.7-0.4L43.2,48l-0.3,0.3c-1,1.3-1.7,2.8-2.5,4.2c-1.3-0.1-2.4,0-3.7-0.7
		C36.1,51.3,35.5,50.4,35.5,49.6z"/>
	<path class="st2" d="M43.6,59.9C43.9,59.9,44,59.9,43.6,59.9L43.6,59.9c-0.8,0-1.7,0.3-2.4-0.4c-0.6-0.6-0.8-1.1-1.3-1.8
		c-0.8-1.6-1.7-3.1-2.7-4.7c1.8,0.6,3.8,0.6,5.8,0.6s4.1,0,6.1,0.1c0,2.3,0,4.5,0,6.5C47.6,60.2,45.6,60.1,43.6,59.9z"/>
	<path class="st2" d="M53.5,33.9c0.8-0.3,1.7-0.4,2.5-0.1c1.6,0.6,2.5,2.3,3.3,3.7l0.1,0.3l0.3-0.1c0.4-0.3,1-0.4,1.4-0.7
		c-0.7,1.4-1.6,2.8-2.4,4.1l-0.4,0.7c-1.8,0.1-3.8,0-5.7,0c0.3-0.1,0.6-0.3,0.7-0.4l0.3-0.3l-0.1-0.3c-0.7-1.6-1.6-3-2.4-4.2
		C51.7,35.6,52.2,34.6,53.5,33.9z"/>
	<path class="st2" d="M60.7,56.8c-0.1,0.8-0.4,1.7-1.1,2.3c-1.3,1.1-3.3,1.1-4.8,0.8h-0.4l-0.1,0.4c-0.1,0.4-0.1,1-0.1,1.6
		c-0.8-1.4-1.6-2.8-2.4-4.2l-0.3-0.7c0.8-1.6,1.8-3.3,2.8-4.8c0,0.3,0,0.6,0,0.8v0.4h0.3c1.6,0.3,3.4,0,5,0.1
		C60.2,54.4,60.9,55.4,60.7,56.8z"/>
	<path class="st2" d="M65.6,49c-0.3,0.7-0.7,1.4-1,2c-1,1.6-2,3-2.8,4.7c-0.4-2-1.6-3.5-2.4-5.1c-1-1.7-2-3.4-3-5.2
		c2-1.1,4-2.3,5.7-3.4c1,1.6,1.7,3.4,2.7,5C65.1,47.6,65.7,48.2,65.6,49z"/>
</g>
</svg>
