<?xml version="1.0" encoding="utf-8"?>
<!-- Generator: Adobe Illustrator 19.2.1, SVG Export Plug-In . SVG Version: 6.00 Build 0)  -->
<svg version="1.1" id="Layer_1" xmlns="http://www.w3.org/2000/svg" xmlns:xlink="http://www.w3.org/1999/xlink" x="0px" y="0px"
	 viewBox="0 0 96 96" style="enable-background:new 0 0 96 96;" xml:space="preserve">
<style type="text/css">
	.st0{fill:#C42227;stroke:#C42126;stroke-width:2;stroke-miterlimit:10;}
	.st1{fill:#FFFFFF;}
	.st2{fill:none;stroke:#FFFFFF;stroke-width:2;stroke-miterlimit:10;}
</style>
<title>roofgarden</title>
<circle class="st0" cx="47.4" cy="48" r="45.3"/>
<path class="st1" d="M13.1,25L25,44.5c0.6,0.9,1.7,1.2,2.6,0.6l6.2-3.8l15.3,3.8c0.1,0.4,0.3,0.9,0.6,1.3c0.6,1,1.6,1.8,2.8,2.1l0,0
	l0,0.2c0,0.2,0,0.3,0.1,0.4c0.1,0.1,0.2,0.2,0.4,0.3l1.9,0.5c0.2,0,0.3,0,0.4-0.1c0.1-0.1,0.2-0.2,0.3-0.4l2.6-11.2
	c0.1-0.3-0.1-0.6-0.4-0.7L55.7,37c-0.3-0.1-0.6,0.1-0.7,0.4l0,0.2l0,0c-1.5-0.4-3.1,0.1-4.2,1.1l-3.5-5.6l4.3-2.6
	c0.3-0.2,0.4-0.5,0.2-0.8L51,28.3c4.9-3.3,6.4-9.9,3.2-15s-9.8-6.9-14.9-4L38.6,8c-0.2-0.3-0.5-0.4-0.8-0.2l-24,14.7
	C12.9,23,12.6,24.2,13.1,25z M54.7,38.8L54.7,38.8l-2,8.6l0,0c-1.8-0.4-2.9-2.3-2.5-4.1l0.5-2C51.1,39.4,52.9,38.3,54.7,38.8z
	 M46.3,33.7l2.9,4.8l-7.6-1.9L46.3,33.7z M52.3,14.6c2.8,4.6,2.4,9-2.3,12.1l-9.7-15.8C45.1,8.1,49.4,10,52.3,14.6z"/>
<polygon class="st2" points="73.9,72.6 25.3,72.6 35.9,51.2 63.8,51.2 "/>
</svg>
