<?xml version="1.0" encoding="utf-8"?>
<!-- Generator: Adobe Illustrator 19.2.1, SVG Export Plug-In . SVG Version: 6.00 Build 0)  -->
<svg version="1.1" id="Layer_1" xmlns="http://www.w3.org/2000/svg" xmlns:xlink="http://www.w3.org/1999/xlink" x="0px" y="0px"
	 viewBox="0 0 96 96" style="enable-background:new 0 0 96 96;" xml:space="preserve">
<style type="text/css">
	.st0{fill:#C42227;stroke:#C42126;stroke-width:2;stroke-miterlimit:10;}
	.st1{fill:#FFFFFF;}
</style>
<title>roofgarden</title>
<circle class="st0" cx="48.3" cy="48.3" r="45.3"/>
<path class="st1" d="M37.1,51.4c0.6,1.4,1,2.9,1.5,4.4c0.1,0,0.2,0,0.3,0c6.5-19.5-12.6-30.5-21.1-33.5c4,12.2-0.4,31.5,17.9,33.4
	c-0.7-3.7-1.9-7.3-3.5-10.7c-2.2-4.7-5-9.1-8.3-13.2c3.6,3.8,6.9,7.9,9.7,12.5C34.9,46.5,36.1,48.9,37.1,51.4z M76.7,24.9
	C65.6,41.4,26.3,47.1,41,82.3c3.4-4.8,6.7-9.6,9.8-14.6c2.1-3.3,4.1-6.5,6-9.9c1.9-3.4,3.8-6.8,5.4-10.3c-1.2,3.7-2.7,7.3-4.2,10.9
	c-1.5,3.6-3.2,7.1-4.9,10.6c-2.4,4.8-4.8,9.6-7.4,14.3C82.5,70.8,79.5,38.9,76.7,24.9z"/>
</svg>
