<?xml version="1.0" encoding="utf-8"?>
<!-- Generator: Adobe Illustrator 19.2.1, SVG Export Plug-In . SVG Version: 6.00 Build 0)  -->
<svg version="1.1" id="Layer_1" xmlns="http://www.w3.org/2000/svg" xmlns:xlink="http://www.w3.org/1999/xlink" x="0px" y="0px"
	 viewBox="0 0 96 96" style="enable-background:new 0 0 96 96;" xml:space="preserve">
<style type="text/css">
	.st0{fill:#C42227;stroke:#C42126;stroke-width:2;stroke-miterlimit:10;}
	.st1{fill:#FFFFFF;}
</style>
<title>roofgarden</title>
<circle class="st0" cx="48.3" cy="48.3" r="45.3"/>
<g>
	<g>
		<path class="st1" d="M43.4,50.2l1.3,0.8c0.2,0,0.3-0.1,0.3-0.3c0-0.1-0.1-0.3-0.2-0.5l-2.9-5.5l-6.5,0.2c-0.3,0-0.4,0.2-0.4,0.5
			c0,0.1,0.1,0.2,0.3,0.3l1.3,0.8l-1.4,2.2c-0.4,0.6-0.6,1.2-0.6,1.6c0,0.4,0.1,0.8,0.4,1.2l4.4,7.7c-0.1-0.5-0.2-1-0.2-1.4
			c0-0.8,0.2-1.5,0.7-2.3L43.4,50.2L43.4,50.2z"/>
		<path class="st1" d="M45.1,45.7l3.6-5.6c-1.4-3.1-2.8-4.7-4.3-4.7c-0.9,0-1.5,0.3-1.9,0.8l-3.4,5.5L45.1,45.7L45.1,45.7z"/>
		<path class="st1" d="M42.1,61h7v-7.3h-6.7c-0.8,1.2-1.3,2-1.6,2.4c-0.3,0.7-0.5,1.4-0.5,2.1C40.3,60,40.9,61,42.1,61L42.1,61z"/>
		<path class="st1" d="M56.5,44.4l3.1-5.3c0.1-0.2,0.2-0.4,0.2-0.6c0-0.2-0.1-0.4-0.2-0.4c0,0-0.1,0-0.3,0.1l-1.4,0.7l-1.3-2.6
			c-0.6-1.2-1.7-1.7-3.5-1.7H45c1,0.3,1.7,0.6,2,0.9c0.8,0.7,1.7,1.9,2.5,3.7l1.6,3.4l-1.2,0.6c-0.1,0.1-0.2,0.2-0.2,0.3
			c0,0.2,0.1,0.3,0.4,0.3L56.5,44.4L56.5,44.4z"/>
		<path class="st1" d="M59.6,59.9l4.5-8.3c-0.7,0.8-1.4,1.3-2.2,1.5c-0.6,0.2-1.5,0.3-2.7,0.3h-5v-1c0-0.4-0.1-0.6-0.3-0.6
			c-0.1,0-0.3,0.1-0.3,0.2l-3.2,5.5l3.3,5.1c0.2,0.4,0.5,0.5,0.7,0.5c0.2-0.1,0.3-0.2,0.3-0.3v-1.7h2.8
			C58.5,61.1,59.2,60.7,59.6,59.9L59.6,59.9z"/>
		<path class="st1" d="M57.6,52.4h3c0.7,0,1.5-0.3,2.2-0.9c0.8-0.7,1.2-1.4,1.2-2.1c0-0.3-0.1-0.7-0.3-1l-3.6-5.5l-6.2,3.6
			L57.6,52.4L57.6,52.4z"/>
	</g>
	<g>
		<path class="st1" d="M49.4,22.7c-14.4,0.1-26,11.7-26,26.1s11.6,26.1,26,26.1s26.1-11.7,26-26.1C75.3,34.1,63.7,22.5,49.4,22.7z
			 M49.4,70.6c-12,0-21.6-9.7-21.6-21.7s9.6-21.8,21.6-21.8S71,36.8,71,48.9S61.4,70.6,49.4,70.6z"/>
	</g>
</g>
<polygon class="st1" points="19,31.5 17.7,31.5 17.7,42.5 16.3,42.5 16.3,31.5 14.9,31.5 14.9,42.5 13.5,42.5 13.5,31.5 12.1,31.5 
	10.8,41.2 10.8,42.5 10.8,48.1 13.5,48.1 13.5,67.4 17.7,67.4 17.7,48.1 20.4,48.1 20.4,42.5 20.4,41.2 "/>
<path class="st1" d="M78.4,47.9c0-1.5,0.1-1.1,0.2-2.4c0.8-8.2,3.6-14.3,3.6-14.3h3.8v36.1h-3.8V47.9C81,47.9,79.2,47.9,78.4,47.9z"
	/>
</svg>
