<?xml version="1.0" encoding="utf-8"?>
<!-- Generator: Adobe Illustrator 19.2.1, SVG Export Plug-In . SVG Version: 6.00 Build 0)  -->
<svg version="1.1" id="Layer_1" xmlns="http://www.w3.org/2000/svg" xmlns:xlink="http://www.w3.org/1999/xlink" x="0px" y="0px"
	 viewBox="0 0 96 96" style="enable-background:new 0 0 96 96;" xml:space="preserve">
<style type="text/css">
	.st0{fill:#6A7F4C;stroke:#6A7F4C;stroke-width:2;stroke-miterlimit:10;}
	.st1{fill:#FFFFFF;}
</style>
<ellipse class="st0" cx="48.3" cy="48" rx="44.7" ry="45.3"/>
<g>
	<path class="st1" d="M55.4,53.6c-1.4,1.7-3.4,2.8-5.7,2.9c0.2,13.6-10.9,13.3-7.2,22.7c3.7,6.8,6.9,8.1,14.1,4.5
		C74,75.1,63.5,61.3,55.4,53.6z"/>
	<path class="st1" d="M42.5,43.2c1.2-1.5,2.9-2.6,4.8-3c-0.6-14.3,10.9-13.8,7.1-23.5c-3.7-6.8-6.9-8.1-14.1-4.5
		C22.5,21.2,34.3,35.7,42.5,43.2z"/>
	<path class="st1" d="M40.9,49.7c-14.4,1.5-14.6-10.2-24-5.8c-6.6,4-7.7,7.4-3.7,14.3c9.9,17.3,23.6,5,30.6-3.6
		C42.3,53.4,41.2,51.7,40.9,49.7z"/>
	<path class="st1" d="M83.8,38.1c-9.8-17-23.1-5.4-30.3,3.2c1.9,1.2,3.2,3,3.7,5.2c13.3-0.8,13.7,10.1,22.9,5.9
		C86.6,48.4,87.7,45.1,83.8,38.1z"/>
	<path class="st1" d="M50.3,45.3C49.9,45.1,49.5,45,49,45c-0.3,0-0.7,0-1,0.1c-0.7,0.2-1.3,0.7-1.7,1.3c-0.3,0.5-0.5,1-0.5,1.6
		c0,0.3,0,0.6,0.1,0.8c0.2,0.7,0.5,1.3,1.1,1.7c0.5,0.4,1.1,0.7,1.8,0.7c0.1,0,0.3,0,0.4,0c0.9-0.1,1.6-0.5,2.1-1.2
		c0.4-0.5,0.6-1.1,0.7-1.8c0-0.3,0-0.6-0.1-0.9C51.7,46.5,51.1,45.7,50.3,45.3z"/>
</g>
</svg>
