<?xml version="1.0" encoding="utf-8"?>
<!-- Generator: Adobe Illustrator 19.2.1, SVG Export Plug-In . SVG Version: 6.00 Build 0)  -->
<svg version="1.1" id="Layer_1" xmlns="http://www.w3.org/2000/svg" xmlns:xlink="http://www.w3.org/1999/xlink" x="0px" y="0px"
	 viewBox="0 0 96 96" style="enable-background:new 0 0 96 96;" xml:space="preserve">
<style type="text/css">
	.st0{fill:#C42227;stroke:#C42126;stroke-miterlimit:10;}
	.st1{fill:#FFFFFF;}
	.st2{fill:none;}
	.st3{fill:#FFFFFF;stroke:#FFFFFF;stroke-miterlimit:10;}
	.st4{font-family:'MyriadPro-Regular';}
	.st5{font-size:30px;}
</style>
<title>roofgarden</title>
<circle class="st0" cx="48.3" cy="48.3" r="45.3"/>
<path class="st1" d="M40.6,13.6H27.7v28.5h5.9v-9.4h6.7c5.1,0,10.1-4.1,10.1-9.5C50.5,18.3,46.2,13.6,40.6,13.6z M40.3,27.5h-6.6
	v-8.6h6.6c2.2,0,4.3,1.8,4.3,4.3C44.7,25.8,42.7,27.5,40.3,27.5z"/>
<g>
	<path class="st1" d="M24.7,78.4c0.3,0.3,0.6,0.4,1.1,0.4c0.4,0,1-0.2,1.3-0.7l4.8-6.4c0.3-0.3,0.4-0.8,0.4-1.2l-4.3-4.3l0.9,3.9
		l-4.2,5.6C23.9,76.7,24,77.8,24.7,78.4z"/>
	<path class="st1" d="M33.9,59.3c0.2,0.4,0.5,0.6,0.9,0.7l4.4,0.6c0.1,0,0.1,0,0.2,0c0.6,0,1.2-0.5,1.3-1.2c0.1-0.7-0.4-1.4-1.1-1.5
		l-3.8-0.6l-2.5-5l0,0c-0.2-0.4-0.4-0.7-0.8-0.9c-0.3-0.1-0.6-0.2-1-0.2c-0.1,0-0.2,0-0.2,0l-5.4,0.5c-0.5,0-0.9,0.4-1.1,1l-1.7,6
		c-0.2,0.7,0.2,1.5,0.8,1.7c0.1,0,0.3,0.1,0.4,0.1c0.5,0,1-0.4,1.2-1l1.4-5.1l1.3-0.1c-1.2,2.7-1.5,4.7-1.6,7.8
		c0.1,1.2,0.4,1.9,0.9,2.4c0.1,0.1,0.1,0.2,0.2,0.2l5.7,5.7l0.4,6.9c0.1,1,0.8,1.7,1.6,1.7h0.1c0.9-0.1,1.6-0.9,1.5-1.9l-0.4-7.7
		c0-0.5-0.2-0.9-0.5-1.2l-4.6-4.6c0-2.2,0.7-4.8,1.3-6.8L33.9,59.3z"/>
	<path class="st1" d="M32.1,47c-0.5,1.7,0.2,3.5,1.7,4.2c1.5,0.6,3.1-0.2,3.8-1.9c0.5-1.7-0.2-3.5-1.7-4.2
		C34.3,44.5,32.6,45.4,32.1,47z"/>
</g>
<g>
	<path class="st1" d="M48.9,63.7c0.7,0,1.5,0.1,2.1,0.3l2.4-6.5h-4.7c-0.8,0-1.5,0.7-1.5,1.6s0.7,1.6,1.5,1.6c0.3,0,0.5,0.2,0.5,0.5
		c0,0.3-0.2,0.5-0.5,0.5c-1.4,0-2.5-1.1-2.5-2.5s1.1-2.5,2.5-2.5h5.4c0,0,0.1,0,0.1,0c0,0,0.1,0,0.1,0c0,0,0,0,0,0
		c0,0,0.1,0,0.1,0.1c0,0,0,0,0.1,0c0,0,0,0,0.1,0.1c0,0,0,0,0,0.1c0,0,0,0,0,0.1c0,0,0,0.1,0,0.1c0,0,0,0,0,0c0,0,0,0.1,0,0.1
		c0,0,0,0.1,0,0.1l-1.2,3.2l11.9,0.2l1.3-4.2h-2.7c-0.3,0-0.5-0.2-0.5-0.5c0-0.3,0.2-0.5,0.5-0.5h5.4c0.3,0,0.5,0.2,0.5,0.5
		c0,0.3-0.2,0.5-0.5,0.5h-1.7l-1.4,4.5l2.7,3.8c1.1-0.7,2.4-1.1,3.8-1.1c3.9,0,7.2,3.3,7.2,7.3c0,4-3.2,7.3-7.2,7.3
		c-3.8,0-6.9-3-7.1-6.8h-1.1c-0.1,0.5-0.4,0.9-0.8,1.2l0.5,1.6c0.1,0.3-0.1,0.5-0.3,0.6c0,0-0.1,0-0.1,0c-0.2,0-0.4-0.1-0.4-0.3
		l-0.5-1.6c0,0,0,0-0.1,0c-1,0-1.8-0.8-1.8-1.9c0-0.3,0.1-0.6,0.2-0.9l-8.2-8.6l-1.1,2.8C54.3,65.5,56,68,56,71c0,4-3.2,7.3-7.2,7.3
		S41.7,75,41.7,71S44.9,63.7,48.9,63.7z M65.8,62l-2.3,7.3c0.4,0.2,0.7,0.6,0.9,1h1.2c0.1-2.1,1.1-3.9,2.6-5.1L65.8,62z M66.5,70.4
		h5.3L68.7,66C67.4,67.1,66.6,68.6,66.5,70.4z M72.7,77.2c3.4,0,6.2-2.9,6.2-6.4c0-3.5-2.8-6.4-6.2-6.4c-1.2,0-2.3,0.4-3.3,1
		l3.7,5.1c0.1,0.1,0.1,0.3,0,0.5c-0.1,0.2-0.2,0.3-0.4,0.3h-6.2C66.7,74.6,69.4,77.2,72.7,77.2z M62.7,71.9c0.5,0,0.9-0.4,0.9-0.9
		c0-0.5-0.4-0.9-0.9-0.9c-0.5,0-0.9,0.4-0.9,0.9C61.8,71.5,62.2,71.9,62.7,71.9z M61.7,69.4C61.8,69.4,61.8,69.4,61.7,69.4l-0.4-1.6
		c-0.1-0.3,0.1-0.5,0.3-0.6c0.2-0.1,0.5,0.1,0.6,0.3l0.4,1.5l2.3-7.6l-10.9-0.2L61.7,69.4z M48.9,77.3c3.4,0,6.2-2.9,6.2-6.4
		c0-2.5-1.5-4.7-3.6-5.8l-2.2,5.9c-0.1,0.2-0.2,0.3-0.4,0.3c-0.1,0-0.1,0-0.2,0c-0.2-0.1-0.4-0.4-0.3-0.6l2.2-5.9
		c-0.6-0.2-1.2-0.3-1.8-0.3c-3.4,0-6.2,2.9-6.2,6.4S45.4,77.3,48.9,77.3z"/>
</g>
<rect x="57.7" y="19.8" class="st2" width="33.2" height="31.2"/>
<text transform="matrix(1 0 0 1 57.6733 41.1249)" class="st3 st4 st5">&amp;</text>
</svg>
