<?xml version="1.0" encoding="utf-8"?>
<!-- Generator: Adobe Illustrator 19.2.1, SVG Export Plug-In . SVG Version: 6.00 Build 0)  -->
<svg version="1.1" id="Layer_1" xmlns="http://www.w3.org/2000/svg" xmlns:xlink="http://www.w3.org/1999/xlink" x="0px" y="0px"
	 viewBox="0 0 96 96" style="enable-background:new 0 0 96 96;" xml:space="preserve">
<style type="text/css">
	.st0{fill:#C42227;stroke:#C42126;stroke-miterlimit:10;}
	.st1{fill:#FFFFFF;}
	.st2{fill:none;}
	.st3{font-family:'MyriadPro-Regular';}
	.st4{font-size:36px;}
</style>
<title>roofgarden</title>
<circle class="st0" cx="48.3" cy="48.3" r="45.3"/>
<path class="st1" d="M34.9,18.7H23v26.4h5.4v-8.7h6.2c4.7,0,9.3-3.8,9.3-8.8C44,23.1,40.1,18.7,34.9,18.7z M34.6,31.6h-6.1v-8h6.1
	c2,0,4,1.7,4,4C38.7,30,36.8,31.6,34.6,31.6z"/>
<path class="st1" d="M68.7,65h-1.1l0.8,2c0.5,1.4,1,3.7,1,5.2V83c0,1.7-1.4,3.2-3.2,3.2c-1.7,0-3.2-1.4-3.2-3.2v-1.7
	c-4.6,0.6-9.4,0.9-14.4,0.9s-9.9-0.3-14.4-0.9V83c0,1.7-1.4,3.2-3.2,3.2c-1.7,0-3.2-1.4-3.2-3.2V72.2c0-1.5,0.4-3.8,1-5.2l0.8-2
	h-1.1c-1.4,0-2.5-1.1-2.5-2.5s1.1-2.5,2.5-2.5h3l2.2-5.6c0.5-1.4,2.1-2.9,3.6-3.3c0,0,3.7-1.1,11.4-1.1s11.4,1.1,11.4,1.1
	c1.4,0.4,3,1.9,3.6,3.3l2.2,5.6h3c1.4,0,2.5,1.1,2.5,2.5S70,65,68.7,65z M51.4,57.4c0,1.6-1.3,2.8-2.8,2.8s-2.8-1.3-2.8-2.8
	c0-1.6,1.3-2.8,2.8-2.8S51.4,55.9,51.4,57.4z M39.9,55.2c-1.6,0-2.8,1.3-2.8,2.8s1.2,2.9,2.8,2.9s2.8-1.3,2.8-2.8
	S41.4,55.2,39.9,55.2z M36.4,71.1c0-1.4-1.1-2.5-2.5-2.5s-2.5,1.1-2.5,2.5s1.1,2.5,2.5,2.5S36.4,72.5,36.4,71.1z M57,72.4
	c0,0-4.2,1.9-8.4,1.9s-8.4-1.9-8.4-1.9c-1.5-0.7-1.8-0.2-0.6,0.9c0,0,4.3,4.5,9,4.5s9-4.5,9-4.5C58.7,72.2,58.4,71.8,57,72.4z
	 M61.1,64c0.5-0.1,1-0.2,1.5-0.3c0.5-0.1,0.8-0.5,0.6-1c-0.8-2.2-1.7-4.6-2.5-7.3c-0.2-0.5-0.7-1.1-1.2-1.1
	c-7.2-1.1-14.5-1.1-21.7,0c-0.5,0.1-1,0.6-1.2,1.1c-0.8,2.7-1.7,5.1-2.5,7.3c-0.2,0.4,0.1,0.9,0.6,1s1,0.2,1.5,0.3
	c0.2-1.1,1.2-2.3,2.2-2.4c1.1-0.2,2.2-0.2,3.3,0c1,0.2,2,1.4,2.2,2.5c0.1,0.3,0.1,0.6,0.2,0.9c0.2,0,0.4,0,0.7,0
	c0.1-0.5,0.2-1,0.3-1.6c0.2-1.1,1.2-2.3,2.2-2.5c1.1-0.2,2.2-0.2,3.3,0c1,0.2,2,1.4,2.2,2.5c0.1,0.5,0.2,1.1,0.3,1.6
	c0.2,0,0.4,0,0.7,0c0.1-0.3,0.1-0.6,0.2-0.9c0.2-1.1,1.2-2.3,2.2-2.5c1.1-0.2,2.2-0.2,3.3,0C59.9,61.7,60.9,62.9,61.1,64z
	 M65.7,71.1c0-1.4-1.1-2.5-2.5-2.5c-1.4,0-2.5,1.1-2.5,2.5s1.1,2.5,2.5,2.5C64.6,73.6,65.7,72.5,65.7,71.1z M57.3,55.2
	c-1.6,0-2.8,1.3-2.8,2.8s1.3,2.8,2.8,2.8s2.8-1.3,2.8-2.8S58.9,55.2,57.3,55.2z"/>
<rect x="52.4" y="20.8" class="st2" width="24.4" height="26.5"/>
<text transform="matrix(1 0 0 1 52.3918 46.3937)" class="st1 st3 st4">&amp;</text>
</svg>
