<?xml version="1.0" encoding="utf-8"?>
<!-- Generator: Adobe Illustrator 19.2.1, SVG Export Plug-In . SVG Version: 6.00 Build 0)  -->
<svg version="1.1" id="Layer_1" xmlns="http://www.w3.org/2000/svg" xmlns:xlink="http://www.w3.org/1999/xlink" x="0px" y="0px"
	 viewBox="0 0 91.6 91.6" style="enable-background:new 0 0 91.6 91.6;" xml:space="preserve">
<style type="text/css">
	.st0{fill:#C42227;stroke:#C42126;stroke-miterlimit:10;}
	.st1{fill:#FFFFFF;}
</style>
<title>partnership</title>
<circle class="st0" cx="45.8" cy="45.8" r="45.3"/>
<path class="st1" d="M85.7,38.1L70.3,48l-0.2,0.7c-0.1,0.6-0.2,1.2-0.3,1.8c-0.1,0.6-0.2,1.3-0.3,2l-5.2-4.2l-12.4-9.8
	c-1.8-1.2-3.9-1.2-6.4-0.3c-1.2,0.4-2.3,1-3.3,1.7l-9.2,6c-1.5,1-3.6,0.7-4.7-0.9c-0.9-1.5-0.7-2.9-0.5-3l21.2-13.8
	c2.2-1.5,8,2.2,10.9,4l1,0.6l14.9-9.7l-1.9-3l-13.1,8.5c-4-2.5-8-4.7-11.4-4.2l-3.4-2.7c-3.3-2.7-8.7-0.6-14,2.1L25,18l-1.2,3.4
	l7.8,6.5l1-0.5c3-1.5,9.1-4.6,11.3-3l2.1,1.7L26,39.1c-2.1,1.4-2.3,4.8-0.5,7.8l0.2,0.4c0.1,0.2,0.3,0.4,0.5,0.6
	c1.8,1.8,4.5,3.6,6.7,2.5l11.5-7.7c0,0,3.8-2.4,5.7-1.2l18.9,15c0.9,0.7,1,1.9,0.3,2.8c-0.8,1-2.3,1.2-3.3,0.4L47.6,45.2l-2.1,2.7
	l20.3,16.2c0.8,0.7,1,1.9,0.3,2.7s-1.9,1-2.7,0.3l-1.3-1l0,0l-0.5-0.6l-18-14.2L41.5,54l17.9,14.3c0.9,0.7,1,1.9,0.3,2.8
	c-0.7,0.9-1.9,1-2.8,0.4c0,0,0,0-0.1-0.1l-8-6.4l-8.2-6.4l-2.2,2.7l8.1,6.5c0.9,0.7,1,1.9,0.4,2.8c0,0,0,0-0.1,0.1
	c-0.7,0.9-2.1,1.1-3,0.3c0,0,0,0,0,0l-6.4-5L23.8,55c-2.3-1.9-2.5-6.9-2.7-10.2c0-0.7-0.1-1.4-0.1-1.9l-0.1-0.8l-9.6-7.5l-1.7,3.1
	l8,6.2c0,0.3,0,0.7,0.1,1c0.2,3.3,0.4,7.9,2.5,11c-2.4,1.8-2.9,5.3-1.1,7.7c0.5,0.7,1.3,1.3,2.1,1.7c-1,1.7-1,3.8-0.1,5.6l0,0
	c0,0.1,0.1,0.1,0.1,0.2s0.1,0.1,0.1,0.2l0,0c1.2,1.6,3.1,2.4,5,2.2c0.1,0.9,0.4,1.8,0.9,2.6c1.7,2.6,5.2,3.3,7.7,1.6l4.2-2.8v0.1
	l2.2-1.6l0.6,0.5c2.4,1.9,5.9,1.5,7.9-0.9c0.4-0.5,0.8-1.2,1-1.8l4,3.2c2.4,1.9,5.8,1.5,7.8-0.8c0.6-0.7,1-1.6,1.1-2.6
	c1.9,0.4,3.9-0.3,5.2-1.8l0,0c0-0.1,0.1-0.1,0.1-0.2s0.1-0.1,0.1-0.2l0,0c1.2-1.6,1.4-3.7,0.5-5.5c1-0.4,1.8-1,2.4-1.8
	c1.3-1.7,1.6-4,0.6-5.9c0.4-1.5,0.6-3,0.8-4.5c0.1-0.3,0.1-0.7,0.2-1l14-8.9L85.7,38.1z M21.7,61.4c-0.6-0.9-0.4-2.2,0.5-2.8
	c0,0,0,0,0,0l0.2-0.2l3.6,2.9L25,62c-1,0.7-2.4,0.5-3.2-0.5C21.8,61.5,21.8,61.4,21.7,61.4L21.7,61.4z M26.8,69.6
	c-0.8,0.7-2,0.6-2.6-0.2c-0.7-0.8-0.6-2,0.2-2.6c0.1-0.1,0.3-0.2,0.4-0.3l4.4-2.8l3,2.4L26.8,69.6z M32.8,74.7
	c-1,0.6-2.3,0.3-2.9-0.6c-0.6-0.9-0.4-2.2,0.5-2.8c0,0,0,0,0,0l4.4-3l0.5,0.4l3,2.3L32.8,74.7z"/>
</svg>
