<?xml version="1.0" encoding="utf-8"?>
<!-- Generator: Adobe Illustrator 19.2.1, SVG Export Plug-In . SVG Version: 6.00 Build 0)  -->
<svg version="1.1" id="Layer_1" xmlns="http://www.w3.org/2000/svg" xmlns:xlink="http://www.w3.org/1999/xlink" x="0px" y="0px"
	 viewBox="0 0 96 96" style="enable-background:new 0 0 96 96;" xml:space="preserve">
<style type="text/css">
	.st0{fill:#C42227;stroke:#C42126;stroke-miterlimit:10;}
	.st1{fill:#FFFFFF;stroke:#FFFFFF;stroke-width:3;stroke-miterlimit:10;}
	.st2{fill:#FFFFFF;stroke:#FFFFFF;stroke-miterlimit:10;}
	.st3{fill:#FFFFFF;}
</style>
<title>roofgarden</title>
<circle class="st0" cx="48" cy="48.3" r="45.3"/>
<line class="st1" x1="19" y1="15.7" x2="79.8" y2="77.1"/>
<g>
	<g>
		<path class="st2" d="M66.3,16.5c-8.2,0-14.8,6.6-14.8,14.8c0,8.2,6.6,14.8,14.8,14.8s14.8-6.6,14.8-14.8
			C81.1,23.2,74.5,16.5,66.3,16.5z M66.3,44.8c-7.4,0-13.5-6-13.5-13.5s6-13.5,13.5-13.5s13.5,6,13.5,13.5S73.7,44.8,66.3,44.8z"/>
	</g>
	<g>
		<path class="st2" d="M65.3,38.9v-1.8c-1.2-0.1-2.4-0.4-3.2-0.8l0.6-2.2c0.8,0.4,1.9,0.8,3.1,0.8c1.1,0,1.8-0.4,1.8-1.1
			c0-0.7-0.6-1.1-2-1.6c-2-0.7-3.3-1.6-3.3-3.4c0-1.7,1.1-2.9,3.1-3.3v-1.8h1.8v1.6c1.2,0,2.1,0.3,2.7,0.6l-0.6,2.1
			c-0.5-0.2-1.3-0.6-2.7-0.6c-1.2,0-1.6,0.5-1.6,1.1c0,0.6,0.6,1,2.2,1.6c2.2,0.8,3.1,1.8,3.1,3.5c0,1.7-1.1,3.1-3.3,3.4v1.9H65.3z"
			/>
	</g>
</g>
<g transform="translate(0,-952.36218)">
	<path class="st3" d="M71.1,998.5c-1.1,0-2-0.2-2.7-0.7c-0.3-0.1-0.6-0.1-0.9-0.2v28.5c0,2.6-2.2,4.6-5,4.6H31.8
		c0.9-1.3,1.5-2.9,1.5-4.6v-46.3h19.3c-0.1-1.4,0.3-2.8,1.1-3.9H31.1c-1.1,0-2.1,0.9-2.1,2v24.1H16.8c-1.1,0-2.1,0.9-2.1,2v22.2
		c0,4.7,4.2,8.5,9.3,8.5c1.9,0,38.5,0,38.5,0c5.1,0,9.3-3.8,9.3-8.5v-27.6C71.5,998.5,71.3,998.5,71.1,998.5z M29,1026.1
		c0,2.6-2.2,4.6-5,4.6c-2.8,0-5-2-5-4.6v-20.2h10V1026.1z"/>
	<path class="st3" d="M59.3,994.8h-21c-1.1,0-2.2,0.9-2.2,2s1,2,2.2,2h24.3c0.1,0,0.1,0,0.2,0c0.5,0,1-0.2,1.3-0.6
		C61.5,998.1,59.9,996.6,59.3,994.8z"/>
	<path class="st3" d="M62.5,1013.1H38.2c-1.1,0-2.2,0.9-2.2,2c0,1,1,2,2.2,2h24.3c0.1,0,0.1,0,0.2,0c1.1-0.1,2.1-1,2-2.1
		C64.7,1013.9,63.6,1013,62.5,1013.1z"/>
	<path class="st3" d="M62.5,1003.9H38.2c-1.1,0-2.2,0.9-2.2,2c0,1,1,2,2.2,2h24.3c0.1,0,0.1,0,0.2,0c1.1-0.1,2.1-1,2-2.1
		C64.7,1004.8,63.6,1003.9,62.5,1003.9z"/>
</g>
</svg>
