<?xml version="1.0" encoding="utf-8"?>
<!-- Generator: Adobe Illustrator 19.2.1, SVG Export Plug-In . SVG Version: 6.00 Build 0)  -->
<svg version="1.1" id="Layer_1" xmlns="http://www.w3.org/2000/svg" xmlns:xlink="http://www.w3.org/1999/xlink" x="0px" y="0px"
	 viewBox="0 0 96 96" style="enable-background:new 0 0 96 96;" xml:space="preserve">
<style type="text/css">
	.st0{fill:#C42227;stroke:#C42126;stroke-miterlimit:10;}
	.st1{fill:#C42126;}
	.st2{fill:#FFFFFF;}
</style>
<title>roofgarden</title>
<circle class="st0" cx="48.3" cy="48.3" r="45.3"/>
<path class="st1" d="M24,22.4"/>
<g>
	<polygon class="st2" points="62.5,68.2 64.8,68.2 64.8,65.2 67.8,65.2 67.8,62.8 64.8,62.8 64.8,60 62.5,60 62.5,62.8 59.7,62.8 
		59.7,65.2 62.5,65.2 	"/>
	<rect x="30" y="62" class="st2" width="8.2" height="2.3"/>
	<path class="st2" d="M21.1,51.5v23.4h54.6v-5.6h5.5V57h-5.5v-5.6L21.1,51.5L21.1,51.5z M73.6,72.7H23.5V53.8h50.1V72.7z M79.1,59.3
		v7.7h-3.2v-7.7H79.1z"/>
</g>
<g>
	<path class="st2" d="M42.6,31l1.7,1c0.3,0,0.4-0.1,0.4-0.4c0-0.1-0.1-0.4-0.3-0.7l-3.6-6.9l-8.1,0.3c-0.4,0-0.5,0.3-0.5,0.5
		c0,0.1,0.1,0.3,0.4,0.4l1.7,1l-1.8,2.7c-0.5,0.8-0.8,1.4-0.8,2c0,0.5,0.1,1,0.5,1.6l5.5,9.6c-0.1-0.7-0.3-1.2-0.3-1.7
		c0-0.9,0.3-2,0.9-2.9L42.6,31L42.6,31z"/>
	<path class="st2" d="M44.8,25.4l4.6-7c-1.7-3.9-3.5-5.9-5.5-5.9c-1.2,0-2,0.3-2.3,0.9l-4.3,6.9L44.8,25.4L44.8,25.4z"/>
	<path class="st2" d="M41.1,44.5h8.8v-9.1h-8.5c-1,1.4-1.7,2.5-2,3c-0.4,0.8-0.7,1.7-0.7,2.6C38.8,43.4,39.6,44.5,41.1,44.5
		L41.1,44.5z"/>
	<path class="st2" d="M59.3,23.7l3.9-6.6c0.1-0.3,0.3-0.5,0.3-0.8c0-0.3-0.1-0.4-0.3-0.4c0,0-0.1,0-0.4,0.1l-2,0.9l-1.7-3.3
		c-0.8-1.4-2.2-2.2-4.4-2.2H44.6c1.3,0.4,2.1,0.8,2.5,1.2c1,0.8,2.1,2.3,3.3,4.7l2.1,4.3l-1.6,0.8c-0.1,0.1-0.3,0.3-0.3,0.4
		c0,0.3,0.1,0.4,0.5,0.4L59.3,23.7L59.3,23.7z"/>
	<path class="st2" d="M63.2,43.2l5.7-10.4c-0.8,0.9-1.8,1.6-2.7,2c-0.8,0.3-2,0.4-3.4,0.4h-6.4v-1.3c0-0.5-0.1-0.8-0.4-0.8
		c-0.1,0-0.3,0.1-0.4,0.3l-4,7l4.2,6.4c0.3,0.5,0.7,0.7,0.8,0.5c0.3-0.1,0.4-0.1,0.4-0.4v-2.2h3.5C61.7,44.7,62.6,44.1,63.2,43.2
		L63.2,43.2z"/>
	<path class="st2" d="M60.7,33.9h3.8c0.9,0,1.8-0.4,2.9-1.2c1-0.8,1.6-1.7,1.6-2.6c0-0.4-0.1-0.9-0.4-1.3l-4.6-6.9l-7.8,4.6
		L60.7,33.9L60.7,33.9z"/>
</g>
</svg>
