<?xml version="1.0" encoding="utf-8"?>
<!-- Generator: Adobe Illustrator 19.2.1, SVG Export Plug-In . SVG Version: 6.00 Build 0)  -->
<svg version="1.1" id="Layer_1" xmlns="http://www.w3.org/2000/svg" xmlns:xlink="http://www.w3.org/1999/xlink" x="0px" y="0px"
	 viewBox="0 0 96 96" style="enable-background:new 0 0 96 96;" xml:space="preserve">
<style type="text/css">
	.st0{fill:#C42227;stroke:#C42126;stroke-miterlimit:10;}
	.st1{fill:#C42126;}
	.st2{fill:#FFFFFF;}
	.st3{fill:#C42227;}
</style>
<title>roofgarden</title>
<circle class="st0" cx="48.3" cy="48.3" r="45.3"/>
<path class="st1" d="M24,22.4"/>
<path class="st2" d="M43.1,36.5L43.1,36.5C43.1,36.4,43.1,36.4,43.1,36.5z"/>
<path class="st2" d="M43.1,36.5L43.1,36.5C43.1,36.5,43,36.7,43.1,36.5z"/>
<path class="st2" d="M81.6,32.5l-11-10.7l-0.3-0.2l-0.4-0.2l-11.2-4.7l-1.1-0.5L56.7,17c-2.1,1.7-4.9,2.7-7.7,2.7s-5.5-1-7.7-2.8
	l-1-0.7l-1.1,0.5L28,21.3l-0.3,0.1l-0.3,0.3l-11,10.9L14.8,34l1.7,1.4l11.8,9.3l1.3,1.1l1.1-1.1l0.1-0.2v30.7v1.8h2.3h32.2h2v-1.8
	V44.5l0.1,0.1l1.2,1.2l1.4-1.1l11.5-9.3l1.7-1.4L81.6,32.5z"/>
<polygon class="st2" points="44.4,52 44.4,52 44.4,52 "/>
<g>
	<path class="st3" d="M42.1,35.3L42.1,35.3c0.4-0.7,0.7-1.5,1.5-1.7c0.7-0.3,1.5-0.3,2.1-0.1c1.7,0.1,3.5,0.1,5.2,0.1
		c-1.3,1.2-2.3,2.8-3.2,4.4c-1.1,1.6-1.9,3.3-2.9,4.8c-1.9-1.1-3.7-2.1-5.5-3.1C40,38.2,41.1,36.7,42.1,35.3z"/>
	<path class="st3" d="M35.2,48.4c-0.3-1.5,0.7-3.2,1.5-4.3l0.3-0.3l-0.4-0.1c-0.3-0.3-0.8-0.5-1.2-0.8c1.5,0,3.1,0,4.6,0.1h0.7
		c0.9,1.5,1.9,3.1,2.8,4.4c-0.3-0.1-0.5-0.3-0.7-0.4l-0.3-0.1l-0.3,0.3c-0.9,1.2-1.6,2.7-2.4,4c-1.2-0.1-2.3,0-3.5-0.7
		C35.8,50,35.2,49.2,35.2,48.4z"/>
	<path class="st3" d="M42.9,58.2C43.1,58.2,43.3,58.2,42.9,58.2L42.9,58.2c-0.8,0-1.6,0.3-2.3-0.4c-0.5-0.5-0.8-1.1-1.2-1.7
		c-0.8-1.5-1.6-2.9-2.5-4.4c1.7,0.5,3.6,0.5,5.5,0.5c1.9,0,3.9,0,5.8,0.1c0,2.1,0,4.3,0,6.2C46.6,58.4,44.7,58.3,42.9,58.2z"/>
	<path class="st3" d="M52.2,33.5c0.8-0.3,1.6-0.4,2.4-0.1c1.5,0.5,2.4,2.1,3.1,3.5l0.1,0.3l0.3-0.1c0.4-0.3,0.9-0.4,1.3-0.7
		c-0.7,1.3-1.5,2.7-2.3,3.9l-0.4,0.7c-1.7,0.1-3.6,0-5.4,0c0.3-0.1,0.5-0.3,0.7-0.4l0.3-0.3L52.2,40c-0.7-1.5-1.5-2.8-2.3-4
		C50.5,35.1,51,34.2,52.2,33.5z"/>
	<path class="st3" d="M59.1,55.2c-0.1,0.8-0.4,1.6-1.1,2.1c-1.2,1.1-3.1,1.1-4.6,0.8H53l-0.1,0.4c-0.1,0.4-0.1,0.9-0.1,1.5
		c-0.8-1.3-1.5-2.7-2.3-4l-0.3-0.7c0.8-1.5,1.7-3.1,2.7-4.6c0,0.3,0,0.5,0,0.8V52h0.3c1.5,0.3,3.2,0,4.7,0.1
		C58.5,52.9,59.2,53.9,59.1,55.2z"/>
	<path class="st3" d="M63.6,47.9c-0.3,0.7-0.7,1.3-0.9,1.9c-0.9,1.5-1.9,2.8-2.7,4.4c-0.4-1.9-1.5-3.3-2.3-4.8
		c-0.9-1.6-1.9-3.2-2.8-5c1.9-1.1,3.7-2.1,5.4-3.2c0.9,1.5,1.6,3.2,2.5,4.7C63.2,46.5,63.7,47.1,63.6,47.9z"/>
</g>
</svg>
