<?xml version="1.0" encoding="utf-8"?>
<!-- Generator: Adobe Illustrator 19.2.1, SVG Export Plug-In . SVG Version: 6.00 Build 0)  -->
<svg version="1.1" id="Layer_1" xmlns="http://www.w3.org/2000/svg" xmlns:xlink="http://www.w3.org/1999/xlink" x="0px" y="0px"
	 viewBox="0 0 96 96" style="enable-background:new 0 0 96 96;" xml:space="preserve">
<style type="text/css">
	.st0{fill:#C42126;}
	.st1{fill:#FFFFFF;}
	.st2{fill:#FFFFFF;stroke:#FFFFFF;stroke-miterlimit:10;}
</style>
<title>roofgarden</title>
<circle class="st0" cx="46.3" cy="49.7" r="45.3"/>
<polygon class="st1" points="46.8,39.6 8.9,66.9 14.5,74.5 46.8,51.3 79.1,74.5 84.7,66.9 "/>
<g>
	<g>
		<g>
			<path class="st2" d="M60.9,44.5c-5.4,0-9.7-4.6-9.7-10.2c0-5.3,4.1-22.7,9.7-22.7s9.7,17.4,9.7,22.7C70.6,40,66.2,44.5,60.9,44.5
				z M60.9,12.9c-4.3,0-8.6,15.8-8.6,21.5c0,4.9,3.8,9,8.6,9s8.6-4,8.6-9C69.5,28.7,65.2,12.9,60.9,12.9z"/>
		</g>
	</g>
	<g>
		<g>
			<polygon class="st2" points="60.3,32 61.4,32 61.4,51.4 60.3,50.3 			"/>
		</g>
	</g>
	<g>
		<g>
			<polygon class="st2" points="71.7,41.5 72.9,41.5 72.9,59 71.7,58.4 			"/>
		</g>
	</g>
	<g>
		<g>
			<path class="st2" d="M72.3,44.5c-2.2,0-4.2-1.2-5.4-3.1L66.6,41l0.3-0.3c1.6-1.7,2.5-3.9,2.5-6.3c0-1.6-0.4-4.2-1-7l0-0.2
				l0.1-0.2c1.2-2.6,2.5-4,3.8-4c3.9,0,6.4,11.8,6.4,14.8C78.7,41.5,75.9,44.5,72.3,44.5z M68.1,41.2c1,1.4,2.5,2.2,4.2,2.2
				c2.9,0,5.3-2.5,5.3-5.5c0-3.5-2.7-13.6-5.3-13.6c-0.8,0-1.8,1.1-2.7,3.1c0.6,2.8,1,5.4,1,7C70.6,36.9,69.7,39.3,68.1,41.2z"/>
		</g>
	</g>
	<g>
		<g>
			<polygon class="st2" points="63.3,32.8 64.1,33.6 61.3,36.6 60.5,35.7 			"/>
		</g>
	</g>
	<g>
		<g>
			<polygon class="st2" points="58.4,35.1 61.3,38.1 60.5,39 57.6,36 			"/>
		</g>
	</g>
</g>
</svg>
