<?xml version="1.0" encoding="utf-8"?>
<!-- Generator: Adobe Illustrator 19.2.1, SVG Export Plug-In . SVG Version: 6.00 Build 0)  -->
<svg version="1.1" id="Layer_1" xmlns="http://www.w3.org/2000/svg" xmlns:xlink="http://www.w3.org/1999/xlink" x="0px" y="0px"
	 viewBox="0 0 96 96" style="enable-background:new 0 0 96 96;" xml:space="preserve">
<style type="text/css">
	.st0{fill:#C42227;stroke:#C42126;stroke-miterlimit:10;}
	.st1{fill:#FFFFFF;}
</style>
<title>roofgarden</title>
<circle class="st0" cx="48.3" cy="48.3" r="45.3"/>
<g>
	<path class="st1" d="M75.1,71.8L59.8,40.2c-0.4-0.8-0.6-1.7-0.6-2.6V17c0-1-0.8-1.8-1.8-1.8H38.7c-1,0-1.8,0.8-1.8,1.8v21.2
		c0,0.5-0.1,1.1-0.4,1.6l-15.3,32c-0.7,1.5-0.6,3.2,0.3,4.6s2.4,2.2,4,2.2h45.4c1.6,0,3.1-0.8,4-2.2C75.7,75,75.8,73.3,75.1,71.8z
		 M39.7,41.3c0.5-1,0.7-2,0.7-3.1V18.7h15.2v18.9c0,1.4,0.3,2.8,0.9,4.1L64,56.9H32.3L39.7,41.3z M71.9,74.5
		c-0.1,0.2-0.4,0.6-1.1,0.6H25.5c-0.6,0-0.9-0.4-1.1-0.6c-0.1-0.2-0.3-0.6-0.1-1.2l6.2-13h35h0.1l6.3,13
		C72.2,73.9,72,74.4,71.9,74.5z"/>
</g>
</svg>
