<?xml version="1.0" encoding="utf-8"?>
<!-- Generator: Adobe Illustrator 19.2.1, SVG Export Plug-In . SVG Version: 6.00 Build 0)  -->
<svg version="1.1" id="Layer_1" xmlns="http://www.w3.org/2000/svg" xmlns:xlink="http://www.w3.org/1999/xlink" x="0px" y="0px"
	 viewBox="0 0 96 96" style="enable-background:new 0 0 96 96;" xml:space="preserve">
<style type="text/css">
	.st0{fill:#C42227;stroke:#C42126;stroke-miterlimit:10;}
	.st1{fill:#C42126;}
	.st2{fill:#FFFFFF;}
</style>
<title>roofgarden</title>
<circle class="st0" cx="48.3" cy="48.3" r="45.3"/>
<path class="st1" d="M24,22.4"/>
<g>
	<path class="st2" d="M34.9,56.2l1.5,0.9c0.2,0,0.3-0.1,0.3-0.3c0-0.1-0.1-0.3-0.2-0.6L33.3,50l-7.2,0.2c-0.3,0-0.5,0.2-0.5,0.5
		c0,0.1,0.1,0.2,0.3,0.3l1.5,0.9l-1.6,2.4c-0.5,0.7-0.7,1.3-0.7,1.7c0,0.5,0.1,0.9,0.5,1.4l4.9,8.6c-0.1-0.6-0.2-1-0.2-1.5
		c0-0.8,0.2-1.7,0.8-2.6L34.9,56.2L34.9,56.2z"/>
	<path class="st2" d="M36.8,51.1l4.1-6.3c-1.5-3.5-3.1-5.2-4.9-5.2c-1,0-1.7,0.2-2.1,0.8L30,46.5L36.8,51.1L36.8,51.1z"/>
	<path class="st2" d="M33.5,68.2h7.9v-8.1h-7.5c-0.9,1.3-1.5,2.2-1.7,2.7c-0.3,0.7-0.6,1.5-0.6,2.3C31.4,67.1,32.1,68.2,33.5,68.2
		L33.5,68.2z"/>
	<path class="st2" d="M49.6,49.7l3.5-5.9c0.1-0.2,0.2-0.5,0.2-0.7c0-0.2-0.1-0.3-0.2-0.3c0,0-0.1,0-0.3,0.1l-1.6,0.7l-1.5-2.9
		c-0.7-1.3-2-2-3.9-2h-9c1.2,0.3,1.9,0.7,2.2,1c0.9,0.7,1.9,2.1,2.9,4.2l1.9,3.8l-1.4,0.7c-0.1,0-0.1,0.1-0.1,0.2
		c0,0.2,0.1,0.3,0.5,0.3L49.6,49.7L49.6,49.7z"/>
	<path class="st2" d="M53.1,66.9l5.1-9.3c-0.7,0.8-1.6,1.4-2.4,1.7c-0.7,0.2-1.7,0.3-3,0.3h-5.7v-1.2c0-0.5-0.1-0.7-0.3-0.7
		c-0.1,0-0.2,0.1-0.3,0.2l-3.6,6.3l3.7,5.7c0.2,0.5,0.6,0.6,0.7,0.5c0.2-0.1,0.3-0.1,0.3-0.3v-2h3.1C51.8,68.2,52.6,67.9,53.1,66.9
		L53.1,66.9z"/>
	<path class="st2" d="M50.9,58.6h3.4c0.8,0,1.6-0.3,2.6-1c0.9-0.7,1.4-1.5,1.4-2.3c0-0.3-0.1-0.8-0.3-1.2l-4.1-6.1l-7,4.1L50.9,58.6
		L50.9,58.6z"/>
</g>
<g>
	<path class="st2" d="M63.3,77.8H18.9c-0.4,0-0.7-0.3-0.7-0.7V32.8c0-0.4,0.3-0.7,0.7-0.7h44.4c0.4,0,0.7,0.3,0.7,0.7v44.4
		C63.9,77.5,63.6,77.8,63.3,77.8L63.3,77.8z M19.6,76.5h43V33.4h-43C19.6,33.4,19.6,76.5,19.6,76.5z"/>
	<path class="st2" d="M77.6,65.7c-0.4,0-0.7-0.3-0.7-0.7V21.3H33.3c-0.4,0-0.7-0.3-0.7-0.7c0-0.4,0.3-0.7,0.7-0.7h44.4
		c0.4,0,0.7,0.3,0.7,0.7V65C78.3,65.4,78,65.7,77.6,65.7z"/>
	<path class="st2" d="M18.9,33.4c-0.4,0-0.7-0.3-0.6-0.7c0-0.2,0.1-0.3,0.2-0.5l14.4-12.1c0.3-0.2,0.7-0.1,0.9,0.3
		c0.1,0.2,0.1,0.5-0.1,0.7L19.3,33.3C19.2,33.4,19.1,33.4,18.9,33.4z"/>
	<path class="st2" d="M63.3,33.4c-0.4,0-0.7-0.3-0.6-0.7c0-0.2,0.1-0.3,0.2-0.5l14.4-12.1c0.3-0.2,0.7-0.1,0.9,0.3
		c0.1,0.2,0.1,0.5-0.1,0.7L63.7,33.3C63.6,33.4,63.4,33.4,63.3,33.4z"/>
	<path class="st2" d="M42.3,33.4c-0.4,0-0.7-0.3-0.6-0.7c0-0.2,0.1-0.3,0.2-0.5l14.4-12.1c0.2-0.3,0.6-0.3,0.9-0.1
		c0.3,0.2,0.3,0.6,0.1,0.9c-0.1,0.1-0.1,0.1-0.2,0.2L42.8,33.3C42.6,33.4,42.5,33.4,42.3,33.4z"/>
	<path class="st2" d="M63.3,77.8c-0.4,0-0.7-0.3-0.6-0.7c0-0.2,0.1-0.3,0.2-0.5l14.4-12.1c0.2-0.3,0.6-0.3,0.9-0.1
		c0.3,0.2,0.3,0.6,0.1,0.9c-0.1,0.1-0.1,0.1-0.2,0.2L63.7,77.7C63.6,77.8,63.4,77.8,63.3,77.8z"/>
</g>
</svg>
