<?xml version="1.0" encoding="utf-8"?>
<!-- Generator: Adobe Illustrator 19.2.1, SVG Export Plug-In . SVG Version: 6.00 Build 0)  -->
<svg version="1.1" id="Layer_1" xmlns="http://www.w3.org/2000/svg" xmlns:xlink="http://www.w3.org/1999/xlink" x="0px" y="0px"
	 viewBox="0 0 96 96" style="enable-background:new 0 0 96 96;" xml:space="preserve">
<style type="text/css">
	.st0{fill:#C42227;stroke:#C42126;stroke-miterlimit:10;}
	.st1{fill:#FFFFFF;}
</style>
<title>roofgarden</title>
<circle class="st0" cx="48.3" cy="48.3" r="45.3"/>
<g>
	<path class="st1" d="M34.9,73.5c0.6,0.5,1.3,0.7,2,0.7c0.9,0,1.8-0.4,2.5-1.2l9.2-11.2c0.5-0.6,0.7-1.4,0.7-2.1l-8.4-7.5l1.8,6.9
		l-8.2,10C33.3,70.4,33.5,72.4,34.9,73.5z"/>
	<polygon class="st1" points="45.8,68.5 50.1,68.5 49.9,66.2 47.7,66.2 	"/>
	<polygon class="st1" points="89.1,68.5 89.1,66.2 60.5,66.2 60.7,68.5 	"/>
	<path class="st1" d="M7.6,68.5h24.7c0.2-0.3,0.3-0.6,0.5-0.8l1.3-1.5H7.6V68.5z"/>
	<path class="st1" d="M52.6,39.8c0.4,0.7,1,1.1,1.8,1.2l8.5,1.1c0.1,0,0.2,0,0.3,0c1.2,0,2.2-0.9,2.4-2.1c0.2-1.3-0.7-2.5-2.1-2.7
		l-7.3-1l-4.9-8.8l0,0c-0.4-0.7-0.9-1.2-1.6-1.5c-0.6-0.2-1.3-0.4-2-0.3c-0.1,0-0.3,0-0.4,0l-10.5,0.8c-1,0.1-1.8,0.7-2.1,1.7
		l-3.3,10.6c-0.4,1.3,0.3,2.6,1.6,3c0.2,0.1,0.5,0.1,0.7,0.1c1,0,2-0.7,2.3-1.7l2.8-9.1l2.5-0.2c-2.2,4.7-3,8.1-3.1,13.8
		c0.1,2.1,0.8,3.4,1.8,4.2c0.1,0.1,0.2,0.3,0.4,0.4l11.2,10.1l0.8,12.2c0.1,1.7,1.5,3,3.2,3c0.1,0,0.1,0,0.2,0
		c1.8-0.1,3.1-1.6,3-3.4l-0.9-13.5c-0.1-0.8-0.4-1.6-1-2.2l-8.8-7.9c0-3.7,1.3-8.3,2.5-11.9L52.6,39.8z"/>
	<path class="st1" d="M49.2,18.3c-1.1,2.9,0.3,6.2,3.3,7.3c2.9,1.1,6.2-0.3,7.3-3.3c1.1-2.9-0.3-6.2-3.3-7.3
		C53.5,14,50.3,15.4,49.2,18.3z"/>
</g>
</svg>
